STARTFONT 2.3
FONT -FontForge-Pacifico-Book-R-Normal--8-80-72-72-P-47-ISO10646-1
SIZE 8 72 72  2
FONTBOUNDINGBOX 19 17 -5 -4
COMMENT "Generated by fontforge, http://fontforge.sourceforge.net"
COMMENT "Copyright 2018 The Pacifico Project Authors (https://github.com/googlefonts/Pacifico)"
STARTPROPERTIES 41
FOUNDRY "FontForge"
FAMILY_NAME "Pacifico"
WEIGHT_NAME "Book"
SLANT "R"
SETWIDTH_NAME "Normal"
ADD_STYLE_NAME ""
PIXEL_SIZE 8
POINT_SIZE 80
RESOLUTION_X 72
RESOLUTION_Y 72
SPACING "P"
AVERAGE_WIDTH 47
CHARSET_REGISTRY "ISO10646"
CHARSET_ENCODING "1"
FONTNAME_REGISTRY ""
CHARSET_COLLECTIONS "ISO8859-2 ISO8859-5 ISO8859-9 ISO8859-4 ISO10646-1"
BITS_PER_PIXEL 2
FONT_NAME "Pacifico-Regular"
FACE_NAME "Pacifico Regular"
COPYRIGHT "Copyright 2018 The Pacifico Project Authors (https://github.com/googlefonts/Pacifico)"
FONT_VERSION "3.001"
FONT_ASCENT 6
FONT_DESCENT 2
UNDERLINE_POSITION -1
UNDERLINE_THICKNESS 1
X_HEIGHT 3
CAP_HEIGHT 6
DEFAULT_CHAR 1
RAW_ASCENT 800
RAW_DESCENT 200
NORM_SPACE 2
RELATIVE_WEIGHT 40
RELATIVE_SETWIDTH 50
SUPERSCRIPT_X 0
SUPERSCRIPT_Y 2
SUPERSCRIPT_SIZE 4
SUBSCRIPT_X 0
SUBSCRIPT_Y 0
SUBSCRIPT_SIZE 4
AVG_LOWERCASE_WIDTH 38
AVG_UPPERCASE_WIDTH 65
ENDPROPERTIES
CHARS 1514
STARTCHAR NULL.dup1
ENCODING 0
SWIDTH 0 0
DWIDTH 0 0
BBX 1 1 0 0
BITMAP
00
ENDCHAR
STARTCHAR nonmarkingreturn
ENCODING 13
SWIDTH 265 0
DWIDTH 2 0
BBX 1 1 0 0
BITMAP
00
ENDCHAR
STARTCHAR space
ENCODING 32
SWIDTH 265 0
DWIDTH 2 0
BBX 1 1 0 0
BITMAP
00
ENDCHAR
STARTCHAR exclam
ENCODING 33
SWIDTH 340 0
DWIDTH 3 0
BBX 3 7 0 0
BITMAP
18
28
24
30
10
50
A0
ENDCHAR
STARTCHAR quotedbl
ENCODING 34
SWIDTH 510 0
DWIDTH 4 0
BBX 3 3 1 4
BITMAP
9C
DC
98
ENDCHAR
STARTCHAR numbersign
ENCODING 35
SWIDTH 700 0
DWIDTH 6 0
BBX 6 5 0 0
BITMAP
0980
7FD0
2640
BFC0
2600
ENDCHAR
STARTCHAR dollar
ENCODING 36
SWIDTH 524 0
DWIDTH 4 0
BBX 4 8 0 -1
BITMAP
04
08
2E
69
2D
9A
79
10
ENDCHAR
STARTCHAR percent
ENCODING 37
SWIDTH 896 0
DWIDTH 7 0
BBX 7 7 0 0
BITMAP
2450
5C90
9F80
2640
0668
099C
0868
ENDCHAR
STARTCHAR ampersand
ENCODING 38
SWIDTH 851 0
DWIDTH 7 0
BBX 7 9 0 -1
BITMAP
0B40
1980
1980
1F00
2E04
6764
A2E0
2EA0
0010
ENDCHAR
STARTCHAR quotesingle
ENCODING 39
SWIDTH 290 0
DWIDTH 2 0
BBX 2 3 1 4
BITMAP
90
C0
80
ENDCHAR
STARTCHAR parenleft
ENCODING 40
SWIDTH 613 0
DWIDTH 5 0
BBX 6 9 0 -1
BITMAP
06E0
0D10
1800
2400
3000
7000
7000
3140
2E00
ENDCHAR
STARTCHAR parenright
ENCODING 41
SWIDTH 613 0
DWIDTH 5 0
BBX 6 9 -1 -1
BITMAP
0B80
0490
00A0
0090
0090
00C0
0180
0740
7900
ENDCHAR
STARTCHAR asterisk
ENCODING 42
SWIDTH 520 0
DWIDTH 4 0
BBX 3 4 1 4
BITMAP
20
B8
B8
10
ENDCHAR
STARTCHAR plus
ENCODING 43
SWIDTH 700 0
DWIDTH 6 0
BBX 5 5 0 0
BITMAP
0500
0500
7FC0
0900
0800
ENDCHAR
STARTCHAR comma
ENCODING 44
SWIDTH 257 0
DWIDTH 2 0
BBX 2 3 0 -1
BITMAP
90
90
80
ENDCHAR
STARTCHAR hyphen
ENCODING 45
SWIDTH 403 0
DWIDTH 3 0
BBX 3 1 0 2
BITMAP
78
ENDCHAR
STARTCHAR period
ENCODING 46
SWIDTH 257 0
DWIDTH 2 0
BBX 2 2 0 0
BITMAP
50
A0
ENDCHAR
STARTCHAR slash
ENCODING 47
SWIDTH 509 0
DWIDTH 4 0
BBX 5 8 0 0
BITMAP
0140
0300
0A00
0C00
2800
3000
A000
8000
ENDCHAR
STARTCHAR zero
ENCODING 48
SWIDTH 543 0
DWIDTH 4 0
BBX 4 5 0 0
BITMAP
2D
63
93
A6
3D
ENDCHAR
STARTCHAR one
ENCODING 49
SWIDTH 376 0
DWIDTH 3 0
BBX 3 5 0 0
BITMAP
68
68
24
24
20
ENDCHAR
STARTCHAR two
ENCODING 50
SWIDTH 560 0
DWIDTH 4 0
BBX 4 5 0 0
BITMAP
2E
63
06
28
BF
ENDCHAR
STARTCHAR three
ENCODING 51
SWIDTH 520 0
DWIDTH 4 0
BBX 4 5 0 0
BITMAP
2E
56
1D
46
7D
ENDCHAR
STARTCHAR four
ENCODING 52
SWIDTH 577 0
DWIDTH 5 0
BBX 5 5 0 0
BITMAP
1800
3600
6600
BF40
0500
ENDCHAR
STARTCHAR five
ENCODING 53
SWIDTH 518 0
DWIDTH 4 0
BBX 4 5 0 0
BITMAP
7E
20
7D
56
7D
ENDCHAR
STARTCHAR six
ENCODING 54
SWIDTH 541 0
DWIDTH 4 0
BBX 4 5 0 0
BITMAP
2E
62
BD
A6
3D
ENDCHAR
STARTCHAR seven
ENCODING 55
SWIDTH 497 0
DWIDTH 4 0
BBX 4 5 0 0
BITMAP
7F
09
28
34
30
ENDCHAR
STARTCHAR eight
ENCODING 56
SWIDTH 512 0
DWIDTH 4 0
BBX 4 5 0 0
BITMAP
2E
66
3D
96
7D
ENDCHAR
STARTCHAR nine
ENCODING 57
SWIDTH 541 0
DWIDTH 4 0
BBX 4 5 0 0
BITMAP
2D
67
3B
56
7D
ENDCHAR
STARTCHAR colon
ENCODING 58
SWIDTH 257 0
DWIDTH 2 0
BBX 2 4 0 0
BITMAP
60
60
50
A0
ENDCHAR
STARTCHAR semicolon
ENCODING 59
SWIDTH 257 0
DWIDTH 2 0
BBX 2 5 0 -1
BITMAP
60
60
90
90
80
ENDCHAR
STARTCHAR less
ENCODING 60
SWIDTH 700 0
DWIDTH 6 0
BBX 4 4 1 1
BITMAP
0B
A4
A4
1A
ENDCHAR
STARTCHAR equal
ENCODING 61
SWIDTH 700 0
DWIDTH 6 0
BBX 5 3 0 1
BITMAP
3FC0
0000
7F80
ENDCHAR
STARTCHAR greater
ENCODING 62
SWIDTH 700 0
DWIDTH 6 0
BBX 5 4 0 1
BITMAP
3800
0B80
1B80
6400
ENDCHAR
STARTCHAR question
ENCODING 63
SWIDTH 476 0
DWIDTH 4 0
BBX 4 7 0 0
BITMAP
2E
63
0A
18
10
60
60
ENDCHAR
STARTCHAR at
ENCODING 64
SWIDTH 1015 0
DWIDTH 8 0
BBX 8 8 0 -2
BITMAP
06F8
290A
71D2
A662
9A9A
A7B8
3404
1BE4
ENDCHAR
STARTCHAR A
ENCODING 65
SWIDTH 786 0
DWIDTH 6 0
BBX 8 7 0 0
BITMAP
06F8
1D10
3460
60A0
A0D0
72D5
2E78
ENDCHAR
STARTCHAR B
ENCODING 66
SWIDTH 827 0
DWIDTH 7 0
BBX 7 8 0 -1
BITMAP
2BE4
941C
1828
26E0
2470
3470
3F90
1000
ENDCHAR
STARTCHAR C
ENCODING 67
SWIDTH 686 0
DWIDTH 5 0
BBX 7 7 0 0
BITMAP
0BD0
28A0
7050
6000
6000
3414
1BE0
ENDCHAR
STARTCHAR D
ENCODING 68
SWIDTH 836 0
DWIDTH 7 0
BBX 7 7 0 0
BITMAP
2F90
5474
1824
2424
3434
30A0
3F80
ENDCHAR
STARTCHAR E
ENCODING 69
SWIDTH 686 0
DWIDTH 5 0
BBX 7 7 0 0
BITMAP
0BD0
2460
3450
2E00
A000
A014
2FE0
ENDCHAR
STARTCHAR F
ENCODING 70
SWIDTH 712 0
DWIDTH 6 0
BBX 8 7 0 0
BITMAP
1BF9
6340
2340
0BE0
0700
8600
7800
ENDCHAR
STARTCHAR G
ENCODING 71
SWIDTH 811 0
DWIDTH 6 0
BBX 8 11 0 -4
BITMAP
0BD0
2860
7060
6000
60F0
3435
1FF8
00A0
0290
0680
0740
ENDCHAR
STARTCHAR H
ENCODING 72
SWIDTH 873 0
DWIDTH 7 0
BBX 8 8 0 0
BITMAP
000D
7826
8C35
0C78
3FE0
18A0
2462
242D
ENDCHAR
STARTCHAR I
ENCODING 73
SWIDTH 495 0
DWIDTH 4 0
BBX 5 7 0 0
BITMAP
3F40
0C00
1C00
1800
2800
2400
BD00
ENDCHAR
STARTCHAR J
ENCODING 74
SWIDTH 743 0
DWIDTH 6 0
BBX 6 8 0 -1
BITMAP
2FE0
60A0
60A0
01D0
0AC0
29C0
2640
1E00
ENDCHAR
STARTCHAR K
ENCODING 75
SWIDTH 937 0
DWIDTH 8 0
BBX 9 7 0 0
BITMAP
2F8600
624D00
536800
0BD000
067000
8A3540
781E00
ENDCHAR
STARTCHAR L
ENCODING 76
SWIDTH 673 0
DWIDTH 5 0
BBX 8 7 -1 0
BITMAP
01F4
0718
0A04
0900
0900
2E45
7AF8
ENDCHAR
STARTCHAR M
ENCODING 77
SWIDTH 1232 0
DWIDTH 10 0
BBX 11 7 0 0
BITMAP
79E2D0
8E3890
1D34D0
1C30C0
1871C0
286188
2460F4
ENDCHAR
STARTCHAR N
ENCODING 78
SWIDTH 884 0
DWIDTH 7 0
BBX 8 7 0 0
BITMAP
78B4
8E28
1D24
1C34
1830
2832
242D
ENDCHAR
STARTCHAR O
ENCODING 79
SWIDTH 816 0
DWIDTH 7 0
BBX 7 7 0 0
BITMAP
0BD0
2870
7034
6034
6030
70A0
1F80
ENDCHAR
STARTCHAR P
ENCODING 80
SWIDTH 805 0
DWIDTH 6 0
BBX 7 8 0 -1
BITMAP
07E0
2834
2328
5734
9F90
9A00
5900
3C00
ENDCHAR
STARTCHAR Q
ENCODING 81
SWIDTH 816 0
DWIDTH 7 0
BBX 7 10 0 -3
BITMAP
0BD0
2870
7034
6034
6034
70A0
2EC0
0740
01C8
00B4
ENDCHAR
STARTCHAR R
ENCODING 82
SWIDTH 880 0
DWIDTH 7 0
BBX 8 7 0 0
BITMAP
0BE0
2534
6674
5FD0
9A90
6972
2C2D
ENDCHAR
STARTCHAR S
ENCODING 83
SWIDTH 693 0
DWIDTH 6 0
BBX 6 7 0 0
BITMAP
1B80
30A0
3450
1E40
41C0
90C0
6F40
ENDCHAR
STARTCHAR T
ENCODING 84
SWIDTH 697 0
DWIDTH 6 0
BBX 7 7 0 0
BITMAP
2BFC
9240
9300
0700
0600
0600
0900
ENDCHAR
STARTCHAR U
ENCODING 85
SWIDTH 890 0
DWIDTH 7 0
BBX 8 7 0 0
BITMAP
7C18
9C28
0C24
1834
2870
29B6
1E2D
ENDCHAR
STARTCHAR V
ENCODING 86
SWIDTH 763 0
DWIDTH 6 0
BBX 6 7 1 0
BITMAP
92C0
D690
C2C0
C1F0
D240
AA00
7800
ENDCHAR
STARTCHAR W
ENCODING 87
SWIDTH 1217 0
DWIDTH 10 0
BBX 10 7 1 0
BITMAP
90C780
D1C9C0
C1C680
C2C2E0
C6C300
99D900
747400
ENDCHAR
STARTCHAR X
ENCODING 88
SWIDTH 712 0
DWIDTH 6 0
BBX 7 7 0 0
BITMAP
7870
49D0
0740
0B00
1B40
7284
D1E0
ENDCHAR
STARTCHAR Y
ENCODING 89
SWIDTH 851 0
DWIDTH 7 0
BBX 8 10 0 -3
BITMAP
7C18
8C28
0C24
1874
18B0
0E7A
01F4
0A60
0C90
0B80
ENDCHAR
STARTCHAR Z
ENCODING 90
SWIDTH 721 0
DWIDTH 6 0
BBX 7 7 0 0
BITMAP
2FE0
60A0
51C0
0340
0A00
7D08
BAE4
ENDCHAR
STARTCHAR bracketleft
ENCODING 91
SWIDTH 405 0
DWIDTH 3 0
BBX 4 9 0 -1
BITMAP
1E
24
24
34
30
30
70
60
7C
ENDCHAR
STARTCHAR backslash
ENCODING 92
SWIDTH 509 0
DWIDTH 4 0
BBX 3 8 1 0
BITMAP
80
C0
90
60
30
34
24
18
ENDCHAR
STARTCHAR bracketright
ENCODING 93
SWIDTH 405 0
DWIDTH 3 0
BBX 4 9 -1 -1
BITMAP
1F
03
07
06
06
09
09
0D
7C
ENDCHAR
STARTCHAR asciicircum
ENCODING 94
SWIDTH 700 0
DWIDTH 6 0
BBX 5 5 0 0
BITMAP
0100
0A00
1A00
2640
6180
ENDCHAR
STARTCHAR underscore
ENCODING 95
SWIDTH 354 0
DWIDTH 3 0
BBX 3 1 0 -1
BITMAP
F4
ENDCHAR
STARTCHAR grave
ENCODING 96
SWIDTH 600 0
DWIDTH 5 0
BBX 2 3 1 5
BITMAP
40
90
20
ENDCHAR
STARTCHAR a
ENCODING 97
SWIDTH 470 0
DWIDTH 4 0
BBX 5 4 0 0
BITMAP
2D00
6900
9D80
7B40
ENDCHAR
STARTCHAR b
ENCODING 98
SWIDTH 473 0
DWIDTH 4 0
BBX 5 8 0 0
BITMAP
1D00
2500
2800
6800
7D00
9B80
6500
3800
ENDCHAR
STARTCHAR c
ENCODING 99
SWIDTH 368 0
DWIDTH 3 0
BBX 4 4 0 0
BITMAP
38
98
92
7D
ENDCHAR
STARTCHAR d
ENCODING 100
SWIDTH 515 0
DWIDTH 4 0
BBX 5 8 0 0
BITMAP
0280
0280
0680
0A40
2F00
6A00
9980
7B40
ENDCHAR
STARTCHAR e
ENCODING 101
SWIDTH 393 0
DWIDTH 3 0
BBX 4 4 0 0
BITMAP
2C
98
A6
7D
ENDCHAR
STARTCHAR f
ENCODING 102
SWIDTH 371 0
DWIDTH 3 0
BBX 4 11 0 -3
BITMAP
09
16
36
38
74
60
AE
A4
A4
64
34
ENDCHAR
STARTCHAR g
ENCODING 103
SWIDTH 479 0
DWIDTH 4 0
BBX 5 8 0 -4
BITMAP
2D00
6900
9D80
7E00
2C00
6800
A400
A000
ENDCHAR
STARTCHAR h
ENCODING 104
SWIDTH 502 0
DWIDTH 4 0
BBX 5 8 0 0
BITMAP
1D00
2500
2800
6800
7A00
AA00
A980
9740
ENDCHAR
STARTCHAR i
ENCODING 105
SWIDTH 246 0
DWIDTH 2 0
BBX 3 6 0 0
BITMAP
20
00
60
90
98
74
ENDCHAR
STARTCHAR j
ENCODING 106
SWIDTH 254 0
DWIDTH 2 0
BBX 5 10 -2 -4
BITMAP
0600
0000
0600
0600
0A80
0A40
1C00
6C00
9800
B000
ENDCHAR
STARTCHAR k
ENCODING 107
SWIDTH 525 0
DWIDTH 4 0
BBX 5 8 0 0
BITMAP
1D00
2500
2800
6800
6B00
A700
A940
5B80
ENDCHAR
STARTCHAR l
ENCODING 108
SWIDTH 326 0
DWIDTH 3 0
BBX 4 8 0 0
BITMAP
1D
25
25
68
68
B0
61
38
ENDCHAR
STARTCHAR m
ENCODING 109
SWIDTH 744 0
DWIDTH 6 0
BBX 7 4 0 0
BITMAP
6AA0
BBA0
AA98
5574
ENDCHAR
STARTCHAR n
ENCODING 110
SWIDTH 496 0
DWIDTH 4 0
BBX 5 4 0 0
BITMAP
6A00
BA00
A980
5740
ENDCHAR
STARTCHAR o
ENCODING 111
SWIDTH 451 0
DWIDTH 4 0
BBX 5 4 0 0
BITMAP
3D00
9B40
9900
7800
ENDCHAR
STARTCHAR p
ENCODING 112
SWIDTH 481 0
DWIDTH 4 0
BBX 6 8 -1 -4
BITMAP
1B40
1A80
2A60
3FD0
6400
A400
A000
A000
ENDCHAR
STARTCHAR q
ENCODING 113
SWIDTH 500 0
DWIDTH 4 0
BBX 5 8 0 -3
BITMAP
0100
2E00
6900
9EC0
7E00
0E00
0E00
0D00
ENDCHAR
STARTCHAR r
ENCODING 114
SWIDTH 455 0
DWIDTH 4 0
BBX 5 4 0 0
BITMAP
6A00
AA40
A740
5000
ENDCHAR
STARTCHAR s
ENCODING 115
SWIDTH 427 0
DWIDTH 3 0
BBX 5 4 0 0
BITMAP
2400
3400
9D40
6E00
ENDCHAR
STARTCHAR t
ENCODING 116
SWIDTH 393 0
DWIDTH 3 0
BBX 4 8 0 0
BITMAP
09
29
39
38
FD
60
62
2D
ENDCHAR
STARTCHAR u
ENCODING 117
SWIDTH 462 0
DWIDTH 4 0
BBX 5 4 0 0
BITMAP
6500
5900
AD80
6A00
ENDCHAR
STARTCHAR v
ENCODING 118
SWIDTH 449 0
DWIDTH 4 0
BBX 5 4 0 0
BITMAP
9900
9F80
A800
7000
ENDCHAR
STARTCHAR w
ENCODING 119
SWIDTH 700 0
DWIDTH 6 0
BBX 7 4 0 0
BITMAP
9990
9DF8
BA80
7700
ENDCHAR
STARTCHAR x
ENCODING 120
SWIDTH 529 0
DWIDTH 4 0
BBX 6 4 0 0
BITMAP
7B40
1D00
9C50
BB80
ENDCHAR
STARTCHAR y
ENCODING 121
SWIDTH 479 0
DWIDTH 4 0
BBX 5 8 0 -4
BITMAP
6500
5900
AD80
6E00
2C00
6800
A400
A000
ENDCHAR
STARTCHAR z
ENCODING 122
SWIDTH 445 0
DWIDTH 4 0
BBX 5 4 0 0
BITMAP
7E00
2800
6140
3E00
ENDCHAR
STARTCHAR braceleft
ENCODING 123
SWIDTH 490 0
DWIDTH 4 0
BBX 5 9 0 -1
BITMAP
0740
0D00
0C00
1C00
7400
2800
2800
2800
1E00
ENDCHAR
STARTCHAR bar
ENCODING 124
SWIDTH 326 0
DWIDTH 3 0
BBX 3 11 0 -3
BITMAP
14
24
24
30
30
30
60
60
90
90
40
ENDCHAR
STARTCHAR braceright
ENCODING 125
SWIDTH 490 0
DWIDTH 4 0
BBX 5 9 -1 -1
BITMAP
1D00
0700
0700
0700
0380
0A00
0900
0D00
7800
ENDCHAR
STARTCHAR asciitilde
ENCODING 126
SWIDTH 700 0
DWIDTH 6 0
BBX 5 2 0 2
BITMAP
2880
6780
ENDCHAR
STARTCHAR uni00A0
ENCODING 160
SWIDTH 265 0
DWIDTH 2 0
BBX 1 1 0 0
BITMAP
00
ENDCHAR
STARTCHAR exclamdown
ENCODING 161
SWIDTH 340 0
DWIDTH 3 0
BBX 3 8 0 -4
BITMAP
24
24
10
60
90
D0
C0
40
ENDCHAR
STARTCHAR cent
ENCODING 162
SWIDTH 466 0
DWIDTH 4 0
BBX 4 6 0 -1
BITMAP
08
2C
69
A5
79
20
ENDCHAR
STARTCHAR sterling
ENCODING 163
SWIDTH 525 0
DWIDTH 4 0
BBX 4 5 0 0
BITMAP
1E
31
BC
60
BF
ENDCHAR
STARTCHAR currency
ENCODING 164
SWIDTH 700 0
DWIDTH 6 0
BBX 4 4 1 0
BITMAP
BA
85
85
BA
ENDCHAR
STARTCHAR yen
ENCODING 165
SWIDTH 497 0
DWIDTH 4 0
BBX 4 5 0 0
BITMAP
92
39
7E
BD
24
ENDCHAR
STARTCHAR brokenbar
ENCODING 166
SWIDTH 326 0
DWIDTH 3 0
BBX 3 11 0 -3
BITMAP
14
24
24
30
10
00
60
60
90
90
40
ENDCHAR
STARTCHAR section
ENCODING 167
SWIDTH 607 0
DWIDTH 5 0
BBX 5 7 0 0
BITMAP
1F40
2540
2D00
3240
1E00
6300
3E00
ENDCHAR
STARTCHAR dieresis
ENCODING 168
SWIDTH 600 0
DWIDTH 5 0
BBX 3 1 1 5
BITMAP
98
ENDCHAR
STARTCHAR copyright
ENCODING 169
SWIDTH 647 0
DWIDTH 5 0
BBX 6 5 0 3
BITMAP
1A40
2580
5550
2980
1A40
ENDCHAR
STARTCHAR ordfeminine
ENCODING 170
SWIDTH 393 0
DWIDTH 3 0
BBX 4 3 0 4
BITMAP
29
69
28
ENDCHAR
STARTCHAR guillemotleft
ENCODING 171
SWIDTH 615 0
DWIDTH 5 0
BBX 5 3 0 0
BITMAP
2640
AA00
2640
ENDCHAR
STARTCHAR logicalnot
ENCODING 172
SWIDTH 700 0
DWIDTH 6 0
BBX 5 3 0 0
BITMAP
7FC0
00C0
0040
ENDCHAR
STARTCHAR uni00AD
ENCODING 173
SWIDTH 403 0
DWIDTH 3 0
BBX 3 1 0 2
BITMAP
78
ENDCHAR
STARTCHAR registered
ENCODING 174
SWIDTH 647 0
DWIDTH 5 0
BBX 6 5 0 3
BITMAP
1A40
1A40
5950
2580
1A40
ENDCHAR
STARTCHAR macron
ENCODING 175
SWIDTH 600 0
DWIDTH 5 0
BBX 3 1 1 4
BITMAP
B8
ENDCHAR
STARTCHAR degree
ENCODING 176
SWIDTH 385 0
DWIDTH 3 0
BBX 2 3 1 4
BITMAP
A0
A0
A0
ENDCHAR
STARTCHAR plusminus
ENCODING 177
SWIDTH 700 0
DWIDTH 6 0
BBX 4 5 1 0
BITMAP
14
BE
24
10
FD
ENDCHAR
STARTCHAR uni00B2
ENCODING 178
SWIDTH 450 0
DWIDTH 4 0
BBX 4 4 0 3
BITMAP
29
19
18
79
ENDCHAR
STARTCHAR uni00B3
ENCODING 179
SWIDTH 450 0
DWIDTH 4 0
BBX 4 4 0 3
BITMAP
29
19
19
69
ENDCHAR
STARTCHAR acute
ENCODING 180
SWIDTH 600 0
DWIDTH 5 0
BBX 2 3 2 5
BITMAP
10
60
80
ENDCHAR
STARTCHAR uni00B5
ENCODING 181
SWIDTH 462 0
DWIDTH 4 0
BBX 5 6 0 -2
BITMAP
6500
9900
AD80
BA00
9000
8000
ENDCHAR
STARTCHAR paragraph
ENCODING 182
SWIDTH 739 0
DWIDTH 6 0
BBX 5 7 1 0
BITMAP
7F40
FA80
FA40
2740
3700
3700
3600
ENDCHAR
STARTCHAR periodcentered
ENCODING 183
SWIDTH 257 0
DWIDTH 2 0
BBX 2 2 0 1
BITMAP
60
60
ENDCHAR
STARTCHAR cedilla
ENCODING 184
SWIDTH 600 0
DWIDTH 5 0
BBX 3 3 0 -2
BITMAP
34
08
74
ENDCHAR
STARTCHAR uni00B9
ENCODING 185
SWIDTH 450 0
DWIDTH 4 0
BBX 2 4 1 3
BITMAP
B0
30
60
60
ENDCHAR
STARTCHAR ordmasculine
ENCODING 186
SWIDTH 408 0
DWIDTH 3 0
BBX 4 3 0 4
BITMAP
28
69
28
ENDCHAR
STARTCHAR guillemotright
ENCODING 187
SWIDTH 615 0
DWIDTH 5 0
BBX 5 3 0 0
BITMAP
6600
2A80
6600
ENDCHAR
STARTCHAR onequarter
ENCODING 188
SWIDTH 955 0
DWIDTH 8 0
BBX 7 7 1 0
BITMAP
B040
3240
6600
6990
19B0
25B4
0020
ENDCHAR
STARTCHAR onehalf
ENCODING 189
SWIDTH 1024 0
DWIDTH 8 0
BBX 7 7 1 0
BITMAP
B040
3240
6600
69A4
1858
2460
01F8
ENDCHAR
STARTCHAR threequarters
ENCODING 190
SWIDTH 1035 0
DWIDTH 8 0
BBX 8 7 0 0
BITMAP
2910
1930
1990
69D9
0266
022E
0005
ENDCHAR
STARTCHAR questiondown
ENCODING 191
SWIDTH 476 0
DWIDTH 4 0
BBX 5 8 -1 -4
BITMAP
0340
0200
0100
0900
1C00
3500
7300
2D00
ENDCHAR
STARTCHAR Agrave
ENCODING 192
SWIDTH 786 0
DWIDTH 6 0
BBX 8 10 0 0
BITMAP
0600
0180
0000
06F8
1D10
3460
60A0
A0D0
72D5
2E78
ENDCHAR
STARTCHAR Aacute
ENCODING 193
SWIDTH 786 0
DWIDTH 6 0
BBX 8 10 0 0
BITMAP
0018
0060
0000
06F8
1D10
3460
60A0
A0D0
72D5
2E78
ENDCHAR
STARTCHAR Acircumflex
ENCODING 194
SWIDTH 786 0
DWIDTH 6 0
BBX 8 11 0 0
BITMAP
0050
00F0
0160
0000
06F8
1D10
3460
60A0
A0D0
72D5
2E78
ENDCHAR
STARTCHAR Atilde
ENCODING 195
SWIDTH 786 0
DWIDTH 6 0
BBX 8 10 0 0
BITMAP
0044
02A4
0000
06F8
1D10
3460
60A0
A0D0
72D5
2E78
ENDCHAR
STARTCHAR Adieresis
ENCODING 196
SWIDTH 786 0
DWIDTH 6 0
BBX 8 9 0 0
BITMAP
0164
0000
06F8
1D10
3460
60A0
A0D0
72D5
2E78
ENDCHAR
STARTCHAR Aring
ENCODING 197
SWIDTH 786 0
DWIDTH 6 0
BBX 8 10 0 0
BITMAP
00A0
00A0
00A0
06F8
1D10
3460
60A0
A0D0
72D5
2E78
ENDCHAR
STARTCHAR AE
ENCODING 198
SWIDTH 1015 0
DWIDTH 8 0
BBX 9 7 0 0
BITMAP
06AF40
1D3000
306000
60BF00
A0D000
61E040
2E2F80
ENDCHAR
STARTCHAR Ccedilla
ENCODING 199
SWIDTH 686 0
DWIDTH 5 0
BBX 7 9 0 -2
BITMAP
0BD0
28A0
7050
6000
6000
7414
1FE0
0700
1E00
ENDCHAR
STARTCHAR Egrave
ENCODING 200
SWIDTH 686 0
DWIDTH 5 0
BBX 7 10 0 0
BITMAP
1800
0600
0000
0BD0
2460
3450
2E00
A000
A014
2FE0
ENDCHAR
STARTCHAR Eacute
ENCODING 201
SWIDTH 686 0
DWIDTH 5 0
BBX 7 10 0 0
BITMAP
0060
0180
0000
0BD0
2460
3450
2E00
A000
A014
2FE0
ENDCHAR
STARTCHAR Ecircumflex
ENCODING 202
SWIDTH 686 0
DWIDTH 5 0
BBX 7 11 0 0
BITMAP
0140
03C0
0580
0000
0BD0
2460
3450
2E00
A000
A014
2FE0
ENDCHAR
STARTCHAR Edieresis
ENCODING 203
SWIDTH 686 0
DWIDTH 5 0
BBX 7 9 0 0
BITMAP
0580
0000
0BD0
2460
3450
2E00
A000
A014
2FE0
ENDCHAR
STARTCHAR Igrave
ENCODING 204
SWIDTH 495 0
DWIDTH 4 0
BBX 5 10 0 0
BITMAP
6000
1800
0000
3F40
0C00
1C00
1800
2800
2400
BD00
ENDCHAR
STARTCHAR Iacute
ENCODING 205
SWIDTH 495 0
DWIDTH 4 0
BBX 5 10 0 0
BITMAP
0180
0600
0000
3F40
0C00
1C00
1800
2800
2400
BD00
ENDCHAR
STARTCHAR Icircumflex
ENCODING 206
SWIDTH 495 0
DWIDTH 4 0
BBX 5 11 0 0
BITMAP
0500
0F00
1600
0000
3F40
0C00
1C00
1800
2800
2400
BD00
ENDCHAR
STARTCHAR Idieresis
ENCODING 207
SWIDTH 495 0
DWIDTH 4 0
BBX 5 9 0 0
BITMAP
1600
0000
3F40
0C00
1C00
1800
2800
2400
BD00
ENDCHAR
STARTCHAR Eth
ENCODING 208
SWIDTH 821 0
DWIDTH 7 0
BBX 7 7 0 0
BITMAP
0F90
1870
2824
BE24
3030
30A0
7F40
ENDCHAR
STARTCHAR Ntilde
ENCODING 209
SWIDTH 884 0
DWIDTH 7 0
BBX 8 10 0 0
BITMAP
0150
02A0
0000
78B4
8E28
1D24
1C34
1830
2832
242D
ENDCHAR
STARTCHAR Ograve
ENCODING 210
SWIDTH 816 0
DWIDTH 7 0
BBX 7 10 0 0
BITMAP
1800
0600
0000
0BD0
2870
7034
6034
6030
70A0
1F80
ENDCHAR
STARTCHAR Oacute
ENCODING 211
SWIDTH 816 0
DWIDTH 7 0
BBX 7 10 0 0
BITMAP
0060
0190
0000
0BD0
2870
7034
6034
6030
70A0
1F80
ENDCHAR
STARTCHAR Ocircumflex
ENCODING 212
SWIDTH 816 0
DWIDTH 7 0
BBX 7 11 0 0
BITMAP
0140
03C0
0690
0000
0BD0
2870
7034
6034
6030
70A0
1F80
ENDCHAR
STARTCHAR Otilde
ENCODING 213
SWIDTH 816 0
DWIDTH 7 0
BBX 7 10 0 0
BITMAP
0110
0A90
0000
0BD0
2870
7034
6034
6030
70A0
1F80
ENDCHAR
STARTCHAR Odieresis
ENCODING 214
SWIDTH 816 0
DWIDTH 7 0
BBX 7 9 0 0
BITMAP
0690
0000
0BD0
2870
7034
6034
6030
70A0
1F80
ENDCHAR
STARTCHAR multiply
ENCODING 215
SWIDTH 700 0
DWIDTH 6 0
BBX 4 4 1 1
BITMAP
96
7C
7C
89
ENDCHAR
STARTCHAR Oslash
ENCODING 216
SWIDTH 816 0
DWIDTH 7 0
BBX 7 9 0 -1
BITMAP
0080
0BD0
29B0
7234
6234
6630
79A0
1F80
0800
ENDCHAR
STARTCHAR Ugrave
ENCODING 217
SWIDTH 890 0
DWIDTH 7 0
BBX 8 10 0 0
BITMAP
0900
0240
0000
7C18
9C28
0C24
1834
2870
29B6
1E2D
ENDCHAR
STARTCHAR Uacute
ENCODING 218
SWIDTH 890 0
DWIDTH 7 0
BBX 8 10 0 0
BITMAP
0024
0090
0000
7C18
9C28
0C24
1834
2870
29B6
1E2D
ENDCHAR
STARTCHAR Ucircumflex
ENCODING 219
SWIDTH 890 0
DWIDTH 7 0
BBX 8 11 0 0
BITMAP
0040
01D0
0260
0000
7C18
9C28
0C24
1834
2870
29B6
1E2D
ENDCHAR
STARTCHAR Udieresis
ENCODING 220
SWIDTH 890 0
DWIDTH 7 0
BBX 8 9 0 0
BITMAP
0260
0000
7C18
9C28
0C24
1834
2870
29B6
1E2D
ENDCHAR
STARTCHAR Yacute
ENCODING 221
SWIDTH 851 0
DWIDTH 7 0
BBX 8 13 0 -3
BITMAP
0024
0090
0000
7C18
8C28
0C24
1874
18B0
0E7A
01F4
0A60
0C90
0B80
ENDCHAR
STARTCHAR Thorn
ENCODING 222
SWIDTH 776 0
DWIDTH 6 0
BBX 6 9 0 -1
BITMAP
0300
0700
1FD0
3A70
6A30
9AA0
9E40
5C00
3800
ENDCHAR
STARTCHAR germandbls
ENCODING 223
SWIDTH 596 0
DWIDTH 5 0
BBX 6 9 0 -2
BITMAP
1B40
3580
6640
6900
9B90
AA90
AF40
9000
9000
ENDCHAR
STARTCHAR agrave
ENCODING 224
SWIDTH 470 0
DWIDTH 4 0
BBX 5 8 0 0
BITMAP
1000
2400
0800
0000
2D00
6900
9D80
7B40
ENDCHAR
STARTCHAR aacute
ENCODING 225
SWIDTH 470 0
DWIDTH 4 0
BBX 5 8 0 0
BITMAP
0100
0600
0800
0000
2D00
6900
9D80
7B40
ENDCHAR
STARTCHAR acircumflex
ENCODING 226
SWIDTH 470 0
DWIDTH 4 0
BBX 5 8 0 0
BITMAP
0900
1A00
2200
0000
2D00
6900
9D80
7B40
ENDCHAR
STARTCHAR atilde
ENCODING 227
SWIDTH 470 0
DWIDTH 4 0
BBX 5 7 0 0
BITMAP
1500
2A00
0000
2D00
6900
9D80
7B40
ENDCHAR
STARTCHAR adieresis
ENCODING 228
SWIDTH 470 0
DWIDTH 4 0
BBX 5 6 0 0
BITMAP
2600
0000
2D00
6900
9D80
7B40
ENDCHAR
STARTCHAR aring
ENCODING 229
SWIDTH 470 0
DWIDTH 4 0
BBX 5 7 0 0
BITMAP
0D00
1600
1D00
2D00
6900
9D80
7B40
ENDCHAR
STARTCHAR ae
ENCODING 230
SWIDTH 653 0
DWIDTH 5 0
BBX 7 4 0 0
BITMAP
2EC0
6A80
9E64
77D0
ENDCHAR
STARTCHAR ccedilla
ENCODING 231
SWIDTH 368 0
DWIDTH 3 0
BBX 4 6 0 -2
BITMAP
38
98
92
78
08
74
ENDCHAR
STARTCHAR egrave
ENCODING 232
SWIDTH 393 0
DWIDTH 3 0
BBX 4 8 0 0
BITMAP
10
30
14
00
2C
98
A6
7D
ENDCHAR
STARTCHAR eacute
ENCODING 233
SWIDTH 393 0
DWIDTH 3 0
BBX 4 8 0 0
BITMAP
01
09
08
00
2C
98
A6
7D
ENDCHAR
STARTCHAR ecircumflex
ENCODING 234
SWIDTH 393 0
DWIDTH 3 0
BBX 4 8 0 0
BITMAP
1C
29
25
00
2C
98
A6
7D
ENDCHAR
STARTCHAR edieresis
ENCODING 235
SWIDTH 393 0
DWIDTH 3 0
BBX 4 6 0 0
BITMAP
25
00
2C
98
A6
7D
ENDCHAR
STARTCHAR igrave
ENCODING 236
SWIDTH 246 0
DWIDTH 2 0
BBX 3 8 0 0
BITMAP
40
C0
50
00
60
90
98
74
ENDCHAR
STARTCHAR iacute
ENCODING 237
SWIDTH 246 0
DWIDTH 2 0
BBX 3 8 0 0
BITMAP
04
18
20
00
60
90
98
74
ENDCHAR
STARTCHAR icircumflex
ENCODING 238
SWIDTH 246 0
DWIDTH 2 0
BBX 3 8 0 0
BITMAP
34
A4
98
00
60
90
98
74
ENDCHAR
STARTCHAR idieresis
ENCODING 239
SWIDTH 246 0
DWIDTH 2 0
BBX 3 6 0 0
BITMAP
98
00
60
90
98
74
ENDCHAR
STARTCHAR eth
ENCODING 240
SWIDTH 451 0
DWIDTH 4 0
BBX 4 8 0 0
BITMAP
25
1E
29
06
3E
96
99
78
ENDCHAR
STARTCHAR ntilde
ENCODING 241
SWIDTH 496 0
DWIDTH 4 0
BBX 5 7 0 0
BITMAP
1400
2A00
0000
6A00
BA00
A980
5740
ENDCHAR
STARTCHAR ograve
ENCODING 242
SWIDTH 451 0
DWIDTH 4 0
BBX 5 8 0 0
BITMAP
1000
3000
1400
0000
3D00
9B40
9900
7800
ENDCHAR
STARTCHAR oacute
ENCODING 243
SWIDTH 451 0
DWIDTH 4 0
BBX 5 8 0 0
BITMAP
0100
0900
0800
0000
3D00
9B40
9900
7800
ENDCHAR
STARTCHAR ocircumflex
ENCODING 244
SWIDTH 451 0
DWIDTH 4 0
BBX 5 8 0 0
BITMAP
1C00
2900
2500
0000
3D00
9B40
9900
7800
ENDCHAR
STARTCHAR otilde
ENCODING 245
SWIDTH 451 0
DWIDTH 4 0
BBX 5 7 0 0
BITMAP
1100
6A00
0000
3D00
9B40
9900
7800
ENDCHAR
STARTCHAR odieresis
ENCODING 246
SWIDTH 451 0
DWIDTH 4 0
BBX 5 6 0 0
BITMAP
2500
0000
3D00
9B40
9900
7800
ENDCHAR
STARTCHAR divide
ENCODING 247
SWIDTH 700 0
DWIDTH 6 0
BBX 5 5 0 0
BITMAP
0500
0000
7F80
0000
0800
ENDCHAR
STARTCHAR oslash
ENCODING 248
SWIDTH 459 0
DWIDTH 4 0
BBX 5 6 0 -1
BITMAP
0800
3C00
AA40
AA40
7800
2000
ENDCHAR
STARTCHAR ugrave
ENCODING 249
SWIDTH 462 0
DWIDTH 4 0
BBX 5 8 0 0
BITMAP
1000
3400
1800
0000
6500
5900
AD80
6A00
ENDCHAR
STARTCHAR uacute
ENCODING 250
SWIDTH 462 0
DWIDTH 4 0
BBX 5 8 0 0
BITMAP
0100
0600
0800
0000
6500
5900
AD80
6A00
ENDCHAR
STARTCHAR ucircumflex
ENCODING 251
SWIDTH 462 0
DWIDTH 4 0
BBX 5 8 0 0
BITMAP
0D00
1900
2600
0000
6500
5900
AD80
6A00
ENDCHAR
STARTCHAR udieresis
ENCODING 252
SWIDTH 462 0
DWIDTH 4 0
BBX 5 6 0 0
BITMAP
2600
0000
6500
5900
AD80
6A00
ENDCHAR
STARTCHAR yacute
ENCODING 253
SWIDTH 479 0
DWIDTH 4 0
BBX 5 12 0 -4
BITMAP
0100
0600
0800
0000
6500
5900
AD80
6E00
2C00
6800
A400
A000
ENDCHAR
STARTCHAR thorn
ENCODING 254
SWIDTH 508 0
DWIDTH 4 0
BBX 5 10 0 -3
BITMAP
1000
3000
6000
6E00
B600
A980
BB40
9000
9000
8000
ENDCHAR
STARTCHAR ydieresis
ENCODING 255
SWIDTH 479 0
DWIDTH 4 0
BBX 5 10 0 -4
BITMAP
2600
0000
6500
5900
AD80
6E00
2C00
6800
A400
A000
ENDCHAR
STARTCHAR Amacron
ENCODING 256
SWIDTH 786 0
DWIDTH 6 0
BBX 8 8 0 0
BITMAP
01F0
06F8
1D10
3460
60A0
A0D0
72D5
2E78
ENDCHAR
STARTCHAR amacron
ENCODING 257
SWIDTH 470 0
DWIDTH 4 0
BBX 5 5 0 0
BITMAP
2E00
2D00
6900
9D80
7B40
ENDCHAR
STARTCHAR Abreve
ENCODING 258
SWIDTH 786 0
DWIDTH 6 0
BBX 8 9 0 0
BITMAP
0104
01E4
06F8
1D10
3460
60A0
A0D0
72D5
2E78
ENDCHAR
STARTCHAR abreve
ENCODING 259
SWIDTH 470 0
DWIDTH 4 0
BBX 5 6 0 0
BITMAP
3200
2E00
2D00
6900
9D80
7B40
ENDCHAR
STARTCHAR Aogonek
ENCODING 260
SWIDTH 786 0
DWIDTH 6 0
BBX 8 9 0 -2
BITMAP
06F8
1D10
3060
60A0
A0D0
61D5
2E78
0050
0064
ENDCHAR
STARTCHAR aogonek
ENCODING 261
SWIDTH 470 0
DWIDTH 4 0
BBX 5 6 0 -2
BITMAP
2D00
6900
9D80
7A00
0800
0B00
ENDCHAR
STARTCHAR Cacute
ENCODING 262
SWIDTH 686 0
DWIDTH 5 0
BBX 7 10 0 0
BITMAP
0060
0190
0000
0BD0
28A0
7050
6000
6000
3414
1BE0
ENDCHAR
STARTCHAR cacute
ENCODING 263
SWIDTH 368 0
DWIDTH 3 0
BBX 4 8 0 0
BITMAP
01
09
08
00
38
98
92
7D
ENDCHAR
STARTCHAR Ccircumflex
ENCODING 264
SWIDTH 686 0
DWIDTH 5 0
BBX 7 11 0 0
BITMAP
0140
03C0
0690
0000
0BD0
28A0
7050
6000
6000
3414
1BE0
ENDCHAR
STARTCHAR ccircumflex
ENCODING 265
SWIDTH 368 0
DWIDTH 3 0
BBX 4 8 0 0
BITMAP
1C
29
25
00
38
98
92
7D
ENDCHAR
STARTCHAR Cdotaccent
ENCODING 266
SWIDTH 686 0
DWIDTH 5 0
BBX 7 9 0 0
BITMAP
0240
0000
0BD0
28A0
7050
6000
6000
3414
1BE0
ENDCHAR
STARTCHAR cdotaccent
ENCODING 267
SWIDTH 368 0
DWIDTH 3 0
BBX 4 6 0 0
BITMAP
18
00
38
98
92
7D
ENDCHAR
STARTCHAR Ccaron
ENCODING 268
SWIDTH 686 0
DWIDTH 5 0
BBX 7 10 0 0
BITMAP
0290
0280
0000
0BD0
28A0
7050
6000
6000
3414
1BE0
ENDCHAR
STARTCHAR ccaron
ENCODING 269
SWIDTH 368 0
DWIDTH 3 0
BBX 4 8 0 0
BITMAP
22
29
18
00
38
98
92
7D
ENDCHAR
STARTCHAR Dcaron
ENCODING 270
SWIDTH 836 0
DWIDTH 7 0
BBX 7 10 0 0
BITMAP
0580
0340
0000
2F90
5474
1824
2424
3434
30A0
3F80
ENDCHAR
STARTCHAR dcaron
ENCODING 271
SWIDTH 470 0
DWIDTH 4 0
BBX 6 8 0 0
BITMAP
0050
0380
0300
0600
2E00
6900
9D80
7B40
ENDCHAR
STARTCHAR Dcroat
ENCODING 272
SWIDTH 821 0
DWIDTH 7 0
BBX 7 7 0 0
BITMAP
0F90
1870
2824
BE24
3030
30A0
7F40
ENDCHAR
STARTCHAR dcroat
ENCODING 273
SWIDTH 470 0
DWIDTH 4 0
BBX 5 7 0 0
BITMAP
0300
2F40
0600
2E00
6900
9D80
7B40
ENDCHAR
STARTCHAR Emacron
ENCODING 274
SWIDTH 686 0
DWIDTH 5 0
BBX 7 8 0 0
BITMAP
07C0
0BD0
2460
3450
2E00
A000
A014
2FE0
ENDCHAR
STARTCHAR emacron
ENCODING 275
SWIDTH 393 0
DWIDTH 3 0
BBX 4 5 0 0
BITMAP
3D
2C
98
A6
7D
ENDCHAR
STARTCHAR Ebreve
ENCODING 276
SWIDTH 686 0
DWIDTH 5 0
BBX 7 9 0 0
BITMAP
0450
0780
0BD0
2460
3450
2E00
A000
A014
2FE0
ENDCHAR
STARTCHAR ebreve
ENCODING 277
SWIDTH 393 0
DWIDTH 3 0
BBX 4 6 0 0
BITMAP
62
2D
2C
98
A6
7D
ENDCHAR
STARTCHAR Edotaccent
ENCODING 278
SWIDTH 686 0
DWIDTH 5 0
BBX 7 9 0 0
BITMAP
0240
0000
0BD0
2460
3450
2E00
A000
A014
2FE0
ENDCHAR
STARTCHAR edotaccent
ENCODING 279
SWIDTH 393 0
DWIDTH 3 0
BBX 4 6 0 0
BITMAP
18
00
2C
98
A6
7D
ENDCHAR
STARTCHAR Eogonek
ENCODING 280
SWIDTH 686 0
DWIDTH 5 0
BBX 7 9 0 -2
BITMAP
0BD0
2460
3450
2E00
A000
A014
6FA0
0600
0380
ENDCHAR
STARTCHAR eogonek
ENCODING 281
SWIDTH 393 0
DWIDTH 3 0
BBX 4 6 0 -2
BITMAP
2C
98
A6
7D
20
19
ENDCHAR
STARTCHAR Ecaron
ENCODING 282
SWIDTH 686 0
DWIDTH 5 0
BBX 7 10 0 0
BITMAP
0690
0280
0000
0BD0
2460
3450
2E00
A000
A014
2FE0
ENDCHAR
STARTCHAR ecaron
ENCODING 283
SWIDTH 393 0
DWIDTH 3 0
BBX 4 8 0 0
BITMAP
22
29
18
00
2C
98
A6
7D
ENDCHAR
STARTCHAR Gcircumflex
ENCODING 284
SWIDTH 811 0
DWIDTH 6 0
BBX 8 15 0 -4
BITMAP
0040
02C0
0650
0000
0BD0
2860
7060
6000
60F0
3435
1FF8
00A0
0290
0680
0740
ENDCHAR
STARTCHAR gcircumflex
ENCODING 285
SWIDTH 479 0
DWIDTH 4 0
BBX 5 12 0 -4
BITMAP
0900
1A00
2200
0000
2D00
6900
9D80
7E00
2C00
6800
A400
A000
ENDCHAR
STARTCHAR Gbreve
ENCODING 286
SWIDTH 811 0
DWIDTH 6 0
BBX 8 13 0 -4
BITMAP
0510
07D0
0BD0
2860
7060
6000
60F0
3435
1FF8
00A0
0290
0680
0740
ENDCHAR
STARTCHAR gbreve
ENCODING 287
SWIDTH 479 0
DWIDTH 4 0
BBX 5 10 0 -4
BITMAP
3200
2E00
2D00
6900
9D80
7E00
2C00
6800
A400
A000
ENDCHAR
STARTCHAR Gdotaccent
ENCODING 288
SWIDTH 811 0
DWIDTH 6 0
BBX 8 13 0 -4
BITMAP
0180
0000
0BD0
2860
7060
6000
60F0
3435
1FF8
00A0
0290
0680
0740
ENDCHAR
STARTCHAR gdotaccent
ENCODING 289
SWIDTH 479 0
DWIDTH 4 0
BBX 5 10 0 -4
BITMAP
0800
0000
2D00
6900
9D80
7E00
2C00
6800
A400
A000
ENDCHAR
STARTCHAR uni0122
ENCODING 290
SWIDTH 811 0
DWIDTH 6 0
BBX 8 11 0 -4
BITMAP
0BD0
2860
7060
6000
60F0
3435
1FF8
14A0
1690
0680
0740
ENDCHAR
STARTCHAR uni0123
ENCODING 291
SWIDTH 479 0
DWIDTH 4 0
BBX 5 11 0 -4
BITMAP
0800
0800
0000
2D00
6900
9D80
7E00
2C00
6800
A400
A000
ENDCHAR
STARTCHAR Hcircumflex
ENCODING 292
SWIDTH 873 0
DWIDTH 7 0
BBX 8 11 0 0
BITMAP
0040
02D0
0260
000D
7826
8C35
0C78
3FE0
18A0
2462
242D
ENDCHAR
STARTCHAR hcircumflex
ENCODING 293
SWIDTH 502 0
DWIDTH 4 0
BBX 5 12 0 0
BITMAP
0500
0E00
2600
0000
1D00
2500
2800
6800
7A00
AA00
A980
9740
ENDCHAR
STARTCHAR Hbar
ENCODING 294
SWIDTH 856 0
DWIDTH 7 0
BBX 7 7 0 0
BITMAP
1824
3FF8
2430
7FF8
3060
3060
2050
ENDCHAR
STARTCHAR hbar
ENCODING 295
SWIDTH 502 0
DWIDTH 4 0
BBX 5 7 0 0
BITMAP
2400
7D00
7000
6A00
7A00
A980
5740
ENDCHAR
STARTCHAR Itilde
ENCODING 296
SWIDTH 495 0
DWIDTH 4 0
BBX 5 10 0 0
BITMAP
0440
2A40
0000
3F40
0C00
1C00
1800
2800
2400
BD00
ENDCHAR
STARTCHAR itilde
ENCODING 297
SWIDTH 246 0
DWIDTH 2 0
BBX 3 7 0 0
BITMAP
44
A8
00
60
90
98
74
ENDCHAR
STARTCHAR Imacron
ENCODING 298
SWIDTH 495 0
DWIDTH 4 0
BBX 5 8 0 0
BITMAP
1F00
3F40
0C00
1C00
1800
2800
2400
BD00
ENDCHAR
STARTCHAR imacron
ENCODING 299
SWIDTH 246 0
DWIDTH 2 0
BBX 3 5 0 0
BITMAP
B4
60
90
98
74
ENDCHAR
STARTCHAR Ibreve
ENCODING 300
SWIDTH 495 0
DWIDTH 4 0
BBX 5 9 0 0
BITMAP
1140
1E00
3F40
0C00
1C00
1800
2800
2400
BD00
ENDCHAR
STARTCHAR ibreve
ENCODING 301
SWIDTH 246 0
DWIDTH 2 0
BBX 3 6 0 0
BITMAP
88
B4
60
90
98
74
ENDCHAR
STARTCHAR Iogonek
ENCODING 302
SWIDTH 495 0
DWIDTH 4 0
BBX 5 9 0 -2
BITMAP
3F40
0C00
1C00
1800
2800
2400
BD00
2000
2800
ENDCHAR
STARTCHAR iogonek
ENCODING 303
SWIDTH 246 0
DWIDTH 2 0
BBX 3 8 0 -2
BITMAP
20
00
60
90
98
74
80
60
ENDCHAR
STARTCHAR Idotaccent
ENCODING 304
SWIDTH 495 0
DWIDTH 4 0
BBX 5 9 0 0
BITMAP
0900
0000
3F40
0C00
1C00
1800
2800
2400
BD00
ENDCHAR
STARTCHAR dotlessi
ENCODING 305
SWIDTH 246 0
DWIDTH 2 0
BBX 3 4 0 0
BITMAP
60
90
98
74
ENDCHAR
STARTCHAR Jcircumflex
ENCODING 308
SWIDTH 743 0
DWIDTH 6 0
BBX 6 12 0 -1
BITMAP
0100
0780
0980
0000
2FE0
60A0
60A0
01D0
0AC0
29C0
2640
1E00
ENDCHAR
STARTCHAR jcircumflex
ENCODING 309
SWIDTH 254 0
DWIDTH 2 0
BBX 5 12 -2 -4
BITMAP
0340
0A40
0980
0000
0600
0600
0A80
0A40
1C00
6C00
9800
B000
ENDCHAR
STARTCHAR uni0136
ENCODING 310
SWIDTH 937 0
DWIDTH 8 0
BBX 9 9 0 -2
BITMAP
2F8600
624D00
536800
0BD000
067000
8A3540
781E00
014000
014000
ENDCHAR
STARTCHAR uni0137
ENCODING 311
SWIDTH 525 0
DWIDTH 4 0
BBX 5 11 0 -3
BITMAP
1D00
2500
2800
6800
6B00
A700
A940
5B80
0000
2400
2000
ENDCHAR
STARTCHAR kgreenlandic
ENCODING 312
SWIDTH 465 0
DWIDTH 4 0
BBX 5 4 0 0
BITMAP
6A00
BA00
B480
6B40
ENDCHAR
STARTCHAR Lacute
ENCODING 313
SWIDTH 673 0
DWIDTH 5 0
BBX 8 10 -1 0
BITMAP
001C
0024
0000
01F4
0718
0A04
0900
0900
2E45
7AF8
ENDCHAR
STARTCHAR lacute
ENCODING 314
SWIDTH 326 0
DWIDTH 3 0
BBX 5 11 0 0
BITMAP
0180
0600
0000
1D00
2500
2500
6800
6800
B000
6100
3800
ENDCHAR
STARTCHAR uni013B
ENCODING 315
SWIDTH 673 0
DWIDTH 5 0
BBX 8 9 -1 -2
BITMAP
01F4
0718
0A04
0900
0900
2E45
7AF8
0200
0200
ENDCHAR
STARTCHAR uni013C
ENCODING 316
SWIDTH 326 0
DWIDTH 3 0
BBX 4 11 0 -3
BITMAP
1D
25
25
68
68
B0
61
38
00
20
20
ENDCHAR
STARTCHAR Lcaron
ENCODING 317
SWIDTH 673 0
DWIDTH 5 0
BBX 8 7 -1 0
BITMAP
01F6
071A
0A04
0900
0900
2E45
7AF8
ENDCHAR
STARTCHAR lcaron
ENCODING 318
SWIDTH 237 0
DWIDTH 2 0
BBX 4 8 0 0
BITMAP
05
29
30
70
60
90
98
74
ENDCHAR
STARTCHAR Ldot
ENCODING 319
SWIDTH 673 0
DWIDTH 5 0
BBX 8 7 -1 0
BITMAP
01F4
0718
0A04
0990
0900
2E45
7AF8
ENDCHAR
STARTCHAR ldot
ENCODING 320
SWIDTH 363 0
DWIDTH 3 0
BBX 4 8 0 0
BITMAP
14
24
30
6C
60
90
A2
7D
ENDCHAR
STARTCHAR Lslash
ENCODING 321
SWIDTH 673 0
DWIDTH 5 0
BBX 8 9 -1 0
BITMAP
01B8
0240
01F4
0718
0A08
0900
0900
2E45
7AF8
ENDCHAR
STARTCHAR lslash
ENCODING 322
SWIDTH 326 0
DWIDTH 3 0
BBX 5 9 0 0
BITMAP
1B40
2400
1D00
3500
6900
6800
B400
6100
3800
ENDCHAR
STARTCHAR Nacute
ENCODING 323
SWIDTH 884 0
DWIDTH 7 0
BBX 8 10 0 0
BITMAP
0024
0090
0000
78B4
8E28
1D24
1C34
1830
2832
242D
ENDCHAR
STARTCHAR nacute
ENCODING 324
SWIDTH 496 0
DWIDTH 4 0
BBX 5 8 0 0
BITMAP
0100
0600
0800
0000
6A00
BA00
A980
5740
ENDCHAR
STARTCHAR uni0145
ENCODING 325
SWIDTH 884 0
DWIDTH 7 0
BBX 8 9 0 -2
BITMAP
78B4
8E28
1D24
1C34
1830
2832
242D
0200
0200
ENDCHAR
STARTCHAR uni0146
ENCODING 326
SWIDTH 496 0
DWIDTH 4 0
BBX 5 7 0 -3
BITMAP
6A00
BA00
A980
5740
0000
2400
2000
ENDCHAR
STARTCHAR Ncaron
ENCODING 327
SWIDTH 884 0
DWIDTH 7 0
BBX 8 10 0 0
BITMAP
0260
00D0
0000
78B4
8E28
1D24
1C34
1830
2832
242D
ENDCHAR
STARTCHAR ncaron
ENCODING 328
SWIDTH 496 0
DWIDTH 4 0
BBX 5 8 0 0
BITMAP
1600
1A00
0D00
0000
6A00
BA00
A980
5740
ENDCHAR
STARTCHAR napostrophe
ENCODING 329
SWIDTH 496 0
DWIDTH 4 0
BBX 5 7 0 0
BITMAP
8000
8000
0000
6A00
BA00
A980
5740
ENDCHAR
STARTCHAR Eng
ENCODING 330
SWIDTH 884 0
DWIDTH 7 0
BBX 8 10 0 -3
BITMAP
78B4
8E28
1D24
1C34
1830
2871
24BD
0090
15C0
1B40
ENDCHAR
STARTCHAR eng
ENCODING 331
SWIDTH 495 0
DWIDTH 4 0
BBX 5 7 0 -3
BITMAP
6A00
BA00
A980
5B40
0800
5800
6000
ENDCHAR
STARTCHAR Omacron
ENCODING 332
SWIDTH 816 0
DWIDTH 7 0
BBX 7 8 0 0
BITMAP
07C0
0BD0
2870
7034
6034
6030
70A0
1F80
ENDCHAR
STARTCHAR omacron
ENCODING 333
SWIDTH 451 0
DWIDTH 4 0
BBX 5 5 0 0
BITMAP
3D00
3D00
9B40
9900
7800
ENDCHAR
STARTCHAR Obreve
ENCODING 334
SWIDTH 816 0
DWIDTH 7 0
BBX 7 9 0 0
BITMAP
0410
0790
0BD0
2870
7034
6034
6030
70A0
1F80
ENDCHAR
STARTCHAR obreve
ENCODING 335
SWIDTH 451 0
DWIDTH 4 0
BBX 5 6 0 0
BITMAP
6200
2D00
3D00
9B40
9900
7800
ENDCHAR
STARTCHAR Ohungarumlaut
ENCODING 336
SWIDTH 816 0
DWIDTH 7 0
BBX 7 10 0 0
BITMAP
0250
0290
0000
0BD0
2870
7034
6034
6030
70A0
1F80
ENDCHAR
STARTCHAR ohungarumlaut
ENCODING 337
SWIDTH 451 0
DWIDTH 4 0
BBX 5 8 0 0
BITMAP
0500
2B00
2500
0000
3D00
9B40
9900
7800
ENDCHAR
STARTCHAR OE
ENCODING 338
SWIDTH 1124 0
DWIDTH 9 0
BBX 10 7 0 0
BITMAP
0BDBD0
287C00
703800
603F80
603400
70B810
1F9BD0
ENDCHAR
STARTCHAR oe
ENCODING 339
SWIDTH 668 0
DWIDTH 5 0
BBX 7 4 0 0
BITMAP
3AC0
9A90
9B54
7AE0
ENDCHAR
STARTCHAR Racute
ENCODING 340
SWIDTH 880 0
DWIDTH 7 0
BBX 8 10 0 0
BITMAP
0030
0090
0000
0BE0
2534
6674
5FD0
9A90
6972
2C2D
ENDCHAR
STARTCHAR racute
ENCODING 341
SWIDTH 455 0
DWIDTH 4 0
BBX 5 8 0 0
BITMAP
0100
0600
0800
0000
6A00
AA40
A740
5000
ENDCHAR
STARTCHAR uni0156
ENCODING 342
SWIDTH 880 0
DWIDTH 7 0
BBX 8 9 0 -2
BITMAP
0BE0
2534
6674
5FD0
9A90
6972
2C2D
0140
0200
ENDCHAR
STARTCHAR uni0157
ENCODING 343
SWIDTH 455 0
DWIDTH 4 0
BBX 5 7 0 -3
BITMAP
6A00
AA40
A740
5000
0000
9000
8000
ENDCHAR
STARTCHAR Rcaron
ENCODING 344
SWIDTH 880 0
DWIDTH 7 0
BBX 8 10 0 0
BITMAP
0260
0180
0000
0BE0
2534
6674
5FD0
9A90
6972
2C2D
ENDCHAR
STARTCHAR rcaron
ENCODING 345
SWIDTH 455 0
DWIDTH 4 0
BBX 5 8 0 0
BITMAP
2600
1A00
1C00
0000
6A00
AA40
A740
5000
ENDCHAR
STARTCHAR Sacute
ENCODING 346
SWIDTH 693 0
DWIDTH 6 0
BBX 6 10 0 0
BITMAP
0090
0240
0000
1B80
30A0
3450
1E40
41C0
90C0
6F40
ENDCHAR
STARTCHAR sacute
ENCODING 347
SWIDTH 427 0
DWIDTH 3 0
BBX 5 8 0 0
BITMAP
0100
0900
0800
0000
2400
3400
9D40
6E00
ENDCHAR
STARTCHAR Scircumflex
ENCODING 348
SWIDTH 693 0
DWIDTH 6 0
BBX 6 11 0 0
BITMAP
0100
0780
0980
0000
1B80
30A0
3450
1E40
41C0
90C0
6F40
ENDCHAR
STARTCHAR scircumflex
ENCODING 349
SWIDTH 427 0
DWIDTH 3 0
BBX 5 8 0 0
BITMAP
1C00
2900
2500
0000
2400
3400
9D40
6E00
ENDCHAR
STARTCHAR Scedilla
ENCODING 350
SWIDTH 693 0
DWIDTH 6 0
BBX 6 9 0 -2
BITMAP
1B80
3090
3450
1F40
51C0
90C0
2E40
0500
2C00
ENDCHAR
STARTCHAR scedilla
ENCODING 351
SWIDTH 427 0
DWIDTH 3 0
BBX 5 6 0 -2
BITMAP
2400
3400
9D40
6E00
0800
6400
ENDCHAR
STARTCHAR Scaron
ENCODING 352
SWIDTH 693 0
DWIDTH 6 0
BBX 6 10 0 0
BITMAP
0980
0740
0000
1B80
30A0
3450
1E40
41C0
90C0
6F40
ENDCHAR
STARTCHAR scaron
ENCODING 353
SWIDTH 427 0
DWIDTH 3 0
BBX 5 8 0 0
BITMAP
2200
2900
1800
0000
2400
3400
9D40
6E00
ENDCHAR
STARTCHAR uni0162
ENCODING 354
SWIDTH 697 0
DWIDTH 6 0
BBX 7 9 0 -2
BITMAP
2BFC
9240
9300
0300
0700
0600
0A00
0E00
1E00
ENDCHAR
STARTCHAR uni0163
ENCODING 355
SWIDTH 393 0
DWIDTH 3 0
BBX 4 9 0 -2
BITMAP
1D
29
38
FD
60
72
3D
18
74
ENDCHAR
STARTCHAR Tcaron
ENCODING 356
SWIDTH 697 0
DWIDTH 6 0
BBX 7 10 0 0
BITMAP
0250
0280
0000
2BFC
9240
9300
0700
0600
0600
0900
ENDCHAR
STARTCHAR tcaron
ENCODING 357
SWIDTH 343 0
DWIDTH 3 0
BBX 4 8 0 0
BITMAP
02
15
24
30
B8
60
61
39
ENDCHAR
STARTCHAR Tbar
ENCODING 358
SWIDTH 697 0
DWIDTH 6 0
BBX 7 7 0 0
BITMAP
2BFC
9240
5300
1FD0
0600
0600
0900
ENDCHAR
STARTCHAR tbar
ENCODING 359
SWIDTH 343 0
DWIDTH 3 0
BBX 4 7 0 0
BITMAP
10
24
30
BC
F8
62
39
ENDCHAR
STARTCHAR Utilde
ENCODING 360
SWIDTH 890 0
DWIDTH 7 0
BBX 8 10 0 0
BITMAP
0110
06A0
0000
7C18
9C28
0C24
1834
2870
29B6
1E2D
ENDCHAR
STARTCHAR utilde
ENCODING 361
SWIDTH 462 0
DWIDTH 4 0
BBX 5 7 0 0
BITMAP
1100
2A00
0000
6500
5900
AD80
6A00
ENDCHAR
STARTCHAR Umacron
ENCODING 362
SWIDTH 890 0
DWIDTH 7 0
BBX 8 8 0 0
BITMAP
02D0
7C18
9C28
0C24
1834
2870
29B6
1E2D
ENDCHAR
STARTCHAR umacron
ENCODING 363
SWIDTH 462 0
DWIDTH 4 0
BBX 5 5 0 0
BITMAP
2D00
6500
5900
AD80
6A00
ENDCHAR
STARTCHAR Ubreve
ENCODING 364
SWIDTH 890 0
DWIDTH 7 0
BBX 8 9 0 0
BITMAP
0110
02E0
7C18
9C28
0C24
1834
2870
29B6
1E2D
ENDCHAR
STARTCHAR ubreve
ENCODING 365
SWIDTH 462 0
DWIDTH 4 0
BBX 5 6 0 0
BITMAP
2200
2D00
6500
5900
AD80
6A00
ENDCHAR
STARTCHAR Uring
ENCODING 366
SWIDTH 890 0
DWIDTH 7 0
BBX 8 10 0 0
BITMAP
01D0
0260
01D0
7C18
9C28
0C24
1834
2870
29B6
1E2D
ENDCHAR
STARTCHAR uring
ENCODING 367
SWIDTH 462 0
DWIDTH 4 0
BBX 5 7 0 0
BITMAP
1D00
2600
1D00
6500
5900
AD80
6A00
ENDCHAR
STARTCHAR Uhungarumlaut
ENCODING 368
SWIDTH 890 0
DWIDTH 7 0
BBX 8 10 0 0
BITMAP
0160
0260
0000
7C18
9C28
0C24
1834
2870
29B6
1E2D
ENDCHAR
STARTCHAR uhungarumlaut
ENCODING 369
SWIDTH 462 0
DWIDTH 4 0
BBX 5 8 0 0
BITMAP
0500
1A00
2600
0000
6500
5900
AD80
6A00
ENDCHAR
STARTCHAR Uogonek
ENCODING 370
SWIDTH 890 0
DWIDTH 7 0
BBX 8 9 0 -2
BITMAP
7C18
8C28
0C24
1834
2870
28B1
1E2D
0018
0019
ENDCHAR
STARTCHAR uogonek
ENCODING 371
SWIDTH 462 0
DWIDTH 4 0
BBX 5 6 0 -2
BITMAP
6500
5900
AD80
6A00
0800
0A00
ENDCHAR
STARTCHAR Wcircumflex
ENCODING 372
SWIDTH 1217 0
DWIDTH 10 0
BBX 10 11 1 0
BITMAP
005000
01E000
026000
000000
90C780
D1C9C0
C1C680
C2C2E0
C6C300
99D900
747400
ENDCHAR
STARTCHAR wcircumflex
ENCODING 373
SWIDTH 700 0
DWIDTH 6 0
BBX 7 8 0 0
BITMAP
0700
0A40
1940
0000
9990
9DF8
BA80
7700
ENDCHAR
STARTCHAR Ycircumflex
ENCODING 374
SWIDTH 851 0
DWIDTH 7 0
BBX 8 14 0 -3
BITMAP
0040
01E0
0260
0000
7C18
8C28
0C24
1874
18B0
0E7A
01F4
0A60
0C90
0B80
ENDCHAR
STARTCHAR ycircumflex
ENCODING 375
SWIDTH 479 0
DWIDTH 4 0
BBX 5 12 0 -4
BITMAP
0D00
1900
2600
0000
6500
5900
AD80
6E00
2C00
6800
A400
A000
ENDCHAR
STARTCHAR Ydieresis
ENCODING 376
SWIDTH 851 0
DWIDTH 7 0
BBX 8 12 0 -3
BITMAP
0260
0000
7C18
8C28
0C24
1874
18B0
0E7A
01F4
0A60
0C90
0B80
ENDCHAR
STARTCHAR Zacute
ENCODING 377
SWIDTH 721 0
DWIDTH 6 0
BBX 7 10 0 0
BITMAP
0060
0180
0000
2FE0
60A0
51C0
0340
0A00
7D08
BAE4
ENDCHAR
STARTCHAR zacute
ENCODING 378
SWIDTH 445 0
DWIDTH 4 0
BBX 5 8 0 0
BITMAP
0100
0600
0800
0000
7E00
2800
6140
3E00
ENDCHAR
STARTCHAR Zdotaccent
ENCODING 379
SWIDTH 721 0
DWIDTH 6 0
BBX 7 9 0 0
BITMAP
0240
0000
2FE0
60A0
51C0
0340
0A00
7D08
BAE4
ENDCHAR
STARTCHAR zdotaccent
ENCODING 380
SWIDTH 445 0
DWIDTH 4 0
BBX 5 6 0 0
BITMAP
1800
0000
7E00
2800
6140
3E00
ENDCHAR
STARTCHAR Zcaron
ENCODING 381
SWIDTH 721 0
DWIDTH 6 0
BBX 7 10 0 0
BITMAP
0580
0240
0000
2FE0
60A0
51C0
0340
0A00
7D08
BAE4
ENDCHAR
STARTCHAR zcaron
ENCODING 382
SWIDTH 445 0
DWIDTH 4 0
BBX 5 8 0 0
BITMAP
2600
2900
1C00
0000
7E00
2800
6140
3E00
ENDCHAR
STARTCHAR uni018F
ENCODING 399
SWIDTH 792 0
DWIDTH 6 0
BBX 6 7 0 0
BITMAP
1B90
2070
0030
7FF0
6070
7090
1F40
ENDCHAR
STARTCHAR florin
ENCODING 402
SWIDTH 478 0
DWIDTH 4 0
BBX 5 9 -1 -2
BITMAP
02C0
0700
0600
2F80
0900
0900
0D00
0C00
7400
ENDCHAR
STARTCHAR Ohorn
ENCODING 416
SWIDTH 816 0
DWIDTH 7 0
BBX 7 9 0 0
BITMAP
0004
0018
0BF4
2870
7034
6034
6030
70A0
1F80
ENDCHAR
STARTCHAR ohorn
ENCODING 417
SWIDTH 451 0
DWIDTH 4 0
BBX 5 5 0 0
BITMAP
0200
3E00
9B40
9900
7800
ENDCHAR
STARTCHAR Uhorn
ENCODING 431
SWIDTH 890 0
DWIDTH 7 0
BBX 8 9 0 0
BITMAP
0001
0006
7C1D
9C28
0C24
1834
2870
29B6
1E2D
ENDCHAR
STARTCHAR uhorn
ENCODING 432
SWIDTH 512 0
DWIDTH 4 0
BBX 5 5 0 0
BITMAP
0140
6600
5900
AC80
6B40
ENDCHAR
STARTCHAR uni01C4
ENCODING 452
SWIDTH 1531 0
DWIDTH 12 0
BBX 14 10 0 0
BITMAP
00002600
00001800
00000000
1F91BF40
14730700
24360D00
34342800
30307000
71A2E050
7E47AF80
ENDCHAR
STARTCHAR uni01C5
ENCODING 453
SWIDTH 1191 0
DWIDTH 10 0
BBX 10 8 0 0
BITMAP
000260
1F91A0
1470C0
243400
343BE0
303280
71A600
7E4BE0
ENDCHAR
STARTCHAR uni01C6
ENCODING 454
SWIDTH 895 0
DWIDTH 7 0
BBX 8 7 0 0
BITMAP
0325
0328
0614
2EFD
6964
9DD2
7BBD
ENDCHAR
STARTCHAR uni01C7
ENCODING 455
SWIDTH 1276 0
DWIDTH 10 0
BBX 12 8 -1 -1
BITMAP
02F1BD
062B1C
0A1618
090028
0901A4
2E4630
7AFE60
000780
ENDCHAR
STARTCHAR uni01C8
ENCODING 456
SWIDTH 927 0
DWIDTH 7 0
BBX 10 11 -1 -4
BITMAP
01F400
071A40
0A0000
090300
090300
2E4650
7AFF40
000900
002900
005800
007400
ENDCHAR
STARTCHAR uni01C9
ENCODING 457
SWIDTH 610 0
DWIDTH 5 0
BBX 6 12 0 -4
BITMAP
1D00
2500
2680
6800
6940
B240
6360
3B80
0700
1A00
2900
2800
ENDCHAR
STARTCHAR uni01CA
ENCODING 458
SWIDTH 1497 0
DWIDTH 12 0
BBX 12 8 0 -1
BITMAP
78B5BE
8E2A46
1D264A
1C341D
1830AC
28328C
242F64
0001E0
ENDCHAR
STARTCHAR uni01CB
ENCODING 459
SWIDTH 1138 0
DWIDTH 9 0
BBX 10 11 0 -4
BITMAP
79B400
4E2980
1D2400
1C3580
183180
2832A0
242FD0
000740
001B00
002600
002C00
ENDCHAR
STARTCHAR uni01CC
ENCODING 460
SWIDTH 750 0
DWIDTH 6 0
BBX 7 10 0 -4
BITMAP
0060
0000
6A60
BA60
A9A8
57E0
01C0
0680
0940
0B00
ENDCHAR
STARTCHAR Gcaron
ENCODING 486
SWIDTH 811 0
DWIDTH 6 0
BBX 8 14 0 -4
BITMAP
0250
0280
0000
0BD0
2860
7060
6000
60F0
3435
1FF8
00A0
0290
0680
0740
ENDCHAR
STARTCHAR gcaron
ENCODING 487
SWIDTH 479 0
DWIDTH 4 0
BBX 5 12 0 -4
BITMAP
1600
1A00
0C00
0000
2D00
6900
9D80
7E00
2C00
6800
A400
A000
ENDCHAR
STARTCHAR uni01EA
ENCODING 490
SWIDTH 816 0
DWIDTH 7 0
BBX 7 9 0 -2
BITMAP
0BD0
2870
7034
6034
6030
75A0
1B40
0500
0640
ENDCHAR
STARTCHAR uni01EB
ENCODING 491
SWIDTH 451 0
DWIDTH 4 0
BBX 5 6 0 -2
BITMAP
3800
9D00
9B40
6800
2000
2800
ENDCHAR
STARTCHAR Aringacute
ENCODING 506
SWIDTH 786 0
DWIDTH 6 0
BBX 8 11 0 0
BITMAP
0006
00A4
00A0
0000
06F8
1D10
3460
60A0
A0D0
72D5
2E78
ENDCHAR
STARTCHAR aringacute
ENCODING 507
SWIDTH 470 0
DWIDTH 4 0
BBX 6 8 0 0
BITMAP
0090
0D80
1600
1D00
2D00
6900
9D80
7B40
ENDCHAR
STARTCHAR AEacute
ENCODING 508
SWIDTH 1015 0
DWIDTH 8 0
BBX 9 10 0 0
BITMAP
000600
001800
000000
06AF40
1D3000
306000
60BF00
A0D000
61E040
2E2F80
ENDCHAR
STARTCHAR aeacute
ENCODING 509
SWIDTH 653 0
DWIDTH 5 0
BBX 7 8 0 0
BITMAP
0040
0180
0200
0000
2EC0
6A80
9E64
77D0
ENDCHAR
STARTCHAR Oslashacute
ENCODING 510
SWIDTH 816 0
DWIDTH 7 0
BBX 7 11 0 -1
BITMAP
0090
0240
0080
0BD0
29B0
7234
6234
6630
79A0
1F80
0800
ENDCHAR
STARTCHAR oslashacute
ENCODING 511
SWIDTH 459 0
DWIDTH 4 0
BBX 5 9 0 -1
BITMAP
0400
1800
2000
0800
3C00
AA40
AA40
7800
2000
ENDCHAR
STARTCHAR uni0200
ENCODING 512
SWIDTH 786 0
DWIDTH 6 0
BBX 8 10 0 0
BITMAP
0260
0160
0000
06F8
1D10
3460
60A0
A0D0
72D5
2E78
ENDCHAR
STARTCHAR uni0201
ENCODING 513
SWIDTH 470 0
DWIDTH 4 0
BBX 5 8 0 0
BITMAP
1400
6800
2500
0000
2D00
6900
9D80
7B40
ENDCHAR
STARTCHAR uni0202
ENCODING 514
SWIDTH 786 0
DWIDTH 6 0
BBX 8 9 0 0
BITMAP
01A0
0254
06F8
1D10
3460
60A0
A0D0
72D5
2E78
ENDCHAR
STARTCHAR uni0203
ENCODING 515
SWIDTH 470 0
DWIDTH 4 0
BBX 5 7 0 0
BITMAP
1E00
2200
0000
2D00
6900
9D80
7B40
ENDCHAR
STARTCHAR uni0204
ENCODING 516
SWIDTH 686 0
DWIDTH 5 0
BBX 7 10 0 0
BITMAP
0980
0580
0000
0BD0
2460
3450
2E00
A000
A014
2FE0
ENDCHAR
STARTCHAR uni0205
ENCODING 517
SWIDTH 393 0
DWIDTH 3 0
BBX 4 8 0 0
BITMAP
44
A8
28
00
2C
98
A6
7D
ENDCHAR
STARTCHAR uni0206
ENCODING 518
SWIDTH 686 0
DWIDTH 5 0
BBX 7 9 0 0
BITMAP
0680
0950
0BD0
2460
3450
2E00
A000
A014
2FE0
ENDCHAR
STARTCHAR uni0207
ENCODING 519
SWIDTH 393 0
DWIDTH 3 0
BBX 4 7 0 0
BITMAP
2D
52
00
2C
98
A6
7D
ENDCHAR
STARTCHAR uni0208
ENCODING 520
SWIDTH 495 0
DWIDTH 4 0
BBX 5 10 0 0
BITMAP
2500
1600
0000
3F40
0C00
1C00
1800
2800
2400
BD00
ENDCHAR
STARTCHAR uni0209
ENCODING 521
SWIDTH 246 0
DWIDTH 2 0
BBX 4 8 -1 0
BITMAP
44
6C
25
00
18
24
26
1D
ENDCHAR
STARTCHAR uni020A
ENCODING 522
SWIDTH 495 0
DWIDTH 4 0
BBX 5 9 0 0
BITMAP
1A00
2540
3F40
0C00
1C00
1800
2800
2400
BD00
ENDCHAR
STARTCHAR uni020B
ENCODING 523
SWIDTH 246 0
DWIDTH 2 0
BBX 3 7 0 0
BITMAP
B8
88
00
60
90
98
74
ENDCHAR
STARTCHAR uni020C
ENCODING 524
SWIDTH 816 0
DWIDTH 7 0
BBX 7 10 0 0
BITMAP
0980
0580
0000
0BD0
2870
7034
6034
6030
70A0
1F80
ENDCHAR
STARTCHAR uni020D
ENCODING 525
SWIDTH 451 0
DWIDTH 4 0
BBX 5 8 0 0
BITMAP
4400
A800
2800
0000
3D00
9B40
9900
7800
ENDCHAR
STARTCHAR uni020E
ENCODING 526
SWIDTH 816 0
DWIDTH 7 0
BBX 7 9 0 0
BITMAP
02D0
0560
0BD0
2870
7034
6034
6030
70A0
1F80
ENDCHAR
STARTCHAR uni020F
ENCODING 527
SWIDTH 451 0
DWIDTH 4 0
BBX 5 7 0 0
BITMAP
2D00
5200
0000
3D00
9B40
9900
7800
ENDCHAR
STARTCHAR uni0210
ENCODING 528
SWIDTH 880 0
DWIDTH 7 0
BBX 8 10 0 0
BITMAP
0580
0280
0000
0BE0
2534
6674
5FD0
9A90
6972
2C2D
ENDCHAR
STARTCHAR uni0211
ENCODING 529
SWIDTH 455 0
DWIDTH 4 0
BBX 5 8 0 0
BITMAP
4400
6C00
2500
0000
6A00
AA40
A740
5000
ENDCHAR
STARTCHAR uni0212
ENCODING 530
SWIDTH 880 0
DWIDTH 7 0
BBX 8 9 0 0
BITMAP
02D0
0520
0BE0
2534
6674
5FD0
9A90
6972
2C2D
ENDCHAR
STARTCHAR uni0213
ENCODING 531
SWIDTH 455 0
DWIDTH 4 0
BBX 5 7 0 0
BITMAP
2E00
2200
0000
6A00
AA40
A740
5000
ENDCHAR
STARTCHAR uni0214
ENCODING 532
SWIDTH 890 0
DWIDTH 7 0
BBX 8 10 0 0
BITMAP
0680
0250
0000
7C18
9C28
0C24
1834
2870
29B6
1E2D
ENDCHAR
STARTCHAR uni0215
ENCODING 533
SWIDTH 462 0
DWIDTH 4 0
BBX 5 8 0 0
BITMAP
4400
6C00
2500
0000
6500
5900
AD80
6A00
ENDCHAR
STARTCHAR uni0216
ENCODING 534
SWIDTH 890 0
DWIDTH 7 0
BBX 8 9 0 0
BITMAP
02E0
0220
7C18
9C28
0C24
1834
2870
29B6
1E2D
ENDCHAR
STARTCHAR uni0217
ENCODING 535
SWIDTH 462 0
DWIDTH 4 0
BBX 5 7 0 0
BITMAP
2E00
2200
0000
6500
5900
AD80
6A00
ENDCHAR
STARTCHAR uni0218
ENCODING 536
SWIDTH 693 0
DWIDTH 6 0
BBX 6 9 0 -2
BITMAP
1B80
30A0
3450
1E40
41C0
90C0
6F40
0800
0800
ENDCHAR
STARTCHAR uni0219
ENCODING 537
SWIDTH 427 0
DWIDTH 3 0
BBX 5 7 0 -3
BITMAP
2400
3400
9D40
6E00
0000
2400
2000
ENDCHAR
STARTCHAR uni021A
ENCODING 538
SWIDTH 697 0
DWIDTH 6 0
BBX 7 9 0 -2
BITMAP
2BFC
9240
9300
0700
0600
0600
0900
0500
0800
ENDCHAR
STARTCHAR uni021B
ENCODING 539
SWIDTH 393 0
DWIDTH 3 0
BBX 4 11 0 -3
BITMAP
09
29
39
38
FD
60
62
2D
00
24
20
ENDCHAR
STARTCHAR uni022A
ENCODING 554
SWIDTH 816 0
DWIDTH 7 0
BBX 7 10 0 0
BITMAP
03D0
0690
0000
0BD0
2870
7034
6034
6030
70A0
1F80
ENDCHAR
STARTCHAR uni022B
ENCODING 555
SWIDTH 451 0
DWIDTH 4 0
BBX 5 7 0 0
BITMAP
2D00
2500
0000
3D00
9B40
9900
7800
ENDCHAR
STARTCHAR uni022C
ENCODING 556
SWIDTH 816 0
DWIDTH 7 0
BBX 7 10 0 0
BITMAP
03E0
0A90
0000
0BD0
2870
7034
6034
6030
70A0
1F80
ENDCHAR
STARTCHAR uni022D
ENCODING 557
SWIDTH 451 0
DWIDTH 4 0
BBX 5 7 0 0
BITMAP
3E00
6A00
0000
3D00
9B40
9900
7800
ENDCHAR
STARTCHAR uni0230
ENCODING 560
SWIDTH 816 0
DWIDTH 7 0
BBX 7 10 0 0
BITMAP
03D0
0140
0000
0BD0
2870
7034
6034
6030
70A0
1F80
ENDCHAR
STARTCHAR uni0231
ENCODING 561
SWIDTH 451 0
DWIDTH 4 0
BBX 5 7 0 0
BITMAP
2D00
1800
0000
3D00
9B40
9900
7800
ENDCHAR
STARTCHAR uni0232
ENCODING 562
SWIDTH 851 0
DWIDTH 7 0
BBX 8 11 0 -3
BITMAP
02E0
7C18
8C28
0C24
1874
18B0
0E7A
01F4
0A60
0C90
0B80
ENDCHAR
STARTCHAR uni0233
ENCODING 563
SWIDTH 479 0
DWIDTH 4 0
BBX 5 9 0 -4
BITMAP
2D00
6500
5900
AD80
6E00
2C00
6800
A400
A000
ENDCHAR
STARTCHAR uni0237
ENCODING 567
SWIDTH 254 0
DWIDTH 2 0
BBX 5 8 -2 -4
BITMAP
0600
0600
0A80
0A40
1C00
6C00
9800
B000
ENDCHAR
STARTCHAR uni0259
ENCODING 601
SWIDTH 458 0
DWIDTH 4 0
BBX 4 4 0 0
BITMAP
78
09
BD
78
ENDCHAR
STARTCHAR uni02BC
ENCODING 700
SWIDTH 600 0
DWIDTH 5 0
BBX 1 2 2 5
BITMAP
80
80
ENDCHAR
STARTCHAR circumflex
ENCODING 710
SWIDTH 600 0
DWIDTH 5 0
BBX 3 3 1 5
BITMAP
24
68
88
ENDCHAR
STARTCHAR caron
ENCODING 711
SWIDTH 600 0
DWIDTH 5 0
BBX 3 3 1 5
BITMAP
98
68
30
ENDCHAR
STARTCHAR uni02C9
ENCODING 713
SWIDTH 600 0
DWIDTH 5 0
BBX 3 1 1 4
BITMAP
B8
ENDCHAR
STARTCHAR breve
ENCODING 728
SWIDTH 600 0
DWIDTH 5 0
BBX 3 2 1 4
BITMAP
88
B8
ENDCHAR
STARTCHAR dotaccent
ENCODING 729
SWIDTH 600 0
DWIDTH 5 0
BBX 1 1 2 5
BITMAP
80
ENDCHAR
STARTCHAR ring
ENCODING 730
SWIDTH 600 0
DWIDTH 5 0
BBX 3 3 1 4
BITMAP
74
58
74
ENDCHAR
STARTCHAR ogonek
ENCODING 731
SWIDTH 600 0
DWIDTH 5 0
BBX 2 3 1 -2
BITMAP
50
80
B0
ENDCHAR
STARTCHAR tilde
ENCODING 732
SWIDTH 600 0
DWIDTH 5 0
BBX 3 2 1 5
BITMAP
54
A8
ENDCHAR
STARTCHAR hungarumlaut
ENCODING 733
SWIDTH 600 0
DWIDTH 5 0
BBX 4 3 1 5
BITMAP
14
69
58
ENDCHAR
STARTCHAR gravecomb
ENCODING 768
SWIDTH 0 0
DWIDTH 0 0
BBX 2 3 -4 5
BITMAP
40
90
20
ENDCHAR
STARTCHAR acutecomb
ENCODING 769
SWIDTH 0 0
DWIDTH 0 0
BBX 2 3 -3 5
BITMAP
10
30
50
ENDCHAR
STARTCHAR uni0302
ENCODING 770
SWIDTH 0 0
DWIDTH 0 0
BBX 3 3 -4 5
BITMAP
24
68
98
ENDCHAR
STARTCHAR tildecomb
ENCODING 771
SWIDTH 0 0
DWIDTH 0 0
BBX 4 2 -4 5
BITMAP
51
A8
ENDCHAR
STARTCHAR uni0304
ENCODING 772
SWIDTH 0 0
DWIDTH 0 0
BBX 3 1 -4 4
BITMAP
78
ENDCHAR
STARTCHAR uni0306
ENCODING 774
SWIDTH 0 0
DWIDTH 0 0
BBX 4 2 -4 4
BITMAP
89
78
ENDCHAR
STARTCHAR uni0307
ENCODING 775
SWIDTH 0 0
DWIDTH 0 0
BBX 2 1 -3 5
BITMAP
90
ENDCHAR
STARTCHAR uni0308
ENCODING 776
SWIDTH 0 0
DWIDTH 0 0
BBX 3 1 -4 5
BITMAP
98
ENDCHAR
STARTCHAR hookabovecomb
ENCODING 777
SWIDTH 0 0
DWIDTH 0 0
BBX 2 3 -3 4
BITMAP
D0
20
90
ENDCHAR
STARTCHAR uni030A
ENCODING 778
SWIDTH 0 0
DWIDTH 0 0
BBX 3 3 -4 4
BITMAP
24
58
34
ENDCHAR
STARTCHAR uni030B
ENCODING 779
SWIDTH 0 0
DWIDTH 0 0
BBX 4 3 -4 5
BITMAP
15
39
58
ENDCHAR
STARTCHAR uni030C
ENCODING 780
SWIDTH 0 0
DWIDTH 0 0
BBX 4 3 -4 5
BITMAP
59
68
34
ENDCHAR
STARTCHAR uni030F
ENCODING 783
SWIDTH 0 0
DWIDTH 0 0
BBX 3 3 -4 5
BITMAP
50
A4
98
ENDCHAR
STARTCHAR uni0311
ENCODING 785
SWIDTH 0 0
DWIDTH 0 0
BBX 4 2 -4 5
BITMAP
78
89
ENDCHAR
STARTCHAR uni0312
ENCODING 786
SWIDTH 0 0
DWIDTH 0 0
BBX 2 2 -3 5
BITMAP
90
80
ENDCHAR
STARTCHAR uni031B
ENCODING 795
SWIDTH 0 0
DWIDTH 0 0
BBX 2 2 -3 3
BITMAP
20
50
ENDCHAR
STARTCHAR dotbelowcomb
ENCODING 803
SWIDTH 0 0
DWIDTH 0 0
BBX 2 1 -4 -2
BITMAP
90
ENDCHAR
STARTCHAR uni0324
ENCODING 804
SWIDTH 0 0
DWIDTH 0 0
BBX 4 1 -5 -2
BITMAP
69
ENDCHAR
STARTCHAR uni0326
ENCODING 806
SWIDTH 0 0
DWIDTH 0 0
BBX 2 2 -4 -3
BITMAP
50
50
ENDCHAR
STARTCHAR uni0327
ENCODING 807
SWIDTH 0 0
DWIDTH 0 0
BBX 3 3 -5 -2
BITMAP
28
08
74
ENDCHAR
STARTCHAR uni0328
ENCODING 808
SWIDTH 0 0
DWIDTH 0 0
BBX 3 3 -4 -2
BITMAP
50
90
74
ENDCHAR
STARTCHAR uni032E
ENCODING 814
SWIDTH 0 0
DWIDTH 0 0
BBX 4 2 -5 -3
BITMAP
95
78
ENDCHAR
STARTCHAR uni0331
ENCODING 817
SWIDTH 0 0
DWIDTH 0 0
BBX 3 1 -5 -1
BITMAP
7C
ENDCHAR
STARTCHAR uni0394
ENCODING 916
SWIDTH 700 0
DWIDTH 6 0
BBX 5 7 0 0
BITMAP
0600
0B00
0E40
1540
3180
6080
BFC0
ENDCHAR
STARTCHAR uni03A9
ENCODING 937
SWIDTH 816 0
DWIDTH 7 0
BBX 7 7 0 0
BITMAP
0BD0
2870
7034
6034
6030
70A0
F9F4
ENDCHAR
STARTCHAR uni03BC
ENCODING 956
SWIDTH 462 0
DWIDTH 4 0
BBX 5 6 0 -2
BITMAP
6500
9900
AD80
AA00
9000
8000
ENDCHAR
STARTCHAR pi
ENCODING 960
SWIDTH 496 0
DWIDTH 4 0
BBX 5 4 0 0
BITMAP
BF40
6600
9980
9740
ENDCHAR
STARTCHAR uni0400
ENCODING 1024
SWIDTH 686 0
DWIDTH 5 0
BBX 7 10 0 0
BITMAP
1800
0600
0000
0BD0
2460
3450
2E00
A000
A014
2FE0
ENDCHAR
STARTCHAR uni0401
ENCODING 1025
SWIDTH 686 0
DWIDTH 5 0
BBX 7 9 0 0
BITMAP
0580
0000
0BD0
2460
3450
2E00
A000
A014
2FE0
ENDCHAR
STARTCHAR uni0402
ENCODING 1026
SWIDTH 974 0
DWIDTH 8 0
BBX 9 11 0 -4
BITMAP
2BFC00
924000
930000
07B800
074D00
060E80
090E00
003C00
00A800
01A400
00E000
ENDCHAR
STARTCHAR uni0403
ENCODING 1027
SWIDTH 635 0
DWIDTH 5 0
BBX 7 10 0 0
BITMAP
0090
0240
0000
2FF8
9A00
9900
0D00
0C00
1C00
1800
ENDCHAR
STARTCHAR uni0404
ENCODING 1028
SWIDTH 687 0
DWIDTH 6 0
BBX 7 7 0 0
BITMAP
0BD0
28A0
7040
7F40
6000
3414
1BE0
ENDCHAR
STARTCHAR uni0405
ENCODING 1029
SWIDTH 693 0
DWIDTH 6 0
BBX 6 7 0 0
BITMAP
1B80
30A0
3450
1E40
41C0
90C0
6F40
ENDCHAR
STARTCHAR uni0406
ENCODING 1030
SWIDTH 495 0
DWIDTH 4 0
BBX 5 7 0 0
BITMAP
3F40
0C00
1C00
1800
2800
2400
BD00
ENDCHAR
STARTCHAR uni0407
ENCODING 1031
SWIDTH 495 0
DWIDTH 4 0
BBX 5 9 0 0
BITMAP
1600
0000
3F40
0C00
1C00
1800
2800
2400
BD00
ENDCHAR
STARTCHAR uni0408
ENCODING 1032
SWIDTH 743 0
DWIDTH 6 0
BBX 6 8 0 -1
BITMAP
2FE0
60A0
60A0
01D0
0AC0
29C0
2640
1E00
ENDCHAR
STARTCHAR uni0409
ENCODING 1033
SWIDTH 1158 0
DWIDTH 9 0
BBX 9 7 0 0
BITMAP
00A000
00E000
01FB40
02A1C0
0360C0
C97180
782E40
ENDCHAR
STARTCHAR uni040A
ENCODING 1034
SWIDTH 1182 0
DWIDTH 9 0
BBX 10 7 0 0
BITMAP
782400
4C3000
0C7F80
3FE0D0
1860D0
2461C0
242E40
ENDCHAR
STARTCHAR uni040B
ENCODING 1035
SWIDTH 979 0
DWIDTH 8 0
BBX 9 7 0 0
BITMAP
2BFC00
924000
930000
07B800
074D00
060D80
090F40
ENDCHAR
STARTCHAR uni040C
ENCODING 1036
SWIDTH 937 0
DWIDTH 8 0
BBX 9 10 0 0
BITMAP
000900
002400
000000
2F8600
624D00
536800
0BD000
067000
8A3540
781E00
ENDCHAR
STARTCHAR uni040D
ENCODING 1037
SWIDTH 890 0
DWIDTH 7 0
BBX 8 10 0 0
BITMAP
0900
0240
0000
7C18
9C28
0C24
1834
2870
29B6
1E2D
ENDCHAR
STARTCHAR uni040E
ENCODING 1038
SWIDTH 824 0
DWIDTH 7 0
BBX 8 11 0 -2
BITMAP
0110
02D0
6C18
4C28
1C34
18B4
0B75
01B9
0A60
0C90
0B80
ENDCHAR
STARTCHAR uni040F
ENCODING 1039
SWIDTH 890 0
DWIDTH 7 0
BBX 8 9 0 -2
BITMAP
7C18
9C28
0C24
1834
2870
29B6
1E2D
0C00
0400
ENDCHAR
STARTCHAR uni0410
ENCODING 1040
SWIDTH 786 0
DWIDTH 6 0
BBX 8 7 0 0
BITMAP
06F8
1D10
3460
60A0
A0D0
72D5
2E78
ENDCHAR
STARTCHAR uni0411
ENCODING 1041
SWIDTH 917 0
DWIDTH 7 0
BBX 7 8 0 -1
BITMAP
2FF8
9700
9600
0BF8
0D0C
0D0C
0D74
0440
ENDCHAR
STARTCHAR uni0412
ENCODING 1042
SWIDTH 827 0
DWIDTH 7 0
BBX 7 8 0 -1
BITMAP
2BE4
941C
1828
26E0
2470
3470
3F90
1000
ENDCHAR
STARTCHAR uni0413
ENCODING 1043
SWIDTH 635 0
DWIDTH 5 0
BBX 7 7 0 0
BITMAP
2FF8
9A00
9900
0D00
0C00
1C00
1800
ENDCHAR
STARTCHAR uni0414
ENCODING 1044
SWIDTH 964 0
DWIDTH 8 0
BBX 8 7 0 0
BITMAP
0BE4
151C
0609
0909
0D0D
BD1C
B6F4
ENDCHAR
STARTCHAR uni0415
ENCODING 1045
SWIDTH 686 0
DWIDTH 5 0
BBX 7 7 0 0
BITMAP
0BD0
2460
3450
2E00
A000
A014
2FE0
ENDCHAR
STARTCHAR uni0416
ENCODING 1046
SWIDTH 1234 0
DWIDTH 10 0
BBX 11 7 0 0
BITMAP
1E24B4
132580
027700
01FD00
077600
496344
7861E0
ENDCHAR
STARTCHAR uni0417
ENCODING 1047
SWIDTH 725 0
DWIDTH 6 0
BBX 6 7 0 0
BITMAP
1B80
34C0
1180
0A80
5090
61D0
2F40
ENDCHAR
STARTCHAR uni0418
ENCODING 1048
SWIDTH 890 0
DWIDTH 7 0
BBX 8 7 0 0
BITMAP
7C18
9C28
0C24
1834
2870
29B6
1E2D
ENDCHAR
STARTCHAR uni0419
ENCODING 1049
SWIDTH 890 0
DWIDTH 7 0
BBX 8 9 0 0
BITMAP
0110
02E0
7C18
9C28
0C24
1834
2870
29B6
1E2D
ENDCHAR
STARTCHAR uni041A
ENCODING 1050
SWIDTH 937 0
DWIDTH 8 0
BBX 9 7 0 0
BITMAP
2F8600
624D00
536800
0BD000
067000
8A3540
781E00
ENDCHAR
STARTCHAR uni041B
ENCODING 1051
SWIDTH 861 0
DWIDTH 7 0
BBX 8 7 0 0
BITMAP
00A0
00E0
01E0
02A0
0360
8A72
782D
ENDCHAR
STARTCHAR uni041C
ENCODING 1052
SWIDTH 1133 0
DWIDTH 9 0
BBX 10 7 0 0
BITMAP
018700
02CB00
03CF00
06DB00
06E700
8DA320
B892D0
ENDCHAR
STARTCHAR uni041D
ENCODING 1053
SWIDTH 873 0
DWIDTH 7 0
BBX 8 8 0 0
BITMAP
000D
7826
8C35
0C78
3FE0
18A0
2462
242D
ENDCHAR
STARTCHAR uni041E
ENCODING 1054
SWIDTH 816 0
DWIDTH 7 0
BBX 7 7 0 0
BITMAP
0BD0
2870
7034
6034
6030
70A0
1F80
ENDCHAR
STARTCHAR uni041F
ENCODING 1055
SWIDTH 892 0
DWIDTH 7 0
BBX 8 7 0 0
BITMAP
2FFE
9618
9928
0924
0C30
0C31
1C2E
ENDCHAR
STARTCHAR uni0420
ENCODING 1056
SWIDTH 805 0
DWIDTH 6 0
BBX 7 8 0 -1
BITMAP
07E0
2834
2328
5734
9F90
9A00
5900
3C00
ENDCHAR
STARTCHAR uni0421
ENCODING 1057
SWIDTH 686 0
DWIDTH 5 0
BBX 7 7 0 0
BITMAP
0BD0
28A0
7050
6000
6000
3414
1BE0
ENDCHAR
STARTCHAR uni0422
ENCODING 1058
SWIDTH 697 0
DWIDTH 6 0
BBX 7 7 0 0
BITMAP
2BFC
9240
9300
0700
0600
0600
0900
ENDCHAR
STARTCHAR uni0423
ENCODING 1059
SWIDTH 824 0
DWIDTH 7 0
BBX 8 9 0 -2
BITMAP
6C18
4C28
1C34
18B4
0B75
01B9
0A60
0C90
0B80
ENDCHAR
STARTCHAR uni0424
ENCODING 1060
SWIDTH 977 0
DWIDTH 8 0
BBX 8 11 0 -2
BITMAP
1000
1FD0
00C0
1EED
71DA
618A
A78D
7AB8
0300
3600
2D00
ENDCHAR
STARTCHAR uni0425
ENCODING 1061
SWIDTH 712 0
DWIDTH 6 0
BBX 7 7 0 0
BITMAP
7870
49D0
0740
0B00
1B40
7284
D1E0
ENDCHAR
STARTCHAR uni0426
ENCODING 1062
SWIDTH 890 0
DWIDTH 7 0
BBX 8 10 0 -3
BITMAP
7C18
8C28
0C24
1834
2870
28B4
1E3E
0028
00D8
00A0
ENDCHAR
STARTCHAR uni0427
ENCODING 1063
SWIDTH 773 0
DWIDTH 6 0
BBX 5 7 1 0
BITMAP
9080
9180
D280
C780
BE40
0240
0240
ENDCHAR
STARTCHAR uni0428
ENCODING 1064
SWIDTH 1272 0
DWIDTH 10 0
BBX 11 7 0 0
BITMAP
7C2460
9C24A0
0C3490
1870D0
28A1D0
29A6D8
1E38B8
ENDCHAR
STARTCHAR uni0429
ENCODING 1065
SWIDTH 1272 0
DWIDTH 10 0
BBX 11 10 0 -3
BITMAP
7C2460
9C24A0
0C3490
1870D0
28A1D0
29A6D0
1E38B8
0000A0
000260
000280
ENDCHAR
STARTCHAR uni042A
ENCODING 1066
SWIDTH 863 0
DWIDTH 7 0
BBX 6 7 1 0
BITMAP
FD00
1800
2F90
74A0
3060
3490
1F80
ENDCHAR
STARTCHAR uni042B
ENCODING 1067
SWIDTH 1078 0
DWIDTH 9 0
BBX 9 7 0 0
BITMAP
180240
240340
3B8300
B0A700
30A600
30D600
1F4900
ENDCHAR
STARTCHAR uni042C
ENCODING 1068
SWIDTH 721 0
DWIDTH 6 0
BBX 6 7 0 0
BITMAP
1800
2400
3B80
B0A0
30A0
30D0
1F40
ENDCHAR
STARTCHAR uni042D
ENCODING 1069
SWIDTH 755 0
DWIDTH 6 0
BBX 6 7 0 0
BITMAP
1F80
20A0
0070
1FF0
40A0
A1D0
6E40
ENDCHAR
STARTCHAR uni042E
ENCODING 1070
SWIDTH 1246 0
DWIDTH 10 0
BBX 10 7 0 0
BITMAP
7C2680
8C68A0
0DF060
3ED060
18D0A0
24A1C0
242E40
ENDCHAR
STARTCHAR uni042F
ENCODING 1071
SWIDTH 850 0
DWIDTH 7 0
BBX 8 7 0 0
BITMAP
0BF4
1834
1870
0BF0
01A0
8662
783D
ENDCHAR
STARTCHAR uni0430
ENCODING 1072
SWIDTH 470 0
DWIDTH 4 0
BBX 5 4 0 0
BITMAP
2D00
6900
9D80
7B40
ENDCHAR
STARTCHAR uni0431
ENCODING 1073
SWIDTH 473 0
DWIDTH 4 0
BBX 5 8 0 0
BITMAP
1A00
3400
2800
0D00
3E00
AB80
9900
7800
ENDCHAR
STARTCHAR uni0432
ENCODING 1074
SWIDTH 473 0
DWIDTH 4 0
BBX 5 8 0 0
BITMAP
1D00
2500
2800
6800
7D00
9B80
6500
3800
ENDCHAR
STARTCHAR uni0433
ENCODING 1075
SWIDTH 380 0
DWIDTH 3 0
BBX 4 4 0 0
BITMAP
78
18
A2
7D
ENDCHAR
STARTCHAR uni0434
ENCODING 1076
SWIDTH 479 0
DWIDTH 4 0
BBX 5 8 0 -4
BITMAP
2D00
6900
9D80
7E00
2C00
6800
A400
A000
ENDCHAR
STARTCHAR uni0435
ENCODING 1077
SWIDTH 393 0
DWIDTH 3 0
BBX 4 4 0 0
BITMAP
2C
98
A6
7D
ENDCHAR
STARTCHAR uni0436
ENCODING 1078
SWIDTH 717 0
DWIDTH 6 0
BBX 7 4 0 0
BITMAP
76A0
1FA0
9F88
B5B4
ENDCHAR
STARTCHAR uni0437
ENCODING 1079
SWIDTH 435 0
DWIDTH 3 0
BBX 6 8 -1 -4
BITMAP
1F00
0200
1950
1A80
0E00
2900
6800
7400
ENDCHAR
STARTCHAR uni0438
ENCODING 1080
SWIDTH 462 0
DWIDTH 4 0
BBX 5 4 0 0
BITMAP
6500
5900
AD80
6A00
ENDCHAR
STARTCHAR uni0439
ENCODING 1081
SWIDTH 462 0
DWIDTH 4 0
BBX 5 6 0 0
BITMAP
1200
2D00
6500
5900
AD80
6A00
ENDCHAR
STARTCHAR uni043A
ENCODING 1082
SWIDTH 465 0
DWIDTH 4 0
BBX 5 4 0 0
BITMAP
6A00
BA00
B480
6B40
ENDCHAR
STARTCHAR uni043B
ENCODING 1083
SWIDTH 549 0
DWIDTH 4 0
BBX 6 4 0 0
BITMAP
0A00
0E00
EA50
A380
ENDCHAR
STARTCHAR uni043C
ENCODING 1084
SWIDTH 734 0
DWIDTH 6 0
BBX 7 4 0 0
BITMAP
0990
1ED0
EB98
A674
ENDCHAR
STARTCHAR uni043D
ENCODING 1085
SWIDTH 475 0
DWIDTH 4 0
BBX 5 4 0 0
BITMAP
6600
BD00
9980
5B00
ENDCHAR
STARTCHAR uni043E
ENCODING 1086
SWIDTH 451 0
DWIDTH 4 0
BBX 5 4 0 0
BITMAP
3D00
9B40
9900
7800
ENDCHAR
STARTCHAR uni043F
ENCODING 1087
SWIDTH 496 0
DWIDTH 4 0
BBX 5 4 0 0
BITMAP
6A00
BA00
A980
5740
ENDCHAR
STARTCHAR uni0440
ENCODING 1088
SWIDTH 481 0
DWIDTH 4 0
BBX 6 8 -1 -4
BITMAP
1B40
1A80
2A60
3FD0
6400
A400
A000
A000
ENDCHAR
STARTCHAR uni0441
ENCODING 1089
SWIDTH 368 0
DWIDTH 3 0
BBX 4 4 0 0
BITMAP
38
98
92
7D
ENDCHAR
STARTCHAR uni0442
ENCODING 1090
SWIDTH 744 0
DWIDTH 6 0
BBX 7 4 0 0
BITMAP
6AA0
BBA0
AA98
5574
ENDCHAR
STARTCHAR uni0443
ENCODING 1091
SWIDTH 479 0
DWIDTH 4 0
BBX 5 8 0 -4
BITMAP
6500
5900
AD80
6E00
2C00
6800
A400
A000
ENDCHAR
STARTCHAR uni0444
ENCODING 1092
SWIDTH 721 0
DWIDTH 6 0
BBX 7 10 0 -3
BITMAP
0200
0200
0600
2ED0
6A90
9DD8
7BF4
0800
0800
0800
ENDCHAR
STARTCHAR uni0445
ENCODING 1093
SWIDTH 529 0
DWIDTH 4 0
BBX 6 4 0 0
BITMAP
7B40
1D00
9C50
BB80
ENDCHAR
STARTCHAR uni0446
ENCODING 1094
SWIDTH 501 0
DWIDTH 4 0
BBX 5 7 0 -3
BITMAP
6500
5900
AD40
6B40
1D00
2800
2800
ENDCHAR
STARTCHAR uni0447
ENCODING 1095
SWIDTH 555 0
DWIDTH 4 0
BBX 6 5 0 0
BITMAP
0400
2B40
2600
9C50
4B80
ENDCHAR
STARTCHAR uni0448
ENCODING 1096
SWIDTH 693 0
DWIDTH 6 0
BBX 7 4 0 0
BITMAP
6590
59C0
AED4
7AA0
ENDCHAR
STARTCHAR uni0449
ENCODING 1097
SWIDTH 732 0
DWIDTH 6 0
BBX 7 7 0 -3
BITMAP
6590
59C0
AEC4
7AB4
01D0
0280
0340
ENDCHAR
STARTCHAR uni044A
ENCODING 1098
SWIDTH 542 0
DWIDTH 4 0
BBX 6 4 0 0
BITMAP
7400
7E00
6650
3F80
ENDCHAR
STARTCHAR uni044B
ENCODING 1099
SWIDTH 702 0
DWIDTH 6 0
BBX 7 4 0 0
BITMAP
6090
BDC0
A7D4
7DA0
ENDCHAR
STARTCHAR uni044C
ENCODING 1100
SWIDTH 517 0
DWIDTH 4 0
BBX 5 4 0 0
BITMAP
6000
BD00
A680
7F40
ENDCHAR
STARTCHAR uni044D
ENCODING 1101
SWIDTH 466 0
DWIDTH 4 0
BBX 5 4 0 0
BITMAP
7D00
5F80
8900
7800
ENDCHAR
STARTCHAR uni044E
ENCODING 1102
SWIDTH 676 0
DWIDTH 5 0
BBX 7 4 0 0
BITMAP
6780
BDF4
9980
5740
ENDCHAR
STARTCHAR uni044F
ENCODING 1103
SWIDTH 543 0
DWIDTH 4 0
BBX 6 4 0 0
BITMAP
1F00
2600
9E50
B780
ENDCHAR
STARTCHAR uni0450
ENCODING 1104
SWIDTH 393 0
DWIDTH 3 0
BBX 4 8 0 0
BITMAP
10
30
14
00
2C
98
A6
7D
ENDCHAR
STARTCHAR uni0451
ENCODING 1105
SWIDTH 393 0
DWIDTH 3 0
BBX 4 6 0 0
BITMAP
25
00
2C
98
A6
7D
ENDCHAR
STARTCHAR uni0452
ENCODING 1106
SWIDTH 514 0
DWIDTH 4 0
BBX 5 11 0 -4
BITMAP
2400
7D00
7000
6A00
7A00
A680
5B40
1D00
6C00
9800
B000
ENDCHAR
STARTCHAR uni0453
ENCODING 1107
SWIDTH 380 0
DWIDTH 3 0
BBX 4 8 0 0
BITMAP
04
0C
14
00
78
18
A2
7D
ENDCHAR
STARTCHAR uni0454
ENCODING 1108
SWIDTH 379 0
DWIDTH 3 0
BBX 4 4 0 0
BITMAP
3C
B4
92
7D
ENDCHAR
STARTCHAR uni0455
ENCODING 1109
SWIDTH 427 0
DWIDTH 3 0
BBX 5 4 0 0
BITMAP
2400
3400
9D40
6E00
ENDCHAR
STARTCHAR uni0456
ENCODING 1110
SWIDTH 246 0
DWIDTH 2 0
BBX 3 6 0 0
BITMAP
20
00
60
90
98
74
ENDCHAR
STARTCHAR uni0457
ENCODING 1111
SWIDTH 246 0
DWIDTH 2 0
BBX 3 6 0 0
BITMAP
98
00
60
90
98
74
ENDCHAR
STARTCHAR uni0458
ENCODING 1112
SWIDTH 254 0
DWIDTH 2 0
BBX 5 10 -2 -4
BITMAP
0600
0000
0600
0600
0A80
0A40
1C00
6C00
9800
B000
ENDCHAR
STARTCHAR uni0459
ENCODING 1113
SWIDTH 794 0
DWIDTH 6 0
BBX 8 4 0 0
BITMAP
0A00
0EE0
EA65
A2F8
ENDCHAR
STARTCHAR uni045A
ENCODING 1114
SWIDTH 751 0
DWIDTH 6 0
BBX 7 4 0 0
BITMAP
6600
BFD0
99A8
57F4
ENDCHAR
STARTCHAR uni045B
ENCODING 1115
SWIDTH 502 0
DWIDTH 4 0
BBX 5 7 0 0
BITMAP
2400
7D00
7000
6A00
7A00
A980
5740
ENDCHAR
STARTCHAR uni045C
ENCODING 1116
SWIDTH 465 0
DWIDTH 4 0
BBX 5 8 0 0
BITMAP
0100
0600
0800
0000
6A00
BA00
B480
6B40
ENDCHAR
STARTCHAR uni045D
ENCODING 1117
SWIDTH 462 0
DWIDTH 4 0
BBX 5 8 0 0
BITMAP
1000
3400
1800
0000
6500
5900
AD80
6A00
ENDCHAR
STARTCHAR uni045E
ENCODING 1118
SWIDTH 479 0
DWIDTH 4 0
BBX 5 10 0 -4
BITMAP
1200
2D00
6500
5900
AD80
6E00
2C00
6800
A400
A000
ENDCHAR
STARTCHAR uni045F
ENCODING 1119
SWIDTH 600 0
DWIDTH 5 0
BBX 5 5 0 -1
BITMAP
6500
5900
AD80
7B00
2000
ENDCHAR
STARTCHAR uni0462
ENCODING 1122
SWIDTH 721 0
DWIDTH 6 0
BBX 6 7 0 0
BITMAP
1800
7D00
3F80
70A0
30A0
30D0
1F40
ENDCHAR
STARTCHAR uni0463
ENCODING 1123
SWIDTH 517 0
DWIDTH 4 0
BBX 5 6 0 0
BITMAP
1000
3000
B800
AD00
A680
7F40
ENDCHAR
STARTCHAR uni046A
ENCODING 1130
SWIDTH 1234 0
DWIDTH 10 0
BBX 11 7 0 0
BITMAP
1FFFE0
030180
024700
01FD00
077600
496344
7861E0
ENDCHAR
STARTCHAR uni046B
ENCODING 1131
SWIDTH 788 0
DWIDTH 6 0
BBX 8 7 0 0
BITMAP
00C0
01C0
0280
0EB4
0AC0
9ED5
B778
ENDCHAR
STARTCHAR uni0472
ENCODING 1138
SWIDTH 816 0
DWIDTH 7 0
BBX 7 7 0 0
BITMAP
0BD0
2870
7034
7FF4
6030
70A0
1F80
ENDCHAR
STARTCHAR uni0473
ENCODING 1139
SWIDTH 451 0
DWIDTH 4 0
BBX 5 4 0 0
BITMAP
3800
9A40
BF40
7800
ENDCHAR
STARTCHAR uni0474
ENCODING 1140
SWIDTH 797 0
DWIDTH 6 0
BBX 7 7 1 0
BITMAP
90B8
D0D0
D0C0
C180
D340
AA00
7800
ENDCHAR
STARTCHAR uni0475
ENCODING 1141
SWIDTH 420 0
DWIDTH 3 0
BBX 5 4 0 0
BITMAP
9740
9900
A800
7000
ENDCHAR
STARTCHAR uni048A
ENCODING 1162
SWIDTH 890 0
DWIDTH 7 0
BBX 8 12 0 -2
BITMAP
0110
02E0
0000
7C18
9C28
0C24
1834
2870
29B6
1E2E
0018
0024
ENDCHAR
STARTCHAR uni048B
ENCODING 1163
SWIDTH 462 0
DWIDTH 4 0
BBX 5 9 0 -2
BITMAP
0100
2D00
0000
6500
5900
AD80
6B00
0900
0400
ENDCHAR
STARTCHAR uni048C
ENCODING 1164
SWIDTH 721 0
DWIDTH 6 0
BBX 6 7 0 0
BITMAP
1800
7D00
3F80
70A0
30A0
30D0
1F40
ENDCHAR
STARTCHAR uni048D
ENCODING 1165
SWIDTH 517 0
DWIDTH 4 0
BBX 5 6 0 0
BITMAP
1000
3000
B800
AD00
A680
7F40
ENDCHAR
STARTCHAR uni048E
ENCODING 1166
SWIDTH 805 0
DWIDTH 6 0
BBX 7 8 0 -1
BITMAP
07E0
2834
2328
5778
9FD0
9A00
5900
3C00
ENDCHAR
STARTCHAR uni048F
ENCODING 1167
SWIDTH 481 0
DWIDTH 4 0
BBX 6 8 -1 -4
BITMAP
1B40
1A80
2B60
3FD0
A400
A400
A000
A000
ENDCHAR
STARTCHAR uni0490
ENCODING 1168
SWIDTH 645 0
DWIDTH 5 0
BBX 7 10 0 0
BITMAP
0004
0008
000C
2FF8
9A00
9900
0D00
0C00
1C00
1800
ENDCHAR
STARTCHAR uni0491
ENCODING 1169
SWIDTH 394 0
DWIDTH 3 0
BBX 4 5 0 0
BITMAP
05
78
90
90
50
ENDCHAR
STARTCHAR uni0492
ENCODING 1170
SWIDTH 635 0
DWIDTH 5 0
BBX 7 7 0 0
BITMAP
2FF8
9A00
5900
2F40
0C00
1C00
1800
ENDCHAR
STARTCHAR uni0493
ENCODING 1171
SWIDTH 380 0
DWIDTH 3 0
BBX 4 4 0 0
BITMAP
78
58
A6
7D
ENDCHAR
STARTCHAR uni0494
ENCODING 1172
SWIDTH 884 0
DWIDTH 7 0
BBX 8 11 0 -4
BITMAP
2FF8
9A00
9900
0EF4
0E28
1C2A
1828
00B0
02B0
0360
0280
ENDCHAR
STARTCHAR uni0495
ENCODING 1173
SWIDTH 441 0
DWIDTH 4 0
BBX 4 7 0 -3
BITMAP
78
18
A1
BE
2C
68
74
ENDCHAR
STARTCHAR uni0496
ENCODING 1174
SWIDTH 1234 0
DWIDTH 10 0
BBX 11 10 0 -3
BITMAP
1E24B4
132580
027700
01FD00
077600
496344
7861F4
0002D0
000690
000780
ENDCHAR
STARTCHAR uni0497
ENCODING 1175
SWIDTH 803 0
DWIDTH 6 0
BBX 7 7 0 -3
BITMAP
76A0
1FA0
9F84
B6F8
00A0
01A0
01C0
ENDCHAR
STARTCHAR uni0498
ENCODING 1176
SWIDTH 725 0
DWIDTH 6 0
BBX 6 10 0 -3
BITMAP
1B80
34C0
1180
0A80
5090
61D0
2F80
0B00
2700
1D00
ENDCHAR
STARTCHAR uni0499
ENCODING 1177
SWIDTH 445 0
DWIDTH 4 0
BBX 5 7 0 -3
BITMAP
7C00
5800
5D40
BE00
2C00
6800
7400
ENDCHAR
STARTCHAR uni049A
ENCODING 1178
SWIDTH 937 0
DWIDTH 8 0
BBX 9 10 0 -3
BITMAP
2F8600
634D00
536800
0BD000
067000
8A3540
781E00
002C00
009C00
00B400
ENDCHAR
STARTCHAR uni049B
ENCODING 1179
SWIDTH 531 0
DWIDTH 4 0
BBX 5 7 0 -3
BITMAP
6A00
BA00
B440
6B80
0A00
2900
2800
ENDCHAR
STARTCHAR uni049C
ENCODING 1180
SWIDTH 937 0
DWIDTH 8 0
BBX 9 7 0 0
BITMAP
2F8600
624D00
53A800
0BD000
07F000
8AB540
7C1E00
ENDCHAR
STARTCHAR uni049D
ENCODING 1181
SWIDTH 485 0
DWIDTH 4 0
BBX 5 4 0 0
BITMAP
6B00
AA00
B880
5B40
ENDCHAR
STARTCHAR uni049E
ENCODING 1182
SWIDTH 937 0
DWIDTH 8 0
BBX 9 7 0 0
BITMAP
2F8600
6BCD00
136800
0BD000
067000
8A3540
781E00
ENDCHAR
STARTCHAR uni049F
ENCODING 1183
SWIDTH 473 0
DWIDTH 4 0
BBX 5 7 0 0
BITMAP
2400
7D00
7000
6B00
7A00
B880
6B40
ENDCHAR
STARTCHAR uni04A0
ENCODING 1184
SWIDTH 937 0
DWIDTH 8 0
BBX 9 7 0 0
BITMAP
7F8600
034C00
036400
0BD000
067000
8A3540
781E00
ENDCHAR
STARTCHAR uni04A1
ENCODING 1185
SWIDTH 555 0
DWIDTH 4 0
BBX 6 4 0 0
BITMAP
7B80
2D80
3D50
2780
ENDCHAR
STARTCHAR uni04A2
ENCODING 1186
SWIDTH 907 0
DWIDTH 7 0
BBX 8 11 0 -3
BITMAP
000D
7826
8C35
0C78
3FE0
18A0
2475
242E
007C
00D8
00B0
ENDCHAR
STARTCHAR uni04A3
ENCODING 1187
SWIDTH 515 0
DWIDTH 4 0
BBX 5 7 0 -3
BITMAP
6600
BD00
9980
5740
1D00
2900
2800
ENDCHAR
STARTCHAR uni04A4
ENCODING 1188
SWIDTH 873 0
DWIDTH 7 0
BBX 9 7 0 0
BITMAP
781F80
8C3400
0C7000
3FE000
18A000
246200
242D00
ENDCHAR
STARTCHAR uni04A5
ENCODING 1189
SWIDTH 475 0
DWIDTH 4 0
BBX 5 5 0 0
BITMAP
0100
6600
BD00
9980
5B00
ENDCHAR
STARTCHAR uni04A8
ENCODING 1192
SWIDTH 997 0
DWIDTH 8 0
BBX 9 7 0 0
BITMAP
0B7900
29DA00
728300
624700
628A00
75ED80
1FEE40
ENDCHAR
STARTCHAR uni04A9
ENCODING 1193
SWIDTH 574 0
DWIDTH 5 0
BBX 6 4 0 0
BITMAP
2B00
9940
9A60
7F80
ENDCHAR
STARTCHAR uni04AA
ENCODING 1194
SWIDTH 781 0
DWIDTH 6 0
BBX 7 11 0 -4
BITMAP
0BD0
28A0
7050
6000
6000
7468
1FF4
01D0
02C0
0580
0740
ENDCHAR
STARTCHAR uni04AB
ENCODING 1195
SWIDTH 431 0
DWIDTH 3 0
BBX 4 7 0 -3
BITMAP
38
98
91
7E
2C
68
70
ENDCHAR
STARTCHAR uni04AC
ENCODING 1196
SWIDTH 697 0
DWIDTH 6 0
BBX 7 10 0 -3
BITMAP
2BFC
9240
9300
0700
0600
0600
0B40
0B40
2B00
1D00
ENDCHAR
STARTCHAR uni04AD
ENCODING 1197
SWIDTH 784 0
DWIDTH 6 0
BBX 7 7 0 -3
BITMAP
6AA0
BBA0
AA94
5578
00A0
0290
0280
ENDCHAR
STARTCHAR uni04AE
ENCODING 1198
SWIDTH 677 0
DWIDTH 5 0
BBX 5 7 1 0
BITMAP
9180
A340
3A00
2C00
1800
1800
1400
ENDCHAR
STARTCHAR uni04AF
ENCODING 1199
SWIDTH 472 0
DWIDTH 4 0
BBX 5 7 0 -3
BITMAP
9A00
6B80
6800
7400
7000
3000
2000
ENDCHAR
STARTCHAR uni04B0
ENCODING 1200
SWIDTH 677 0
DWIDTH 5 0
BBX 5 7 1 0
BITMAP
9180
A340
3A00
2C00
7D00
1800
1400
ENDCHAR
STARTCHAR uni04B1
ENCODING 1201
SWIDTH 472 0
DWIDTH 4 0
BBX 5 7 0 -3
BITMAP
9A00
6B80
6800
7400
B800
3000
2000
ENDCHAR
STARTCHAR uni04B2
ENCODING 1202
SWIDTH 716 0
DWIDTH 6 0
BBX 7 10 0 -3
BITMAP
7870
49D0
0740
0B00
1B40
7284
D1F4
02D0
0680
0780
ENDCHAR
STARTCHAR uni04B3
ENCODING 1203
SWIDTH 601 0
DWIDTH 5 0
BBX 6 7 0 -3
BITMAP
7B40
1D00
9C10
BBD0
0740
0A00
0D00
ENDCHAR
STARTCHAR uni04B4
ENCODING 1204
SWIDTH 1040 0
DWIDTH 8 0
BBX 9 10 0 -3
BITMAP
2FE600
924600
934A00
070D00
061D00
062900
079B80
000700
002600
002D00
ENDCHAR
STARTCHAR uni04B5
ENCODING 1205
SWIDTH 501 0
DWIDTH 4 0
BBX 5 9 0 -3
BITMAP
2E00
0000
6500
5900
AD40
6B40
1D00
2800
2800
ENDCHAR
STARTCHAR uni04B6
ENCODING 1206
SWIDTH 804 0
DWIDTH 6 0
BBX 7 10 1 -3
BITMAP
9080
91C0
D280
C780
BE40
0240
02E4
01D0
0A80
0B40
ENDCHAR
STARTCHAR uni04B7
ENCODING 1207
SWIDTH 631 0
DWIDTH 5 0
BBX 6 8 0 -3
BITMAP
0400
2B40
2600
9C10
4FD0
0740
0A40
0A00
ENDCHAR
STARTCHAR uni04B8
ENCODING 1208
SWIDTH 773 0
DWIDTH 6 0
BBX 5 7 1 0
BITMAP
9080
9180
D680
DB80
BA40
1240
0240
ENDCHAR
STARTCHAR uni04B9
ENCODING 1209
SWIDTH 575 0
DWIDTH 5 0
BBX 6 5 0 0
BITMAP
1900
2B80
6600
9C60
4B80
ENDCHAR
STARTCHAR uni04BA
ENCODING 1210
SWIDTH 755 0
DWIDTH 6 0
BBX 7 7 0 0
BITMAP
1800
2400
2400
3BD0
3890
7098
60B4
ENDCHAR
STARTCHAR uni04BB
ENCODING 1211
SWIDTH 502 0
DWIDTH 4 0
BBX 5 8 0 0
BITMAP
1D00
2500
2800
6800
7A00
AA00
A980
9740
ENDCHAR
STARTCHAR uni04BC
ENCODING 1212
SWIDTH 808 0
DWIDTH 6 0
BBX 8 7 0 0
BITMAP
02E0
0A28
5C28
7FF4
1800
1D05
06F8
ENDCHAR
STARTCHAR uni04BD
ENCODING 1213
SWIDTH 483 0
DWIDTH 4 0
BBX 5 4 0 0
BITMAP
1E00
7600
B980
1F40
ENDCHAR
STARTCHAR uni04BE
ENCODING 1214
SWIDTH 808 0
DWIDTH 6 0
BBX 8 9 0 -2
BITMAP
02E0
0A28
5C28
7FF4
1800
1D05
07F8
0600
0780
ENDCHAR
STARTCHAR uni04BF
ENCODING 1215
SWIDTH 483 0
DWIDTH 4 0
BBX 5 6 0 -2
BITMAP
1E00
7600
B980
1E40
0800
0A00
ENDCHAR
STARTCHAR uni04C0
ENCODING 1216
SWIDTH 495 0
DWIDTH 4 0
BBX 5 7 0 0
BITMAP
3F40
0C00
1C00
1800
2800
2400
BD00
ENDCHAR
STARTCHAR uni04C1
ENCODING 1217
SWIDTH 1234 0
DWIDTH 10 0
BBX 11 9 0 0
BITMAP
001100
003D00
1E24B4
132580
027700
01FD00
077600
496344
7861E0
ENDCHAR
STARTCHAR uni04C2
ENCODING 1218
SWIDTH 717 0
DWIDTH 6 0
BBX 7 6 0 0
BITMAP
0480
0B40
76A0
1FA0
9F88
B5B4
ENDCHAR
STARTCHAR uni04C3
ENCODING 1219
SWIDTH 937 0
DWIDTH 8 0
BBX 9 10 0 -3
BITMAP
2F8600
634D00
536800
0BD000
067000
8A3540
781E00
002C00
009C00
00B400
ENDCHAR
STARTCHAR uni04C4
ENCODING 1220
SWIDTH 531 0
DWIDTH 4 0
BBX 5 7 0 -3
BITMAP
6A00
BA00
B440
6B80
0A00
2900
2800
ENDCHAR
STARTCHAR uni04C5
ENCODING 1221
SWIDTH 861 0
DWIDTH 7 0
BBX 8 9 0 -2
BITMAP
00A0
00E0
01E0
02A0
0360
8A72
782D
0028
0020
ENDCHAR
STARTCHAR uni04C6
ENCODING 1222
SWIDTH 549 0
DWIDTH 4 0
BBX 6 6 0 -2
BITMAP
0A00
0E00
AA50
A380
0300
0600
ENDCHAR
STARTCHAR uni04C7
ENCODING 1223
SWIDTH 907 0
DWIDTH 7 0
BBX 8 11 0 -3
BITMAP
000D
7826
8C35
0C78
3FE0
18A0
2475
242E
007C
00D8
00B0
ENDCHAR
STARTCHAR uni04C8
ENCODING 1224
SWIDTH 515 0
DWIDTH 4 0
BBX 5 7 0 -3
BITMAP
6600
BD00
9980
5740
1D00
2900
2800
ENDCHAR
STARTCHAR uni04C9
ENCODING 1225
SWIDTH 873 0
DWIDTH 7 0
BBX 8 10 0 -2
BITMAP
000D
7826
8C35
0C78
3FE0
18A0
2462
242D
0018
0020
ENDCHAR
STARTCHAR uni04CA
ENCODING 1226
SWIDTH 475 0
DWIDTH 4 0
BBX 5 6 0 -2
BITMAP
6600
BD00
9980
5B00
0900
0400
ENDCHAR
STARTCHAR uni04CB
ENCODING 1227
SWIDTH 773 0
DWIDTH 6 0
BBX 5 10 1 -3
BITMAP
9080
9180
D280
C780
BE40
0240
0740
2D00
6800
7800
ENDCHAR
STARTCHAR uni04CC
ENCODING 1228
SWIDTH 555 0
DWIDTH 4 0
BBX 6 6 0 -1
BITMAP
0400
2B40
2600
9C50
4B80
0140
ENDCHAR
STARTCHAR uni04CD
ENCODING 1229
SWIDTH 1133 0
DWIDTH 9 0
BBX 10 9 0 -2
BITMAP
018700
02CB00
03CF00
02DB00
06E700
89A320
B892E0
000180
000240
ENDCHAR
STARTCHAR uni04CE
ENCODING 1230
SWIDTH 734 0
DWIDTH 6 0
BBX 7 6 0 -2
BITMAP
0990
1ED0
EB98
A674
0060
0080
ENDCHAR
STARTCHAR uni04CF
ENCODING 1231
SWIDTH 222 0
DWIDTH 2 0
BBX 3 7 0 0
BITMAP
24
30
30
60
60
90
90
ENDCHAR
STARTCHAR uni04D0
ENCODING 1232
SWIDTH 786 0
DWIDTH 6 0
BBX 8 9 0 0
BITMAP
0154
01F4
06F8
1D10
3460
60A0
A0D0
72D5
2E78
ENDCHAR
STARTCHAR uni04D1
ENCODING 1233
SWIDTH 470 0
DWIDTH 4 0
BBX 5 6 0 0
BITMAP
1200
2D00
2D00
6900
9D80
7B40
ENDCHAR
STARTCHAR uni04D2
ENCODING 1234
SWIDTH 786 0
DWIDTH 6 0
BBX 8 9 0 0
BITMAP
0164
0000
06F8
1D10
3460
60A0
A0D0
72D5
2E78
ENDCHAR
STARTCHAR uni04D3
ENCODING 1235
SWIDTH 470 0
DWIDTH 4 0
BBX 5 6 0 0
BITMAP
2600
0000
2D00
6900
9D80
7B40
ENDCHAR
STARTCHAR uni04D4
ENCODING 1236
SWIDTH 1015 0
DWIDTH 8 0
BBX 9 7 0 0
BITMAP
06AF40
1D3000
306000
60BF00
A0D000
61E040
2E2F80
ENDCHAR
STARTCHAR uni04D5
ENCODING 1237
SWIDTH 653 0
DWIDTH 5 0
BBX 7 4 0 0
BITMAP
2EC0
6A80
9E64
77D0
ENDCHAR
STARTCHAR uni04D6
ENCODING 1238
SWIDTH 686 0
DWIDTH 5 0
BBX 7 9 0 0
BITMAP
0550
07D0
0BD0
2460
3450
2E00
A000
A014
2FE0
ENDCHAR
STARTCHAR uni04D7
ENCODING 1239
SWIDTH 393 0
DWIDTH 3 0
BBX 4 6 0 0
BITMAP
16
38
2C
98
A6
7D
ENDCHAR
STARTCHAR uni04D8
ENCODING 1240
SWIDTH 792 0
DWIDTH 6 0
BBX 6 7 0 0
BITMAP
1B90
2070
0030
7FF0
6070
7090
1F40
ENDCHAR
STARTCHAR uni04D9
ENCODING 1241
SWIDTH 455 0
DWIDTH 4 0
BBX 5 4 0 0
BITMAP
7D00
BF80
8900
7800
ENDCHAR
STARTCHAR uni04DA
ENCODING 1242
SWIDTH 792 0
DWIDTH 6 0
BBX 6 9 0 0
BITMAP
0580
0000
1B90
2070
0030
7FF0
6070
7090
1F40
ENDCHAR
STARTCHAR uni04DB
ENCODING 1243
SWIDTH 455 0
DWIDTH 4 0
BBX 5 6 0 0
BITMAP
2500
0000
7D00
BF80
8900
7800
ENDCHAR
STARTCHAR uni04DC
ENCODING 1244
SWIDTH 1234 0
DWIDTH 10 0
BBX 11 9 0 0
BITMAP
006500
000000
1E24B4
132580
027700
01FD00
077600
496344
7861E0
ENDCHAR
STARTCHAR uni04DD
ENCODING 1245
SWIDTH 717 0
DWIDTH 6 0
BBX 7 6 0 0
BITMAP
0980
0000
76A0
1FA0
9F88
B5B4
ENDCHAR
STARTCHAR uni04DE
ENCODING 1246
SWIDTH 725 0
DWIDTH 6 0
BBX 6 9 0 0
BITMAP
0980
0000
1B80
34C0
1180
0A80
5090
61D0
2F40
ENDCHAR
STARTCHAR uni04DF
ENCODING 1247
SWIDTH 435 0
DWIDTH 3 0
BBX 6 10 -1 -4
BITMAP
1640
0000
1F00
0200
1950
1A80
0E00
2900
6800
7400
ENDCHAR
STARTCHAR uni04E0
ENCODING 1248
SWIDTH 744 0
DWIDTH 6 0
BBX 6 7 0 0
BITMAP
1FE0
30A0
1180
0A80
5090
61D0
2F40
ENDCHAR
STARTCHAR uni04E1
ENCODING 1249
SWIDTH 435 0
DWIDTH 3 0
BBX 6 8 -1 -4
BITMAP
1F80
0A00
1890
1A40
0E00
2900
6800
3400
ENDCHAR
STARTCHAR uni04E2
ENCODING 1250
SWIDTH 890 0
DWIDTH 7 0
BBX 8 8 0 0
BITMAP
02D0
7C18
9C28
0C24
1834
2870
29B6
1E2D
ENDCHAR
STARTCHAR uni04E3
ENCODING 1251
SWIDTH 462 0
DWIDTH 4 0
BBX 5 5 0 0
BITMAP
2D00
6500
5900
AD80
6A00
ENDCHAR
STARTCHAR uni04E4
ENCODING 1252
SWIDTH 890 0
DWIDTH 7 0
BBX 8 9 0 0
BITMAP
0260
0000
7C18
9C28
0C24
1834
2870
29B6
1E2D
ENDCHAR
STARTCHAR uni04E5
ENCODING 1253
SWIDTH 462 0
DWIDTH 4 0
BBX 5 6 0 0
BITMAP
2600
0000
6500
5900
AD80
6A00
ENDCHAR
STARTCHAR uni04E6
ENCODING 1254
SWIDTH 816 0
DWIDTH 7 0
BBX 7 9 0 0
BITMAP
0690
0000
0BD0
2870
7034
6034
6030
70A0
1F80
ENDCHAR
STARTCHAR uni04E7
ENCODING 1255
SWIDTH 451 0
DWIDTH 4 0
BBX 5 6 0 0
BITMAP
2500
0000
3D00
9B40
9900
7800
ENDCHAR
STARTCHAR uni04E8
ENCODING 1256
SWIDTH 816 0
DWIDTH 7 0
BBX 7 7 0 0
BITMAP
0BD0
2870
7034
7FF4
6030
70A0
1F80
ENDCHAR
STARTCHAR uni04E9
ENCODING 1257
SWIDTH 451 0
DWIDTH 4 0
BBX 5 4 0 0
BITMAP
2D00
BF80
9900
7800
ENDCHAR
STARTCHAR uni04EA
ENCODING 1258
SWIDTH 816 0
DWIDTH 7 0
BBX 7 9 0 0
BITMAP
0690
0000
0BD0
2870
7034
7FF4
6030
70A0
1F80
ENDCHAR
STARTCHAR uni04EB
ENCODING 1259
SWIDTH 451 0
DWIDTH 4 0
BBX 5 6 0 0
BITMAP
2500
0000
2D00
BF80
9900
7800
ENDCHAR
STARTCHAR uni04EC
ENCODING 1260
SWIDTH 755 0
DWIDTH 6 0
BBX 6 9 0 0
BITMAP
0980
0000
1F80
20A0
0070
1FF0
40A0
A1D0
6E40
ENDCHAR
STARTCHAR uni04ED
ENCODING 1261
SWIDTH 466 0
DWIDTH 4 0
BBX 5 6 0 0
BITMAP
2600
0000
7D00
5F80
8900
7800
ENDCHAR
STARTCHAR uni04EE
ENCODING 1262
SWIDTH 824 0
DWIDTH 7 0
BBX 8 10 0 -2
BITMAP
03D0
6C18
4C28
1C34
18B4
0B75
01B9
0A60
0C90
0B80
ENDCHAR
STARTCHAR uni04EF
ENCODING 1263
SWIDTH 479 0
DWIDTH 4 0
BBX 5 9 0 -4
BITMAP
2D00
6500
5900
AD80
6E00
2C00
6800
A400
A000
ENDCHAR
STARTCHAR uni04F0
ENCODING 1264
SWIDTH 824 0
DWIDTH 7 0
BBX 8 11 0 -2
BITMAP
0250
0000
6C18
4C28
1C34
18B4
0B75
01B9
0A60
0C90
0B80
ENDCHAR
STARTCHAR uni04F1
ENCODING 1265
SWIDTH 479 0
DWIDTH 4 0
BBX 5 10 0 -4
BITMAP
2600
0000
6500
5900
AD80
6E00
2C00
6800
A400
A000
ENDCHAR
STARTCHAR uni04F2
ENCODING 1266
SWIDTH 824 0
DWIDTH 7 0
BBX 8 12 0 -2
BITMAP
0160
0250
0000
6C18
4C28
1C34
18B4
0B75
01B9
0A60
0C90
0B80
ENDCHAR
STARTCHAR uni04F3
ENCODING 1267
SWIDTH 479 0
DWIDTH 4 0
BBX 5 12 0 -4
BITMAP
0500
1A00
2600
0000
6500
5900
AD80
6E00
2C00
6800
A400
A000
ENDCHAR
STARTCHAR uni04F4
ENCODING 1268
SWIDTH 773 0
DWIDTH 6 0
BBX 5 9 1 0
BITMAP
2600
0000
9080
9180
D280
C780
BE40
0240
0240
ENDCHAR
STARTCHAR uni04F5
ENCODING 1269
SWIDTH 555 0
DWIDTH 4 0
BBX 6 6 0 0
BITMAP
0980
0400
2B40
2600
9C50
4B80
ENDCHAR
STARTCHAR uni04F6
ENCODING 1270
SWIDTH 600 0
DWIDTH 5 0
BBX 7 10 0 -3
BITMAP
2FF8
9A00
9900
0D00
0C00
1C00
1D00
2D00
6900
7800
ENDCHAR
STARTCHAR uni04F7
ENCODING 1271
SWIDTH 441 0
DWIDTH 4 0
BBX 4 7 0 -3
BITMAP
78
18
A1
BE
2C
68
74
ENDCHAR
STARTCHAR uni04F8
ENCODING 1272
SWIDTH 1078 0
DWIDTH 9 0
BBX 9 9 0 0
BITMAP
009400
000000
180240
240340
3B8300
B0A700
30A600
30D600
1F4900
ENDCHAR
STARTCHAR uni04F9
ENCODING 1273
SWIDTH 702 0
DWIDTH 6 0
BBX 7 6 0 0
BITMAP
0980
0000
6090
BDC0
A7D4
7DA0
ENDCHAR
STARTCHAR uni04FA
ENCODING 1274
SWIDTH 635 0
DWIDTH 5 0
BBX 8 10 -1 -3
BITMAP
0BFE
2680
1640
0BD0
0300
0700
0600
0A00
5D00
7800
ENDCHAR
STARTCHAR uni04FB
ENCODING 1275
SWIDTH 441 0
DWIDTH 4 0
BBX 4 7 0 -3
BITMAP
78
58
A5
7E
2C
68
74
ENDCHAR
STARTCHAR uni04FC
ENCODING 1276
SWIDTH 716 0
DWIDTH 6 0
BBX 7 10 0 -3
BITMAP
7870
49D0
0740
0B00
1B40
7284
D1F4
02D0
0680
0780
ENDCHAR
STARTCHAR uni04FD
ENCODING 1277
SWIDTH 601 0
DWIDTH 5 0
BBX 6 7 0 -3
BITMAP
7B40
1D00
9C10
BBD0
0740
0A00
0D00
ENDCHAR
STARTCHAR uni04FE
ENCODING 1278
SWIDTH 712 0
DWIDTH 6 0
BBX 7 7 0 0
BITMAP
7870
49D0
0780
2FC0
1F00
7644
D1E4
ENDCHAR
STARTCHAR uni04FF
ENCODING 1279
SWIDTH 529 0
DWIDTH 4 0
BBX 6 4 0 0
BITMAP
7B40
2E00
9C90
BB40
ENDCHAR
STARTCHAR uni0510
ENCODING 1296
SWIDTH 706 0
DWIDTH 6 0
BBX 6 7 0 0
BITMAP
1B80
2490
2440
2A00
A050
70D0
2F40
ENDCHAR
STARTCHAR uni0511
ENCODING 1297
SWIDTH 392 0
DWIDTH 3 0
BBX 4 4 0 0
BITMAP
78
70
92
79
ENDCHAR
STARTCHAR uni0512
ENCODING 1298
SWIDTH 884 0
DWIDTH 7 0
BBX 8 10 0 -3
BITMAP
00A0
00E0
01E0
02A0
0360
8A71
782E
0078
00D8
00A0
ENDCHAR
STARTCHAR uni0513
ENCODING 1299
SWIDTH 631 0
DWIDTH 5 0
BBX 6 7 0 -3
BITMAP
0A00
0E00
AA10
A7E0
0740
0A40
0A00
ENDCHAR
STARTCHAR uni051A
ENCODING 1306
SWIDTH 816 0
DWIDTH 7 0
BBX 7 10 0 -3
BITMAP
0BD0
2870
7034
6034
6034
70A0
2EC0
0740
01C8
00B4
ENDCHAR
STARTCHAR uni051B
ENCODING 1307
SWIDTH 500 0
DWIDTH 4 0
BBX 5 8 0 -3
BITMAP
0100
2E00
6900
9EC0
7E00
0E00
0E00
0D00
ENDCHAR
STARTCHAR uni051C
ENCODING 1308
SWIDTH 1217 0
DWIDTH 10 0
BBX 10 7 1 0
BITMAP
90C780
D1C9C0
C1C680
C2C2E0
C6C300
99D900
747400
ENDCHAR
STARTCHAR uni051D
ENCODING 1309
SWIDTH 700 0
DWIDTH 6 0
BBX 7 4 0 0
BITMAP
9990
9DF8
BA80
7700
ENDCHAR
STARTCHAR uni0524
ENCODING 1316
SWIDTH 892 0
DWIDTH 7 0
BBX 8 10 0 -3
BITMAP
2FFE
9618
9928
0924
0C30
0C35
1C1E
0078
00D8
00A0
ENDCHAR
STARTCHAR uni0525
ENCODING 1317
SWIDTH 536 0
DWIDTH 4 0
BBX 5 7 0 -3
BITMAP
6A00
BA00
A940
5780
0A00
2900
2800
ENDCHAR
STARTCHAR uni0526
ENCODING 1318
SWIDTH 818 0
DWIDTH 7 0
BBX 8 10 0 -3
BITMAP
1800
2800
2400
3BD0
38A0
70A0
60BD
00B4
02B0
01D0
ENDCHAR
STARTCHAR uni0527
ENCODING 1319
SWIDTH 542 0
DWIDTH 4 0
BBX 5 11 0 -3
BITMAP
1D00
2500
2800
6800
7A00
AA00
A940
9780
0A00
2900
1800
ENDCHAR
STARTCHAR uni0528
ENCODING 1320
SWIDTH 873 0
DWIDTH 7 0
BBX 9 11 -1 -3
BITMAP
000340
1E0980
230D40
031E00
0FF800
062800
0A1880
090B40
0C0000
580000
B40000
ENDCHAR
STARTCHAR uni0529
ENCODING 1321
SWIDTH 475 0
DWIDTH 4 0
BBX 6 7 -1 -3
BITMAP
1980
2F40
2660
26C0
2400
6400
A000
ENDCHAR
STARTCHAR uni052E
ENCODING 1326
SWIDTH 884 0
DWIDTH 7 0
BBX 8 10 0 -3
BITMAP
00A0
00E0
01E0
02A0
0360
8A71
782E
0078
00D8
00A0
ENDCHAR
STARTCHAR uni052F
ENCODING 1327
SWIDTH 631 0
DWIDTH 5 0
BBX 6 7 0 -3
BITMAP
0A00
0E00
AA10
A7E0
0740
0A40
0A00
ENDCHAR
STARTCHAR Wgrave
ENCODING 7808
SWIDTH 1217 0
DWIDTH 10 0
BBX 10 10 1 0
BITMAP
060000
018000
000000
90C780
D1C9C0
C1C680
C2C2E0
C6C300
99D900
747400
ENDCHAR
STARTCHAR wgrave
ENCODING 7809
SWIDTH 700 0
DWIDTH 6 0
BBX 7 8 0 0
BITMAP
0400
1800
0500
0000
9990
9DF8
BA80
7700
ENDCHAR
STARTCHAR Wacute
ENCODING 7810
SWIDTH 1217 0
DWIDTH 10 0
BBX 10 10 1 0
BITMAP
001800
006000
000000
90C780
D1C9C0
C1C680
C2C2E0
C6C300
99D900
747400
ENDCHAR
STARTCHAR wacute
ENCODING 7811
SWIDTH 700 0
DWIDTH 6 0
BBX 7 8 0 0
BITMAP
0140
0240
0200
0000
9990
9DF8
BA80
7700
ENDCHAR
STARTCHAR Wdieresis
ENCODING 7812
SWIDTH 1217 0
DWIDTH 10 0
BBX 10 9 1 0
BITMAP
016000
000000
90C780
D1C9C0
C1C680
C2C2E0
C6C300
99D900
747400
ENDCHAR
STARTCHAR wdieresis
ENCODING 7813
SWIDTH 700 0
DWIDTH 6 0
BBX 7 6 0 0
BITMAP
0940
0000
9990
9DF8
BA80
7700
ENDCHAR
STARTCHAR uni1E9E
ENCODING 7838
SWIDTH 843 0
DWIDTH 7 0
BBX 7 8 0 -1
BITMAP
19F0
2A24
3860
36E0
3034
7034
61A0
0140
ENDCHAR
STARTCHAR uni1EA0
ENCODING 7840
SWIDTH 786 0
DWIDTH 6 0
BBX 8 9 0 -2
BITMAP
06F8
1D10
3460
60A0
A0D0
72D5
2E78
0000
0900
ENDCHAR
STARTCHAR uni1EA1
ENCODING 7841
SWIDTH 470 0
DWIDTH 4 0
BBX 5 6 0 -2
BITMAP
2D00
6900
9D80
7B40
0000
2000
ENDCHAR
STARTCHAR uni1EA2
ENCODING 7842
SWIDTH 786 0
DWIDTH 6 0
BBX 8 9 0 0
BITMAP
00A0
0060
06F8
1D10
3460
60A0
A0D0
72D5
2E78
ENDCHAR
STARTCHAR uni1EA3
ENCODING 7843
SWIDTH 470 0
DWIDTH 4 0
BBX 5 7 0 0
BITMAP
0D00
0200
0900
2D00
6900
9D80
7B40
ENDCHAR
STARTCHAR uni1EA4
ENCODING 7844
SWIDTH 786 0
DWIDTH 6 0
BBX 8 13 0 0
BITMAP
000C
0024
0050
00F0
0160
0000
06F8
1D10
3460
60A0
A0D0
72D5
2E78
ENDCHAR
STARTCHAR uni1EA5
ENCODING 7845
SWIDTH 470 0
DWIDTH 4 0
BBX 5 8 0 0
BITMAP
0080
0E40
2600
0000
2D00
6900
9D80
7B40
ENDCHAR
STARTCHAR uni1EA6
ENCODING 7846
SWIDTH 786 0
DWIDTH 6 0
BBX 8 13 0 0
BITMAP
0340
0180
0050
00F0
0160
0000
06F8
1D10
3460
60A0
A0D0
72D5
2E78
ENDCHAR
STARTCHAR uni1EA7
ENCODING 7847
SWIDTH 470 0
DWIDTH 4 0
BBX 5 8 0 0
BITMAP
5000
1D00
2600
0000
2D00
6900
9D80
7B40
ENDCHAR
STARTCHAR uni1EA8
ENCODING 7848
SWIDTH 786 0
DWIDTH 6 0
BBX 8 12 0 0
BITMAP
0074
0070
00F0
0160
0000
06F8
1D10
3460
60A0
A0D0
72D5
2E78
ENDCHAR
STARTCHAR uni1EA9
ENCODING 7849
SWIDTH 470 0
DWIDTH 4 0
BBX 5 7 0 0
BITMAP
0180
0A80
2A00
3E00
6900
9D80
7B40
ENDCHAR
STARTCHAR uni1EAA
ENCODING 7850
SWIDTH 786 0
DWIDTH 6 0
BBX 8 13 0 0
BITMAP
0044
01A8
0050
00F0
0160
0000
06F8
1D10
3460
60A0
A0D0
72D5
2E78
ENDCHAR
STARTCHAR uni1EAB
ENCODING 7851
SWIDTH 470 0
DWIDTH 4 0
BBX 5 8 0 0
BITMAP
1A00
0900
2600
0000
2D00
6900
9D80
7B40
ENDCHAR
STARTCHAR uni1EAC
ENCODING 7852
SWIDTH 786 0
DWIDTH 6 0
BBX 8 13 0 -2
BITMAP
0050
00F0
0160
0000
06F8
1D10
3460
60A0
A0D0
72D5
2E78
0000
0900
ENDCHAR
STARTCHAR uni1EAD
ENCODING 7853
SWIDTH 470 0
DWIDTH 4 0
BBX 5 10 0 -2
BITMAP
0900
1A00
2200
0000
2D00
6900
9D80
7B40
0000
2000
ENDCHAR
STARTCHAR uni1EAE
ENCODING 7854
SWIDTH 786 0
DWIDTH 6 0
BBX 8 10 0 0
BITMAP
0020
0154
01E0
06F8
1D10
3460
60A0
A0D0
72D5
2E78
ENDCHAR
STARTCHAR uni1EAF
ENCODING 7855
SWIDTH 470 0
DWIDTH 4 0
BBX 5 7 0 0
BITMAP
0600
2600
2E00
2D00
6900
9D80
7B40
ENDCHAR
STARTCHAR uni1EB0
ENCODING 7856
SWIDTH 786 0
DWIDTH 6 0
BBX 8 10 0 0
BITMAP
0080
0154
01A0
06F8
1D10
3460
60A0
A0D0
72D5
2E78
ENDCHAR
STARTCHAR uni1EB1
ENCODING 7857
SWIDTH 470 0
DWIDTH 4 0
BBX 5 7 0 0
BITMAP
1800
2500
2A00
2D00
6900
9D80
7B40
ENDCHAR
STARTCHAR uni1EB2
ENCODING 7858
SWIDTH 786 0
DWIDTH 6 0
BBX 8 10 0 0
BITMAP
00A0
01A0
01E4
06F8
1D10
3460
60A0
A0D0
72D5
2E78
ENDCHAR
STARTCHAR uni1EB3
ENCODING 7859
SWIDTH 470 0
DWIDTH 4 0
BBX 5 7 0 0
BITMAP
0D00
1900
2E00
2D00
6900
9D80
7B40
ENDCHAR
STARTCHAR uni1EB4
ENCODING 7860
SWIDTH 786 0
DWIDTH 6 0
BBX 8 11 0 0
BITMAP
0044
0164
0114
01A0
06F8
1D10
3460
60A0
A0D0
72D5
2E78
ENDCHAR
STARTCHAR uni1EB5
ENCODING 7861
SWIDTH 470 0
DWIDTH 4 0
BBX 5 8 0 0
BITMAP
1500
2600
1100
2A00
2D00
6900
9D80
7B40
ENDCHAR
STARTCHAR uni1EB6
ENCODING 7862
SWIDTH 786 0
DWIDTH 6 0
BBX 8 11 0 -2
BITMAP
0104
01E4
06F8
1D10
3460
60A0
A0D0
72D5
2E78
0000
0900
ENDCHAR
STARTCHAR uni1EB7
ENCODING 7863
SWIDTH 470 0
DWIDTH 4 0
BBX 5 8 0 -2
BITMAP
3200
2E00
2D00
6900
9D80
7B40
0000
2000
ENDCHAR
STARTCHAR uni1EB8
ENCODING 7864
SWIDTH 686 0
DWIDTH 5 0
BBX 7 9 0 -2
BITMAP
0BD0
2460
3450
2E00
A000
A014
2FE0
0000
0900
ENDCHAR
STARTCHAR uni1EB9
ENCODING 7865
SWIDTH 393 0
DWIDTH 3 0
BBX 4 6 0 -2
BITMAP
2C
98
A6
7D
00
24
ENDCHAR
STARTCHAR uni1EBA
ENCODING 7866
SWIDTH 686 0
DWIDTH 5 0
BBX 7 9 0 0
BITMAP
0280
0180
0BD0
2460
3450
2E00
A000
A014
2FE0
ENDCHAR
STARTCHAR uni1EBB
ENCODING 7867
SWIDTH 393 0
DWIDTH 3 0
BBX 4 7 0 0
BITMAP
1C
05
18
2C
98
A6
7D
ENDCHAR
STARTCHAR uni1EBC
ENCODING 7868
SWIDTH 686 0
DWIDTH 5 0
BBX 7 10 0 0
BITMAP
0110
0A90
0000
0BD0
2460
3450
2E00
A000
A014
2FE0
ENDCHAR
STARTCHAR uni1EBD
ENCODING 7869
SWIDTH 393 0
DWIDTH 3 0
BBX 4 7 0 0
BITMAP
11
6A
00
2C
98
A6
7D
ENDCHAR
STARTCHAR uni1EBE
ENCODING 7870
SWIDTH 686 0
DWIDTH 5 0
BBX 7 11 0 0
BITMAP
0024
0290
0680
0000
0BD0
2460
3450
2E00
A000
A014
2FE0
ENDCHAR
STARTCHAR uni1EBF
ENCODING 7871
SWIDTH 393 0
DWIDTH 3 0
BBX 5 8 0 0
BITMAP
0180
1D00
2900
0000
2C00
9800
A600
7D00
ENDCHAR
STARTCHAR uni1EC0
ENCODING 7872
SWIDTH 686 0
DWIDTH 5 0
BBX 7 11 0 0
BITMAP
1800
0680
0680
0000
0BD0
2460
3450
2E00
A000
A014
2FE0
ENDCHAR
STARTCHAR uni1EC1
ENCODING 7873
SWIDTH 393 0
DWIDTH 3 0
BBX 4 8 0 0
BITMAP
80
2C
29
00
2C
98
A6
7D
ENDCHAR
STARTCHAR uni1EC2
ENCODING 7874
SWIDTH 686 0
DWIDTH 5 0
BBX 7 10 0 0
BITMAP
0074
02A0
06C0
0FD0
2460
3450
2E00
A000
A014
2FE0
ENDCHAR
STARTCHAR uni1EC3
ENCODING 7875
SWIDTH 393 0
DWIDTH 3 0
BBX 5 7 0 0
BITMAP
0280
1E40
3900
3C00
9800
A600
7D00
ENDCHAR
STARTCHAR uni1EC4
ENCODING 7876
SWIDTH 686 0
DWIDTH 5 0
BBX 7 11 0 0
BITMAP
0690
0180
0680
0000
0BD0
2460
3450
2E00
A000
A014
2FE0
ENDCHAR
STARTCHAR uni1EC5
ENCODING 7877
SWIDTH 393 0
DWIDTH 3 0
BBX 4 8 0 0
BITMAP
2A
18
29
00
2C
98
A6
7D
ENDCHAR
STARTCHAR uni1EC6
ENCODING 7878
SWIDTH 686 0
DWIDTH 5 0
BBX 7 13 0 -2
BITMAP
0140
03C0
0580
0000
0BD0
2460
3450
2E00
A000
A014
2FE0
0000
0900
ENDCHAR
STARTCHAR uni1EC7
ENCODING 7879
SWIDTH 393 0
DWIDTH 3 0
BBX 4 10 0 -2
BITMAP
1C
29
25
00
2C
98
A6
7D
00
24
ENDCHAR
STARTCHAR uni1EC8
ENCODING 7880
SWIDTH 495 0
DWIDTH 4 0
BBX 5 9 0 0
BITMAP
0A00
0A00
3F40
0C00
1C00
1800
2800
2400
BD00
ENDCHAR
STARTCHAR uni1EC9
ENCODING 7881
SWIDTH 246 0
DWIDTH 2 0
BBX 3 7 0 0
BITMAP
74
14
30
60
90
98
74
ENDCHAR
STARTCHAR uni1ECA
ENCODING 7882
SWIDTH 495 0
DWIDTH 4 0
BBX 5 9 0 -2
BITMAP
3F40
0C00
1C00
1800
2800
2400
BD00
0000
2000
ENDCHAR
STARTCHAR uni1ECB
ENCODING 7883
SWIDTH 246 0
DWIDTH 2 0
BBX 3 8 0 -2
BITMAP
20
00
60
90
98
74
00
90
ENDCHAR
STARTCHAR uni1ECC
ENCODING 7884
SWIDTH 816 0
DWIDTH 7 0
BBX 7 9 0 -2
BITMAP
0BD0
2870
7034
6034
6030
70A0
1F80
0000
0900
ENDCHAR
STARTCHAR uni1ECD
ENCODING 7885
SWIDTH 451 0
DWIDTH 4 0
BBX 5 6 0 -2
BITMAP
3D00
9B40
9900
7800
0000
2000
ENDCHAR
STARTCHAR uni1ECE
ENCODING 7886
SWIDTH 816 0
DWIDTH 7 0
BBX 7 9 0 0
BITMAP
02C0
0180
0BD0
2870
7034
6034
6030
70A0
1F80
ENDCHAR
STARTCHAR uni1ECF
ENCODING 7887
SWIDTH 451 0
DWIDTH 4 0
BBX 5 7 0 0
BITMAP
1C00
0900
1800
3D00
9B40
9900
7800
ENDCHAR
STARTCHAR uni1ED0
ENCODING 7888
SWIDTH 816 0
DWIDTH 7 0
BBX 7 11 0 0
BITMAP
0024
0290
0680
0000
0BD0
2870
7034
6034
6030
70A0
1F80
ENDCHAR
STARTCHAR uni1ED1
ENCODING 7889
SWIDTH 451 0
DWIDTH 4 0
BBX 5 8 0 0
BITMAP
0140
1D00
2900
0000
3D00
9B40
9900
7800
ENDCHAR
STARTCHAR uni1ED2
ENCODING 7890
SWIDTH 816 0
DWIDTH 7 0
BBX 7 11 0 0
BITMAP
0800
0680
0680
0000
0BD0
2870
7034
6034
6030
70A0
1F80
ENDCHAR
STARTCHAR uni1ED3
ENCODING 7891
SWIDTH 451 0
DWIDTH 4 0
BBX 5 8 0 0
BITMAP
8000
2C00
2900
0000
3D00
9B40
9900
7800
ENDCHAR
STARTCHAR uni1ED4
ENCODING 7892
SWIDTH 816 0
DWIDTH 7 0
BBX 7 10 0 0
BITMAP
0034
02A4
0680
0BD0
2870
7034
6034
6030
70A0
1F80
ENDCHAR
STARTCHAR uni1ED5
ENCODING 7893
SWIDTH 451 0
DWIDTH 4 0
BBX 5 7 0 0
BITMAP
0240
1A40
3900
7D00
9B40
9900
7800
ENDCHAR
STARTCHAR uni1ED6
ENCODING 7894
SWIDTH 816 0
DWIDTH 7 0
BBX 7 11 0 0
BITMAP
02A0
0180
0680
0000
0BD0
2870
7034
6034
6030
70A0
1F80
ENDCHAR
STARTCHAR uni1ED7
ENCODING 7895
SWIDTH 451 0
DWIDTH 4 0
BBX 5 8 0 0
BITMAP
2A00
1800
2900
0000
3D00
9B40
9900
7800
ENDCHAR
STARTCHAR uni1ED8
ENCODING 7896
SWIDTH 816 0
DWIDTH 7 0
BBX 7 13 0 -2
BITMAP
0140
03C0
0690
0000
0BD0
2870
7034
6034
6030
70A0
1F80
0000
0900
ENDCHAR
STARTCHAR uni1ED9
ENCODING 7897
SWIDTH 451 0
DWIDTH 4 0
BBX 5 10 0 -2
BITMAP
1C00
2900
2500
0000
3D00
9B40
9900
7800
0000
2000
ENDCHAR
STARTCHAR uni1EDA
ENCODING 7898
SWIDTH 816 0
DWIDTH 7 0
BBX 7 10 0 0
BITMAP
0070
0194
0018
0BF4
2870
7034
6034
6030
70A0
1F80
ENDCHAR
STARTCHAR uni1EDB
ENCODING 7899
SWIDTH 451 0
DWIDTH 4 0
BBX 5 8 0 0
BITMAP
0400
0900
1400
0200
3E00
9B40
9900
7800
ENDCHAR
STARTCHAR uni1EDC
ENCODING 7900
SWIDTH 816 0
DWIDTH 7 0
BBX 7 10 0 0
BITMAP
0800
0604
0018
0BF4
2870
7034
6034
6030
70A0
1F80
ENDCHAR
STARTCHAR uni1EDD
ENCODING 7901
SWIDTH 451 0
DWIDTH 4 0
BBX 5 8 0 0
BITMAP
5000
6000
2000
0200
3E00
9B40
9900
7800
ENDCHAR
STARTCHAR uni1EDE
ENCODING 7902
SWIDTH 816 0
DWIDTH 7 0
BBX 7 9 0 0
BITMAP
02C4
0198
0BF4
2870
7034
6034
6030
70A0
1F80
ENDCHAR
STARTCHAR uni1EDF
ENCODING 7903
SWIDTH 451 0
DWIDTH 4 0
BBX 5 7 0 0
BITMAP
2800
0800
1A00
3E00
9B40
9900
7800
ENDCHAR
STARTCHAR uni1EE0
ENCODING 7904
SWIDTH 816 0
DWIDTH 7 0
BBX 7 10 0 0
BITMAP
0110
0A94
0018
0BF4
2870
7034
6034
6030
70A0
1F80
ENDCHAR
STARTCHAR uni1EE1
ENCODING 7905
SWIDTH 451 0
DWIDTH 4 0
BBX 5 7 0 0
BITMAP
1100
7900
4600
3E00
9B40
9900
7800
ENDCHAR
STARTCHAR uni1EE2
ENCODING 7906
SWIDTH 816 0
DWIDTH 7 0
BBX 7 11 0 -2
BITMAP
0004
0018
0BF4
2870
7034
6034
6030
70A0
1F80
0000
0900
ENDCHAR
STARTCHAR uni1EE3
ENCODING 7907
SWIDTH 451 0
DWIDTH 4 0
BBX 5 7 0 -2
BITMAP
0200
3E00
9B40
9900
7800
0000
2000
ENDCHAR
STARTCHAR uni1EE4
ENCODING 7908
SWIDTH 890 0
DWIDTH 7 0
BBX 8 9 0 -2
BITMAP
7C18
9C28
0C24
1834
2870
29B6
1E2D
0000
0600
ENDCHAR
STARTCHAR uni1EE5
ENCODING 7909
SWIDTH 462 0
DWIDTH 4 0
BBX 5 6 0 -2
BITMAP
6500
5900
AD80
6A00
0000
2400
ENDCHAR
STARTCHAR uni1EE6
ENCODING 7910
SWIDTH 890 0
DWIDTH 7 0
BBX 8 9 0 0
BITMAP
01D0
00D0
7C18
9C28
0C24
1834
2870
29B6
1E2D
ENDCHAR
STARTCHAR uni1EE7
ENCODING 7911
SWIDTH 462 0
DWIDTH 4 0
BBX 5 7 0 0
BITMAP
1D00
0500
0C00
6500
5900
AD80
6A00
ENDCHAR
STARTCHAR uni1EE8
ENCODING 7912
SWIDTH 890 0
DWIDTH 7 0
BBX 8 10 0 0
BITMAP
0024
0091
0006
7C1D
9C28
0C24
1834
2870
29B6
1E2D
ENDCHAR
STARTCHAR uni1EE9
ENCODING 7913
SWIDTH 512 0
DWIDTH 4 0
BBX 5 8 0 0
BITMAP
0100
0600
0800
0140
6600
5900
AC80
6B40
ENDCHAR
STARTCHAR uni1EEA
ENCODING 7914
SWIDTH 890 0
DWIDTH 7 0
BBX 8 10 0 0
BITMAP
0900
0241
0006
7C1D
9C28
0C24
1834
2870
29B6
1E2D
ENDCHAR
STARTCHAR uni1EEB
ENCODING 7915
SWIDTH 512 0
DWIDTH 4 0
BBX 5 8 0 0
BITMAP
1000
3400
1800
0140
6600
5900
AC80
6B40
ENDCHAR
STARTCHAR uni1EEC
ENCODING 7916
SWIDTH 890 0
DWIDTH 7 0
BBX 8 9 0 0
BITMAP
01D1
00D6
7C1D
9C28
0C24
1834
2870
29B6
1E2D
ENDCHAR
STARTCHAR uni1EED
ENCODING 7917
SWIDTH 512 0
DWIDTH 4 0
BBX 5 7 0 0
BITMAP
1D00
0500
0D40
6600
5900
AC80
6B40
ENDCHAR
STARTCHAR uni1EEE
ENCODING 7918
SWIDTH 890 0
DWIDTH 7 0
BBX 8 10 0 0
BITMAP
0110
06A1
0006
7C1D
9C28
0C24
1834
2870
29B6
1E2D
ENDCHAR
STARTCHAR uni1EEF
ENCODING 7919
SWIDTH 512 0
DWIDTH 4 0
BBX 5 7 0 0
BITMAP
1100
2A00
1540
6600
5900
AD80
6B40
ENDCHAR
STARTCHAR uni1EF0
ENCODING 7920
SWIDTH 890 0
DWIDTH 7 0
BBX 8 11 0 -2
BITMAP
0001
0006
7C1D
9C28
0C24
1834
2870
29B6
1E2D
0000
0600
ENDCHAR
STARTCHAR uni1EF1
ENCODING 7921
SWIDTH 512 0
DWIDTH 4 0
BBX 5 7 0 -2
BITMAP
0140
6600
5900
AC80
6B40
0000
2400
ENDCHAR
STARTCHAR Ygrave
ENCODING 7922
SWIDTH 851 0
DWIDTH 7 0
BBX 8 13 0 -3
BITMAP
0900
0240
0000
7C18
8C28
0C24
1874
18B0
0E7A
01F4
0A60
0C90
0B80
ENDCHAR
STARTCHAR ygrave
ENCODING 7923
SWIDTH 479 0
DWIDTH 4 0
BBX 5 12 0 -4
BITMAP
1000
3400
1800
0000
6500
5900
AD80
6E00
2C00
6800
A400
A000
ENDCHAR
STARTCHAR uni1EF4
ENCODING 7924
SWIDTH 851 0
DWIDTH 7 0
BBX 8 10 0 -3
BITMAP
7C18
8C28
0C24
1874
18B0
0E7A
01F4
0A60
0C90
0B98
ENDCHAR
STARTCHAR uni1EF5
ENCODING 7925
SWIDTH 479 0
DWIDTH 4 0
BBX 5 8 0 -4
BITMAP
6500
5900
AD80
6E00
2C00
6800
A400
A600
ENDCHAR
STARTCHAR uni1EF6
ENCODING 7926
SWIDTH 851 0
DWIDTH 7 0
BBX 8 12 0 -3
BITMAP
00D0
0090
7C18
8C28
0C24
1874
18B0
0E7A
01F4
0A60
0C90
0B80
ENDCHAR
STARTCHAR uni1EF7
ENCODING 7927
SWIDTH 479 0
DWIDTH 4 0
BBX 5 11 0 -4
BITMAP
1D00
0500
0C00
6500
5900
AD80
6E00
2C00
6800
A400
A000
ENDCHAR
STARTCHAR uni1EF8
ENCODING 7928
SWIDTH 851 0
DWIDTH 7 0
BBX 8 13 0 -3
BITMAP
0150
02A0
0000
7C18
8C28
0C24
1874
18B0
0E7A
01F4
0A60
0C90
0B80
ENDCHAR
STARTCHAR uni1EF9
ENCODING 7929
SWIDTH 479 0
DWIDTH 4 0
BBX 5 11 0 -4
BITMAP
1100
2A00
0000
6500
5900
AD80
6E00
2C00
6800
A400
A000
ENDCHAR
STARTCHAR endash
ENCODING 8211
SWIDTH 484 0
DWIDTH 4 0
BBX 4 1 0 2
BITMAP
7D
ENDCHAR
STARTCHAR emdash
ENCODING 8212
SWIDTH 620 0
DWIDTH 5 0
BBX 5 1 0 2
BITMAP
7F40
ENDCHAR
STARTCHAR quoteleft
ENCODING 8216
SWIDTH 237 0
DWIDTH 2 0
BBX 2 3 1 5
BITMAP
90
C0
C0
ENDCHAR
STARTCHAR quoteright
ENCODING 8217
SWIDTH 236 0
DWIDTH 2 0
BBX 2 3 1 5
BITMAP
90
C0
80
ENDCHAR
STARTCHAR quotesinglbase
ENCODING 8218
SWIDTH 257 0
DWIDTH 2 0
BBX 2 3 0 -1
BITMAP
90
90
80
ENDCHAR
STARTCHAR quotedblleft
ENCODING 8220
SWIDTH 457 0
DWIDTH 4 0
BBX 3 3 1 5
BITMAP
98
DC
D8
ENDCHAR
STARTCHAR quotedblright
ENCODING 8221
SWIDTH 456 0
DWIDTH 4 0
BBX 3 3 1 5
BITMAP
9C
DC
94
ENDCHAR
STARTCHAR quotedblbase
ENCODING 8222
SWIDTH 477 0
DWIDTH 4 0
BBX 4 3 0 -1
BITMAP
99
9C
88
ENDCHAR
STARTCHAR dagger
ENCODING 8224
SWIDTH 588 0
DWIDTH 5 0
BBX 4 6 1 2
BITMAP
14
BD
20
30
30
20
ENDCHAR
STARTCHAR daggerdbl
ENCODING 8225
SWIDTH 588 0
DWIDTH 5 0
BBX 4 6 1 2
BITMAP
14
BD
20
20
FD
20
ENDCHAR
STARTCHAR bullet
ENCODING 8226
SWIDTH 512 0
DWIDTH 4 0
BBX 3 3 1 1
BITMAP
A0
F4
F0
ENDCHAR
STARTCHAR ellipsis
ENCODING 8230
SWIDTH 777 0
DWIDTH 6 0
BBX 6 2 0 0
BITMAP
5660
AA60
ENDCHAR
STARTCHAR perthousand
ENCODING 8240
SWIDTH 1277 0
DWIDTH 10 0
BBX 10 7 0 0
BITMAP
245000
5C9000
9F8000
264000
0669A0
099E70
0869A0
ENDCHAR
STARTCHAR guilsinglleft
ENCODING 8249
SWIDTH 350 0
DWIDTH 3 0
BBX 3 3 0 0
BITMAP
24
A0
24
ENDCHAR
STARTCHAR guilsinglright
ENCODING 8250
SWIDTH 350 0
DWIDTH 3 0
BBX 3 3 0 0
BITMAP
60
28
60
ENDCHAR
STARTCHAR fraction
ENCODING 8260
SWIDTH 200 0
DWIDTH 2 0
BBX 4 6 -1 1
BITMAP
01
09
0C
24
60
90
ENDCHAR
STARTCHAR uni2074
ENCODING 8308
SWIDTH 450 0
DWIDTH 4 0
BBX 4 4 0 3
BITMAP
18
29
7E
08
ENDCHAR
STARTCHAR colonmonetary
ENCODING 8353
SWIDTH 517 0
DWIDTH 4 0
BBX 5 7 0 -1
BITMAP
0140
2F40
6B00
A800
6900
7D00
A000
ENDCHAR
STARTCHAR franc
ENCODING 8355
SWIDTH 750 0
DWIDTH 6 0
BBX 6 5 0 0
BITMAP
7F80
6090
7EE0
9760
9600
ENDCHAR
STARTCHAR lira
ENCODING 8356
SWIDTH 525 0
DWIDTH 4 0
BBX 4 5 0 0
BITMAP
1E
32
BC
B8
BF
ENDCHAR
STARTCHAR uni20A6
ENCODING 8358
SWIDTH 672 0
DWIDTH 5 0
BBX 5 5 0 0
BITMAP
2480
3880
BFC0
BFC0
6240
ENDCHAR
STARTCHAR peseta
ENCODING 8359
SWIDTH 1085 0
DWIDTH 9 0
BBX 9 5 0 0
BITMAP
7D5000
67F600
69C700
A4DA40
90B740
ENDCHAR
STARTCHAR uni20A9
ENCODING 8361
SWIDTH 775 0
DWIDTH 6 0
BBX 7 5 0 0
BITMAP
2220
BFF4
3A90
3A80
2640
ENDCHAR
STARTCHAR dong
ENCODING 8363
SWIDTH 463 0
DWIDTH 4 0
BBX 5 7 0 -1
BITMAP
0300
7F40
2E00
A900
9D00
7C00
BD00
ENDCHAR
STARTCHAR Euro
ENCODING 8364
SWIDTH 552 0
DWIDTH 4 0
BBX 5 5 0 0
BITMAP
1E00
3240
B900
7500
2E00
ENDCHAR
STARTCHAR uni20AD
ENCODING 8365
SWIDTH 590 0
DWIDTH 5 0
BBX 5 5 0 0
BITMAP
3140
3600
BE40
6900
5380
ENDCHAR
STARTCHAR uni20AE
ENCODING 8366
SWIDTH 513 0
DWIDTH 4 0
BBX 4 5 0 0
BITMAP
7F
18
29
24
24
ENDCHAR
STARTCHAR uni20B1
ENCODING 8369
SWIDTH 557 0
DWIDTH 4 0
BBX 5 5 0 0
BITMAP
7E00
BF40
BF40
7900
6000
ENDCHAR
STARTCHAR uni20B2
ENCODING 8370
SWIDTH 599 0
DWIDTH 5 0
BBX 5 7 0 -1
BITMAP
0800
2E00
6A00
9800
AA40
2F40
1500
ENDCHAR
STARTCHAR uni20B4
ENCODING 8372
SWIDTH 570 0
DWIDTH 5 0
BBX 5 5 0 0
BITMAP
2E00
7F40
BF40
6200
2E00
ENDCHAR
STARTCHAR uni20B5
ENCODING 8373
SWIDTH 517 0
DWIDTH 4 0
BBX 4 7 0 -1
BITMAP
08
1E
6B
98
A9
2D
14
ENDCHAR
STARTCHAR uni20B8
ENCODING 8376
SWIDTH 522 0
DWIDTH 4 0
BBX 4 5 0 0
BITMAP
7F
7F
18
14
24
ENDCHAR
STARTCHAR uni20B9
ENCODING 8377
SWIDTH 511 0
DWIDTH 4 0
BBX 5 5 0 0
BITMAP
7F40
7F00
B400
2800
0A00
ENDCHAR
STARTCHAR uni20BA
ENCODING 8378
SWIDTH 452 0
DWIDTH 4 0
BBX 4 5 0 0
BITMAP
34
78
B4
A1
78
ENDCHAR
STARTCHAR uni20BC
ENCODING 8380
SWIDTH 673 0
DWIDTH 5 0
BBX 5 6 0 0
BITMAP
0100
0A00
3A80
65C0
98C0
88C0
ENDCHAR
STARTCHAR uni20BD
ENCODING 8381
SWIDTH 505 0
DWIDTH 4 0
BBX 4 5 0 0
BITMAP
7D
37
36
B9
B8
ENDCHAR
STARTCHAR uni2116
ENCODING 8470
SWIDTH 1198 0
DWIDTH 10 0
BBX 10 7 0 0
BITMAP
26E2D0
2D7690
387280
346000
30ABC0
709000
609000
ENDCHAR
STARTCHAR trademark
ENCODING 8482
SWIDTH 1150 0
DWIDTH 9 0
BBX 8 4 1 3
BITMAP
FAAA
6376
5226
4111
ENDCHAR
STARTCHAR partialdiff
ENCODING 8706
SWIDTH 451 0
DWIDTH 4 0
BBX 4 7 0 0
BITMAP
10
18
09
2E
96
99
68
ENDCHAR
STARTCHAR product
ENCODING 8719
SWIDTH 700 0
DWIDTH 6 0
BBX 6 7 0 0
BITMAP
2FD0
2490
3090
30C0
60C0
6180
5180
ENDCHAR
STARTCHAR summation
ENCODING 8721
SWIDTH 700 0
DWIDTH 6 0
BBX 6 7 0 0
BITMAP
2FD0
1C00
0600
0240
0A00
2800
7F80
ENDCHAR
STARTCHAR minus
ENCODING 8722
SWIDTH 700 0
DWIDTH 6 0
BBX 5 1 0 2
BITMAP
7FC0
ENDCHAR
STARTCHAR uni2215
ENCODING 8725
SWIDTH 700 0
DWIDTH 6 0
BBX 4 8 1 0
BITMAP
01
03
0A
0C
24
70
90
80
ENDCHAR
STARTCHAR uni2219
ENCODING 8729
SWIDTH 700 0
DWIDTH 6 0
BBX 2 1 2 2
BITMAP
90
ENDCHAR
STARTCHAR radical
ENCODING 8730
SWIDTH 700 0
DWIDTH 6 0
BBX 6 7 0 0
BITMAP
0020
0050
0080
7180
1600
0E00
0800
ENDCHAR
STARTCHAR infinity
ENCODING 8734
SWIDTH 700 0
DWIDTH 6 0
BBX 6 3 0 1
BITMAP
7AC0
9A90
7AC0
ENDCHAR
STARTCHAR integral
ENCODING 8747
SWIDTH 700 0
DWIDTH 6 0
BBX 6 10 0 -2
BITMAP
02D0
0700
0600
0600
0900
0900
0900
0C00
0C00
7400
ENDCHAR
STARTCHAR approxequal
ENCODING 8776
SWIDTH 700 0
DWIDTH 6 0
BBX 5 4 0 0
BITMAP
2980
1280
3880
5740
ENDCHAR
STARTCHAR notequal
ENCODING 8800
SWIDTH 700 0
DWIDTH 6 0
BBX 5 5 0 0
BITMAP
0200
3FC0
0900
7F80
1400
ENDCHAR
STARTCHAR lessequal
ENCODING 8804
SWIDTH 700 0
DWIDTH 6 0
BBX 5 5 0 0
BITMAP
0140
2A40
2A40
0140
7F80
ENDCHAR
STARTCHAR greaterequal
ENCODING 8805
SWIDTH 700 0
DWIDTH 6 0
BBX 5 5 0 0
BITMAP
1400
1A80
1A40
1000
7F80
ENDCHAR
STARTCHAR lozenge
ENCODING 9674
SWIDTH 700 0
DWIDTH 6 0
BBX 4 8 1 0
BITMAP
04
1C
25
92
C2
99
68
34
ENDCHAR
STARTCHAR fi
ENCODING 64257
SWIDTH 633 0
DWIDTH 5 0
BBX 6 11 0 -3
BITMAP
0A00
1A00
2680
3800
BF80
6580
6A60
69D0
6800
6800
2400
ENDCHAR
STARTCHAR fl
ENCODING 64258
SWIDTH 688 0
DWIDTH 6 0
BBX 7 11 0 -3
BITMAP
0970
16A4
36A4
3AA0
76A0
62C0
AF44
A5E0
A400
6400
3400
ENDCHAR
STARTCHAR .notdef
ENCODING -1
SWIDTH 265 0
DWIDTH 2 0
BBX 1 1 0 0
BITMAP
00
ENDCHAR
STARTCHAR Iacute_J.loclNLD
ENCODING -1
SWIDTH 776 0
DWIDTH 6 0
BBX 7 10 1 0
BITMAP
1C24
24A0
0000
9080
D1C0
C280
C780
BE40
4300
BD00
ENDCHAR
STARTCHAR A.ss01
ENCODING -1
SWIDTH 780 0
DWIDTH 6 0
BBX 7 7 0 0
BITMAP
06F4
1D20
3460
60A0
A0D0
61D0
2EC0
ENDCHAR
STARTCHAR Aacute.ss01
ENCODING -1
SWIDTH 780 0
DWIDTH 6 0
BBX 7 10 0 0
BITMAP
0018
0060
0000
06F4
1D20
3460
60A0
A0D0
61D0
2EC0
ENDCHAR
STARTCHAR Abreve.ss01
ENCODING -1
SWIDTH 780 0
DWIDTH 6 0
BBX 7 9 0 0
BITMAP
0104
01E4
06F4
1D20
3460
60A0
A0D0
61D0
2EC0
ENDCHAR
STARTCHAR uni1EAE.ss01
ENCODING -1
SWIDTH 780 0
DWIDTH 6 0
BBX 7 10 0 0
BITMAP
0020
0154
01E0
06F4
1D20
3460
60A0
A0D0
61D0
2EC0
ENDCHAR
STARTCHAR uni1EB6.ss01
ENCODING -1
SWIDTH 780 0
DWIDTH 6 0
BBX 7 11 0 -2
BITMAP
0104
01E4
06F4
1D20
3460
60A0
A0D0
61D0
2EC0
0000
0900
ENDCHAR
STARTCHAR uni1EB0.ss01
ENCODING -1
SWIDTH 780 0
DWIDTH 6 0
BBX 7 10 0 0
BITMAP
0080
0154
01A0
06F4
1D20
3460
60A0
A0D0
61D0
2EC0
ENDCHAR
STARTCHAR uni1EB2.ss01
ENCODING -1
SWIDTH 780 0
DWIDTH 6 0
BBX 7 10 0 0
BITMAP
00A0
01A0
01E4
06F4
1D20
3460
60A0
A0D0
61D0
2EC0
ENDCHAR
STARTCHAR uni1EB4.ss01
ENCODING -1
SWIDTH 780 0
DWIDTH 6 0
BBX 7 11 0 0
BITMAP
0044
0164
0114
01A0
06F4
1D20
3460
60A0
A0D0
61D0
2EC0
ENDCHAR
STARTCHAR Acircumflex.ss01
ENCODING -1
SWIDTH 780 0
DWIDTH 6 0
BBX 7 11 0 0
BITMAP
0050
00F0
0160
0000
06F4
1D20
3460
60A0
A0D0
61D0
2EC0
ENDCHAR
STARTCHAR uni1EA4.ss01
ENCODING -1
SWIDTH 780 0
DWIDTH 6 0
BBX 8 11 0 0
BITMAP
0009
00A4
01A0
0000
06F4
1D20
3460
60A0
A0D0
61D0
2EC0
ENDCHAR
STARTCHAR uni1EAC.ss01
ENCODING -1
SWIDTH 780 0
DWIDTH 6 0
BBX 7 13 0 -2
BITMAP
0050
00F0
0160
0000
06F4
1D20
3460
60A0
A0D0
61D0
2EC0
0000
0900
ENDCHAR
STARTCHAR uni1EA6.ss01
ENCODING -1
SWIDTH 780 0
DWIDTH 6 0
BBX 7 11 0 0
BITMAP
0600
01A0
01A0
0000
06F4
1D20
3460
60A0
A0D0
61D0
2EC0
ENDCHAR
STARTCHAR uni1EA8.ss01
ENCODING -1
SWIDTH 780 0
DWIDTH 6 0
BBX 8 10 0 0
BITMAP
000D
00A9
01B0
07F4
1D20
3460
60A0
A0D0
61D0
2EC0
ENDCHAR
STARTCHAR uni1EAA.ss01
ENCODING -1
SWIDTH 780 0
DWIDTH 6 0
BBX 7 11 0 0
BITMAP
01A4
0060
01A0
0000
06F4
1D20
3460
60A0
A0D0
61D0
2EC0
ENDCHAR
STARTCHAR uni0200.ss01
ENCODING -1
SWIDTH 780 0
DWIDTH 6 0
BBX 7 10 0 0
BITMAP
0260
0160
0000
06F4
1D20
3460
60A0
A0D0
61D0
2EC0
ENDCHAR
STARTCHAR Adieresis.ss01
ENCODING -1
SWIDTH 780 0
DWIDTH 6 0
BBX 7 9 0 0
BITMAP
0164
0000
06F4
1D20
3460
60A0
A0D0
61D0
2EC0
ENDCHAR
STARTCHAR uni1EA0.ss01
ENCODING -1
SWIDTH 780 0
DWIDTH 6 0
BBX 7 9 0 -2
BITMAP
06F4
1D20
3460
60A0
A0D0
61D0
2EC0
0000
0900
ENDCHAR
STARTCHAR Agrave.ss01
ENCODING -1
SWIDTH 780 0
DWIDTH 6 0
BBX 7 10 0 0
BITMAP
0600
0180
0000
06F4
1D20
3460
60A0
A0D0
61D0
2EC0
ENDCHAR
STARTCHAR uni1EA2.ss01
ENCODING -1
SWIDTH 780 0
DWIDTH 6 0
BBX 7 9 0 0
BITMAP
00A0
0060
06F4
1D20
3460
60A0
A0D0
61D0
2EC0
ENDCHAR
STARTCHAR uni0202.ss01
ENCODING -1
SWIDTH 780 0
DWIDTH 6 0
BBX 7 9 0 0
BITMAP
01A0
0254
06F4
1D20
3460
60A0
A0D0
61D0
2EC0
ENDCHAR
STARTCHAR Amacron.ss01
ENCODING -1
SWIDTH 780 0
DWIDTH 6 0
BBX 7 8 0 0
BITMAP
01F0
06F4
1D20
3460
60A0
A0D0
61D0
2EC0
ENDCHAR
STARTCHAR Aogonek.ss01
ENCODING -1
SWIDTH 780 0
DWIDTH 6 0
BBX 7 9 0 -2
BITMAP
06F4
1D20
3460
60A0
A0D0
61D0
2EC0
0140
01D0
ENDCHAR
STARTCHAR Aring.ss01
ENCODING -1
SWIDTH 780 0
DWIDTH 6 0
BBX 7 10 0 0
BITMAP
00A0
00A0
00A0
06F4
1D20
3460
60A0
A0D0
61D0
2EC0
ENDCHAR
STARTCHAR Aringacute.ss01
ENCODING -1
SWIDTH 780 0
DWIDTH 6 0
BBX 8 11 0 0
BITMAP
0006
00A4
00A0
0000
06F4
1D20
3460
60A0
A0D0
61D0
2EC0
ENDCHAR
STARTCHAR Atilde.ss01
ENCODING -1
SWIDTH 780 0
DWIDTH 6 0
BBX 7 10 0 0
BITMAP
0044
02A4
0000
06F4
1D20
3460
60A0
A0D0
61D0
2EC0
ENDCHAR
STARTCHAR AE.ss01
ENCODING -1
SWIDTH 1057 0
DWIDTH 8 0
BBX 9 7 0 0
BITMAP
06AF40
1D3000
306000
60BF00
A0D000
61E000
2E2F40
ENDCHAR
STARTCHAR AEacute.ss01
ENCODING -1
SWIDTH 1057 0
DWIDTH 8 0
BBX 9 10 0 0
BITMAP
000600
001800
000000
06AF40
1D3000
306000
60BF00
A0D000
61E000
2E2F40
ENDCHAR
STARTCHAR B.ss01
ENCODING -1
SWIDTH 826 0
DWIDTH 7 0
BBX 7 7 0 0
BITMAP
1FE0
1434
2474
37D0
3070
70A0
7F80
ENDCHAR
STARTCHAR C.ss01
ENCODING -1
SWIDTH 704 0
DWIDTH 6 0
BBX 6 7 0 0
BITMAP
0BD0
28A0
7050
6000
6000
7450
1F80
ENDCHAR
STARTCHAR Cacute.ss01
ENCODING -1
SWIDTH 704 0
DWIDTH 6 0
BBX 6 10 0 0
BITMAP
0060
0190
0000
0BD0
28A0
7050
6000
6000
7450
1F80
ENDCHAR
STARTCHAR Ccaron.ss01
ENCODING -1
SWIDTH 704 0
DWIDTH 6 0
BBX 6 10 0 0
BITMAP
0250
0280
0000
0BD0
28A0
7050
6000
6000
7450
1F80
ENDCHAR
STARTCHAR Ccedilla.ss01
ENCODING -1
SWIDTH 704 0
DWIDTH 6 0
BBX 6 9 0 -2
BITMAP
0BD0
28A0
7050
6000
6000
3450
1F40
0300
1E00
ENDCHAR
STARTCHAR Ccircumflex.ss01
ENCODING -1
SWIDTH 704 0
DWIDTH 6 0
BBX 6 11 0 0
BITMAP
0140
03C0
0690
0000
0BD0
28A0
7050
6000
6000
7450
1F80
ENDCHAR
STARTCHAR Cdotaccent.ss01
ENCODING -1
SWIDTH 704 0
DWIDTH 6 0
BBX 6 9 0 0
BITMAP
0140
0000
0BD0
28A0
7050
6000
6000
7450
1F80
ENDCHAR
STARTCHAR D.ss01
ENCODING -1
SWIDTH 810 0
DWIDTH 6 0
BBX 7 7 0 0
BITMAP
1F90
1470
2434
3434
3030
71A0
7E40
ENDCHAR
STARTCHAR uni01C4.ss01
ENCODING -1
SWIDTH 1455 0
DWIDTH 12 0
BBX 12 10 0 0
BITMAP
000059
000028
000000
1F92FE
14700D
243428
343470
3031D0
71A380
7E4BFD
ENDCHAR
STARTCHAR Eth.ss01
ENCODING -1
SWIDTH 821 0
DWIDTH 7 0
BBX 7 7 0 0
BITMAP
0F90
1870
2824
BE24
3030
30A0
7F40
ENDCHAR
STARTCHAR Dcaron.ss01
ENCODING -1
SWIDTH 810 0
DWIDTH 6 0
BBX 7 10 0 0
BITMAP
0580
0240
0000
1F90
1470
2434
3434
3030
71A0
7E40
ENDCHAR
STARTCHAR Dcroat.ss01
ENCODING -1
SWIDTH 821 0
DWIDTH 7 0
BBX 7 7 0 0
BITMAP
0F90
1870
2824
BE24
3030
30A0
7F40
ENDCHAR
STARTCHAR E.ss01
ENCODING -1
SWIDTH 720 0
DWIDTH 6 0
BBX 6 7 0 0
BITMAP
1BD0
3460
3450
2E00
6000
A050
2F80
ENDCHAR
STARTCHAR Eacute.ss01
ENCODING -1
SWIDTH 720 0
DWIDTH 6 0
BBX 6 10 0 0
BITMAP
0060
0180
0000
1BD0
3460
3450
2E00
6000
A050
2F80
ENDCHAR
STARTCHAR Ebreve.ss01
ENCODING -1
SWIDTH 720 0
DWIDTH 6 0
BBX 6 9 0 0
BITMAP
0450
0780
1BD0
3460
3450
2E00
6000
A050
2F80
ENDCHAR
STARTCHAR Ecaron.ss01
ENCODING -1
SWIDTH 720 0
DWIDTH 6 0
BBX 6 10 0 0
BITMAP
0580
0240
0000
1BD0
3460
3450
2E00
6000
A050
2F80
ENDCHAR
STARTCHAR Ecircumflex.ss01
ENCODING -1
SWIDTH 720 0
DWIDTH 6 0
BBX 6 11 0 0
BITMAP
0140
0380
0980
0000
1BD0
3460
3450
2E00
6000
A050
2F80
ENDCHAR
STARTCHAR uni1EBE.ss01
ENCODING -1
SWIDTH 720 0
DWIDTH 6 0
BBX 6 11 0 0
BITMAP
0020
0290
0680
0000
1BD0
3460
3450
2E00
6000
A050
2F80
ENDCHAR
STARTCHAR uni1EC6.ss01
ENCODING -1
SWIDTH 720 0
DWIDTH 6 0
BBX 6 13 0 -2
BITMAP
0140
0380
0980
0000
1BD0
3460
3450
2E00
6000
A050
2F80
0000
0900
ENDCHAR
STARTCHAR uni1EC0.ss01
ENCODING -1
SWIDTH 720 0
DWIDTH 6 0
BBX 6 11 0 0
BITMAP
1800
0680
0680
0000
1BD0
3460
3450
2E00
6000
A050
2F80
ENDCHAR
STARTCHAR uni1EC2.ss01
ENCODING -1
SWIDTH 720 0
DWIDTH 6 0
BBX 6 10 0 0
BITMAP
0070
02B0
06C0
1FD0
3460
3450
2E00
6000
A050
2F80
ENDCHAR
STARTCHAR uni1EC4.ss01
ENCODING -1
SWIDTH 720 0
DWIDTH 6 0
BBX 6 11 0 0
BITMAP
0690
0140
0580
0000
1BD0
3460
3450
2E00
6000
A050
2F80
ENDCHAR
STARTCHAR uni0204.ss01
ENCODING -1
SWIDTH 720 0
DWIDTH 6 0
BBX 6 10 0 0
BITMAP
0940
0580
0000
1BD0
3460
3450
2E00
6000
A050
2F80
ENDCHAR
STARTCHAR Edieresis.ss01
ENCODING -1
SWIDTH 720 0
DWIDTH 6 0
BBX 6 9 0 0
BITMAP
0580
0000
1BD0
3460
3450
2E00
6000
A050
2F80
ENDCHAR
STARTCHAR Edotaccent.ss01
ENCODING -1
SWIDTH 720 0
DWIDTH 6 0
BBX 6 9 0 0
BITMAP
0240
0000
1BD0
3460
3450
2E00
6000
A050
2F80
ENDCHAR
STARTCHAR uni1EB8.ss01
ENCODING -1
SWIDTH 720 0
DWIDTH 6 0
BBX 6 9 0 -2
BITMAP
1BD0
3460
3450
2E00
6000
A050
2F80
0000
0900
ENDCHAR
STARTCHAR Egrave.ss01
ENCODING -1
SWIDTH 720 0
DWIDTH 6 0
BBX 6 10 0 0
BITMAP
1800
0600
0000
1BD0
3460
3450
2E00
6000
A050
2F80
ENDCHAR
STARTCHAR uni1EBA.ss01
ENCODING -1
SWIDTH 720 0
DWIDTH 6 0
BBX 6 9 0 0
BITMAP
0280
0280
1BD0
3460
3450
2E00
6000
A050
2F80
ENDCHAR
STARTCHAR uni0206.ss01
ENCODING -1
SWIDTH 720 0
DWIDTH 6 0
BBX 6 9 0 0
BITMAP
0780
0850
1BD0
3460
3450
2E00
6000
A050
2F80
ENDCHAR
STARTCHAR Emacron.ss01
ENCODING -1
SWIDTH 720 0
DWIDTH 6 0
BBX 6 8 0 0
BITMAP
07C0
1BD0
3460
3450
2E00
6000
A050
2F80
ENDCHAR
STARTCHAR Eogonek.ss01
ENCODING -1
SWIDTH 720 0
DWIDTH 6 0
BBX 6 9 0 -2
BITMAP
1BD0
3460
3450
2E00
6000
A050
2F80
0500
0740
ENDCHAR
STARTCHAR uni1EBC.ss01
ENCODING -1
SWIDTH 720 0
DWIDTH 6 0
BBX 6 10 0 0
BITMAP
0510
0A90
0000
1BD0
3460
3450
2E00
6000
A050
2F80
ENDCHAR
STARTCHAR F.ss01
ENCODING -1
SWIDTH 671 0
DWIDTH 5 0
BBX 6 7 0 0
BITMAP
3FE0
1C00
1800
7F80
2400
3400
3000
ENDCHAR
STARTCHAR G.ss01
ENCODING -1
SWIDTH 811 0
DWIDTH 6 0
BBX 6 9 0 -2
BITMAP
0BD0
2860
7060
6000
60F0
3430
1FF0
0060
0050
ENDCHAR
STARTCHAR Gbreve.ss01
ENCODING -1
SWIDTH 811 0
DWIDTH 6 0
BBX 6 11 0 -2
BITMAP
0510
07D0
0BD0
2860
7060
6000
60F0
3430
1FF0
0060
0050
ENDCHAR
STARTCHAR Gcaron.ss01
ENCODING -1
SWIDTH 811 0
DWIDTH 6 0
BBX 6 12 0 -2
BITMAP
0250
0280
0000
0BD0
2860
7060
6000
60F0
3430
1FF0
0060
0050
ENDCHAR
STARTCHAR Gcircumflex.ss01
ENCODING -1
SWIDTH 811 0
DWIDTH 6 0
BBX 6 13 0 -2
BITMAP
0040
02C0
0650
0000
0BD0
2860
7060
6000
60F0
3430
1FF0
0060
0050
ENDCHAR
STARTCHAR uni0122.ss01
ENCODING -1
SWIDTH 811 0
DWIDTH 6 0
BBX 6 9 0 -2
BITMAP
0BD0
2860
7060
6000
60F0
3430
1FF0
0560
0550
ENDCHAR
STARTCHAR Gdotaccent.ss01
ENCODING -1
SWIDTH 811 0
DWIDTH 6 0
BBX 6 11 0 -2
BITMAP
0180
0000
0BD0
2860
7060
6000
60F0
3430
1FF0
0060
0050
ENDCHAR
STARTCHAR H.ss01
ENCODING -1
SWIDTH 846 0
DWIDTH 7 0
BBX 7 7 0 0
BITMAP
1824
2834
2430
7FF8
3060
3060
6090
ENDCHAR
STARTCHAR Hbar.ss01
ENCODING -1
SWIDTH 856 0
DWIDTH 7 0
BBX 7 7 0 0
BITMAP
1824
3FF8
2430
7FF8
3060
3060
2050
ENDCHAR
STARTCHAR Hcircumflex.ss01
ENCODING -1
SWIDTH 846 0
DWIDTH 7 0
BBX 7 11 0 0
BITMAP
0040
02D0
0650
0000
1824
2834
2430
7FF8
3060
3060
6090
ENDCHAR
STARTCHAR I.ss01
ENCODING -1
SWIDTH 357 0
DWIDTH 3 0
BBX 3 7 0 0
BITMAP
18
24
24
30
30
70
60
ENDCHAR
STARTCHAR Iacute.ss01
ENCODING -1
SWIDTH 357 0
DWIDTH 3 0
BBX 4 10 0 0
BITMAP
03
09
00
18
24
24
30
30
70
60
ENDCHAR
STARTCHAR Iacute_J.loclNLD.ss01
ENCODING -1
SWIDTH 776 0
DWIDTH 6 0
BBX 7 10 1 0
BITMAP
1C24
24A0
0000
9080
D1C0
C280
C780
BE40
4300
BD00
ENDCHAR
STARTCHAR Ibreve.ss01
ENCODING -1
SWIDTH 357 0
DWIDTH 3 0
BBX 4 9 0 0
BITMAP
11
2D
18
24
24
30
30
70
60
ENDCHAR
STARTCHAR Icircumflex.ss01
ENCODING -1
SWIDTH 357 0
DWIDTH 3 0
BBX 4 11 0 0
BITMAP
04
2D
25
00
18
24
24
30
30
70
60
ENDCHAR
STARTCHAR uni0208.ss01
ENCODING -1
SWIDTH 357 0
DWIDTH 3 0
BBX 3 10 0 0
BITMAP
58
28
00
18
24
24
30
30
70
60
ENDCHAR
STARTCHAR Idieresis.ss01
ENCODING -1
SWIDTH 357 0
DWIDTH 3 0
BBX 4 9 0 0
BITMAP
25
00
18
24
24
30
30
70
60
ENDCHAR
STARTCHAR Idotaccent.ss01
ENCODING -1
SWIDTH 357 0
DWIDTH 3 0
BBX 3 9 0 0
BITMAP
18
00
18
24
24
30
30
70
60
ENDCHAR
STARTCHAR uni1ECA.ss01
ENCODING -1
SWIDTH 357 0
DWIDTH 3 0
BBX 3 9 0 -2
BITMAP
18
24
24
30
30
70
60
00
50
ENDCHAR
STARTCHAR Igrave.ss01
ENCODING -1
SWIDTH 357 0
DWIDTH 3 0
BBX 3 10 0 0
BITMAP
D0
64
00
18
24
24
30
30
70
60
ENDCHAR
STARTCHAR uni1EC8.ss01
ENCODING -1
SWIDTH 357 0
DWIDTH 3 0
BBX 4 9 0 0
BITMAP
1D
0C
18
24
24
30
30
70
60
ENDCHAR
STARTCHAR uni020A.ss01
ENCODING -1
SWIDTH 357 0
DWIDTH 3 0
BBX 4 9 0 0
BITMAP
2D
52
18
24
24
30
30
70
60
ENDCHAR
STARTCHAR Imacron.ss01
ENCODING -1
SWIDTH 357 0
DWIDTH 3 0
BBX 4 8 0 0
BITMAP
3D
18
24
24
30
30
70
60
ENDCHAR
STARTCHAR Iogonek.ss01
ENCODING -1
SWIDTH 357 0
DWIDTH 3 0
BBX 3 9 0 -2
BITMAP
18
24
24
30
30
70
60
80
B4
ENDCHAR
STARTCHAR Itilde.ss01
ENCODING -1
SWIDTH 357 0
DWIDTH 3 0
BBX 4 10 0 0
BITMAP
11
6A
00
18
24
24
30
30
70
60
ENDCHAR
STARTCHAR J.ss01
ENCODING -1
SWIDTH 716 0
DWIDTH 6 0
BBX 6 7 0 0
BITMAP
2FE0
60D0
60C0
00C0
0180
6240
2E00
ENDCHAR
STARTCHAR Jcircumflex.ss01
ENCODING -1
SWIDTH 716 0
DWIDTH 6 0
BBX 6 11 0 0
BITMAP
0140
0780
0980
0000
2FE0
60D0
60C0
00C0
0180
6240
2E00
ENDCHAR
STARTCHAR K.ss01
ENCODING -1
SWIDTH 779 0
DWIDTH 6 0
BBX 6 7 0 0
BITMAP
1830
28A0
25C0
7E00
3340
7280
60B0
ENDCHAR
STARTCHAR uni0136.ss01
ENCODING -1
SWIDTH 779 0
DWIDTH 6 0
BBX 6 9 0 -2
BITMAP
1830
28A0
25C0
7E00
3340
7280
60B0
0500
0800
ENDCHAR
STARTCHAR L.ss01
ENCODING -1
SWIDTH 625 0
DWIDTH 5 0
BBX 5 7 0 0
BITMAP
1800
2400
3400
3000
3000
7000
7F80
ENDCHAR
STARTCHAR uni01C7.ss01
ENCODING -1
SWIDTH 1291 0
DWIDTH 10 0
BBX 11 7 0 0
BITMAP
180BF4
242470
342460
3000A0
300090
7024C0
7F9F40
ENDCHAR
STARTCHAR Lacute.ss01
ENCODING -1
SWIDTH 625 0
DWIDTH 5 0
BBX 5 10 0 0
BITMAP
0300
0900
0000
1800
2400
3400
3000
3000
7000
7F80
ENDCHAR
STARTCHAR Lcaron.ss01
ENCODING -1
SWIDTH 625 0
DWIDTH 5 0
BBX 5 7 0 0
BITMAP
1880
2480
3400
3000
3000
7000
7F80
ENDCHAR
STARTCHAR uni013B.ss01
ENCODING -1
SWIDTH 625 0
DWIDTH 5 0
BBX 5 9 0 -2
BITMAP
1800
2400
3400
3000
3000
7000
7F80
0800
0800
ENDCHAR
STARTCHAR Ldot.ss01
ENCODING -1
SWIDTH 625 0
DWIDTH 5 0
BBX 5 7 0 0
BITMAP
1800
2400
3400
3240
3000
7000
7F80
ENDCHAR
STARTCHAR uni01C8.ss01
ENCODING -1
SWIDTH 854 0
DWIDTH 7 0
BBX 7 11 0 -4
BITMAP
1800
2418
3400
3018
3018
7024
7FA4
0070
01B0
0260
02C0
ENDCHAR
STARTCHAR Lslash.ss01
ENCODING -1
SWIDTH 625 0
DWIDTH 5 0
BBX 5 7 0 0
BITMAP
1800
2500
3D00
B400
7000
7000
7F80
ENDCHAR
STARTCHAR M.ss01
ENCODING -1
SWIDTH 1139 0
DWIDTH 9 0
BBX 9 7 0 0
BITMAP
26DB40
29A580
38B280
34A240
30D340
70C300
60C300
ENDCHAR
STARTCHAR N.ss01
ENCODING -1
SWIDTH 799 0
DWIDTH 6 0
BBX 6 7 0 0
BITMAP
26E0
2970
3870
3460
30A0
7090
6090
ENDCHAR
STARTCHAR uni01CA.ss01
ENCODING -1
SWIDTH 1515 0
DWIDTH 12 0
BBX 12 7 0 0
BITMAP
26E1BE
297306
38720A
346009
30A00D
70921C
6091F4
ENDCHAR
STARTCHAR Nacute.ss01
ENCODING -1
SWIDTH 799 0
DWIDTH 6 0
BBX 6 10 0 0
BITMAP
0060
0190
0000
26E0
2970
3870
3460
30A0
7090
6090
ENDCHAR
STARTCHAR Ncaron.ss01
ENCODING -1
SWIDTH 799 0
DWIDTH 6 0
BBX 6 10 0 0
BITMAP
0290
0280
0000
26E0
2970
3870
3460
30A0
7090
6090
ENDCHAR
STARTCHAR uni0145.ss01
ENCODING -1
SWIDTH 799 0
DWIDTH 6 0
BBX 6 9 0 -2
BITMAP
26E0
2970
3870
3460
30A0
7090
6090
0500
0800
ENDCHAR
STARTCHAR Eng.ss01
ENCODING -1
SWIDTH 792 0
DWIDTH 6 0
BBX 6 10 0 -3
BITMAP
26E0
2970
3860
34A0
3090
70D0
60C0
0180
2240
2E00
ENDCHAR
STARTCHAR uni01CB.ss01
ENCODING -1
SWIDTH 1008 0
DWIDTH 8 0
BBX 8 11 0 -4
BITMAP
26E0
2972
3870
3462
30A6
7096
6095
000D
0028
0058
0074
ENDCHAR
STARTCHAR Ntilde.ss01
ENCODING -1
SWIDTH 799 0
DWIDTH 6 0
BBX 6 10 0 0
BITMAP
0110
0A90
0000
26E0
2970
3870
3460
30A0
7090
6090
ENDCHAR
STARTCHAR OE.ss01
ENCODING -1
SWIDTH 1166 0
DWIDTH 9 0
BBX 10 7 0 0
BITMAP
0BDBD0
287C00
703800
603F80
603400
70B800
1F9BD0
ENDCHAR
STARTCHAR P.ss01
ENCODING -1
SWIDTH 662 0
DWIDTH 5 0
BBX 6 7 0 0
BITMAP
2F40
28D0
28D0
25C0
7A00
3000
3000
ENDCHAR
STARTCHAR Thorn.ss01
ENCODING -1
SWIDTH 658 0
DWIDTH 5 0
BBX 5 7 0 0
BITMAP
1800
2F40
25C0
35C0
7E40
3000
2000
ENDCHAR
STARTCHAR Q.ss01
ENCODING -1
SWIDTH 816 0
DWIDTH 7 0
BBX 7 10 0 -3
BITMAP
0BD0
2870
7034
6034
6030
70A0
2F80
0340
01C0
0040
ENDCHAR
STARTCHAR R.ss01
ENCODING -1
SWIDTH 744 0
DWIDTH 6 0
BBX 6 7 0 0
BITMAP
2F80
28D0
25C0
7E00
3700
3280
21E0
ENDCHAR
STARTCHAR Racute.ss01
ENCODING -1
SWIDTH 744 0
DWIDTH 6 0
BBX 6 10 0 0
BITMAP
0090
0240
0000
2F80
28D0
25C0
7E00
3700
3280
21E0
ENDCHAR
STARTCHAR Rcaron.ss01
ENCODING -1
SWIDTH 744 0
DWIDTH 6 0
BBX 6 10 0 0
BITMAP
0980
0740
0000
2F80
28D0
25C0
7E00
3700
3280
21E0
ENDCHAR
STARTCHAR uni0156.ss01
ENCODING -1
SWIDTH 744 0
DWIDTH 6 0
BBX 6 9 0 -2
BITMAP
2F80
28D0
25C0
7E00
3700
3280
21E0
0800
0800
ENDCHAR
STARTCHAR uni0210.ss01
ENCODING -1
SWIDTH 744 0
DWIDTH 6 0
BBX 6 10 0 0
BITMAP
0A00
0940
0000
2F80
28D0
25C0
7E00
3700
3280
21E0
ENDCHAR
STARTCHAR uni0212.ss01
ENCODING -1
SWIDTH 744 0
DWIDTH 6 0
BBX 6 9 0 0
BITMAP
0780
0880
2F80
28D0
25C0
7E00
3700
3280
21E0
ENDCHAR
STARTCHAR T.ss01
ENCODING -1
SWIDTH 631 0
DWIDTH 5 0
BBX 6 7 0 0
BITMAP
7FE0
0A00
0900
0D00
0C00
0C00
1800
ENDCHAR
STARTCHAR Tbar.ss01
ENCODING -1
SWIDTH 631 0
DWIDTH 5 0
BBX 6 7 0 0
BITMAP
7FE0
0A00
0900
3F40
0C00
0C00
1800
ENDCHAR
STARTCHAR Tcaron.ss01
ENCODING -1
SWIDTH 631 0
DWIDTH 5 0
BBX 6 10 0 0
BITMAP
0980
0700
0000
7FE0
0A00
0900
0D00
0C00
0C00
1800
ENDCHAR
STARTCHAR uni0162.ss01
ENCODING -1
SWIDTH 631 0
DWIDTH 5 0
BBX 6 9 0 -2
BITMAP
7FE0
0A00
0900
0900
0C00
0C00
1C00
2C00
3800
ENDCHAR
STARTCHAR uni021A.ss01
ENCODING -1
SWIDTH 631 0
DWIDTH 5 0
BBX 6 9 0 -2
BITMAP
7FE0
0A00
0900
0D00
0C00
0C00
1800
0400
1400
ENDCHAR
STARTCHAR U.ss01
ENCODING -1
SWIDTH 800 0
DWIDTH 6 0
BBX 6 7 0 0
BITMAP
1830
2430
2470
30A0
30E0
7290
3D90
ENDCHAR
STARTCHAR Uacute.ss01
ENCODING -1
SWIDTH 800 0
DWIDTH 6 0
BBX 6 10 0 0
BITMAP
0060
0190
0000
1830
2430
2470
30A0
30E0
7290
3D90
ENDCHAR
STARTCHAR Ubreve.ss01
ENCODING -1
SWIDTH 800 0
DWIDTH 6 0
BBX 6 9 0 0
BITMAP
0410
0790
1830
2430
2470
30A0
30E0
7290
3D90
ENDCHAR
STARTCHAR Ucircumflex.ss01
ENCODING -1
SWIDTH 800 0
DWIDTH 6 0
BBX 6 11 0 0
BITMAP
0140
03C0
0690
0000
1830
2430
2470
30A0
30E0
7290
3D90
ENDCHAR
STARTCHAR uni0214.ss01
ENCODING -1
SWIDTH 800 0
DWIDTH 6 0
BBX 6 10 0 0
BITMAP
0980
0580
0000
1830
2430
2470
30A0
30E0
7290
3D90
ENDCHAR
STARTCHAR Udieresis.ss01
ENCODING -1
SWIDTH 800 0
DWIDTH 6 0
BBX 6 9 0 0
BITMAP
0690
0000
1830
2430
2470
30A0
30E0
7290
3D90
ENDCHAR
STARTCHAR uni1EE4.ss01
ENCODING -1
SWIDTH 800 0
DWIDTH 6 0
BBX 6 9 0 -2
BITMAP
1830
2430
2470
30A0
30E0
7290
3D90
0000
0900
ENDCHAR
STARTCHAR Ugrave.ss01
ENCODING -1
SWIDTH 800 0
DWIDTH 6 0
BBX 6 10 0 0
BITMAP
1800
0600
0000
1830
2430
2470
30A0
30E0
7290
3D90
ENDCHAR
STARTCHAR uni1EE6.ss01
ENCODING -1
SWIDTH 800 0
DWIDTH 6 0
BBX 6 9 0 0
BITMAP
02C0
0180
1830
2430
2470
30A0
30E0
7290
3D90
ENDCHAR
STARTCHAR Uhorn.ss01
ENCODING -1
SWIDTH 800 0
DWIDTH 6 0
BBX 8 9 0 0
BITMAP
0004
0009
1838
2430
2470
30A0
30E0
7290
3D90
ENDCHAR
STARTCHAR uni1EE8.ss01
ENCODING -1
SWIDTH 800 0
DWIDTH 6 0
BBX 8 10 0 0
BITMAP
0060
0194
0009
1838
2430
2470
30A0
30E0
7290
3D90
ENDCHAR
STARTCHAR uni1EF0.ss01
ENCODING -1
SWIDTH 800 0
DWIDTH 6 0
BBX 8 11 0 -2
BITMAP
0004
0009
1838
2430
2470
30A0
30E0
7290
3D90
0000
0900
ENDCHAR
STARTCHAR uni1EEA.ss01
ENCODING -1
SWIDTH 800 0
DWIDTH 6 0
BBX 8 10 0 0
BITMAP
1800
0604
0009
1838
2430
2470
30A0
30E0
7290
3D90
ENDCHAR
STARTCHAR uni1EEC.ss01
ENCODING -1
SWIDTH 800 0
DWIDTH 6 0
BBX 8 9 0 0
BITMAP
02C4
0189
1838
2430
2470
30A0
30E0
7290
3D90
ENDCHAR
STARTCHAR uni1EEE.ss01
ENCODING -1
SWIDTH 800 0
DWIDTH 6 0
BBX 8 10 0 0
BITMAP
0110
0A94
0009
1838
2430
2470
30A0
30E0
7290
3D90
ENDCHAR
STARTCHAR Uhungarumlaut.ss01
ENCODING -1
SWIDTH 800 0
DWIDTH 6 0
BBX 6 10 0 0
BITMAP
0250
0290
0000
1830
2430
2470
30A0
30E0
7290
3D90
ENDCHAR
STARTCHAR uni0216.ss01
ENCODING -1
SWIDTH 800 0
DWIDTH 6 0
BBX 6 9 0 0
BITMAP
02D0
0560
1830
2430
2470
30A0
30E0
7290
3D90
ENDCHAR
STARTCHAR Umacron.ss01
ENCODING -1
SWIDTH 800 0
DWIDTH 6 0
BBX 6 8 0 0
BITMAP
07C0
1830
2430
2470
30A0
30E0
7290
3D90
ENDCHAR
STARTCHAR Uogonek.ss01
ENCODING -1
SWIDTH 800 0
DWIDTH 6 0
BBX 6 9 0 -2
BITMAP
1830
2430
2470
30A0
30E0
7290
3D90
0080
00E0
ENDCHAR
STARTCHAR Uring.ss01
ENCODING -1
SWIDTH 800 0
DWIDTH 6 0
BBX 6 10 0 0
BITMAP
0280
0280
0280
1830
2430
2470
30A0
30E0
7290
3D90
ENDCHAR
STARTCHAR Utilde.ss01
ENCODING -1
SWIDTH 800 0
DWIDTH 6 0
BBX 6 10 0 0
BITMAP
0110
0A90
0000
1830
2430
2470
30A0
30E0
7290
3D90
ENDCHAR
STARTCHAR V.ss01
ENCODING -1
SWIDTH 797 0
DWIDTH 6 0
BBX 6 7 1 0
BITMAP
9090
D0D0
D0C0
C180
D340
AA00
7800
ENDCHAR
STARTCHAR W.ss01
ENCODING -1
SWIDTH 1236 0
DWIDTH 10 0
BBX 9 7 1 0
BITMAP
90C0C0
D1C180
C1C280
C2C340
C6C600
99D900
787400
ENDCHAR
STARTCHAR Wacute.ss01
ENCODING -1
SWIDTH 1236 0
DWIDTH 10 0
BBX 9 10 1 0
BITMAP
001800
006000
000000
90C0C0
D1C180
C1C280
C2C340
C6C600
99D900
787400
ENDCHAR
STARTCHAR Wcircumflex.ss01
ENCODING -1
SWIDTH 1236 0
DWIDTH 10 0
BBX 9 11 1 0
BITMAP
005000
01E000
026000
000000
90C0C0
D1C180
C1C280
C2C340
C6C600
99D900
787400
ENDCHAR
STARTCHAR Wdieresis.ss01
ENCODING -1
SWIDTH 1236 0
DWIDTH 10 0
BBX 9 9 1 0
BITMAP
016000
000000
90C0C0
D1C180
C1C280
C2C340
C6C600
99D900
787400
ENDCHAR
STARTCHAR Wgrave.ss01
ENCODING -1
SWIDTH 1236 0
DWIDTH 10 0
BBX 9 10 1 0
BITMAP
060000
018000
000000
90C0C0
D1C180
C1C280
C2C340
C6C600
99D900
787400
ENDCHAR
STARTCHAR X.ss01
ENCODING -1
SWIDTH 677 0
DWIDTH 5 0
BBX 7 7 -1 0
BITMAP
0918
0674
03D0
0280
0AC0
18A0
7070
ENDCHAR
STARTCHAR Y.ss01
ENCODING -1
SWIDTH 776 0
DWIDTH 6 0
BBX 5 7 1 0
BITMAP
9080
D1C0
C280
C780
BE40
4300
BD00
ENDCHAR
STARTCHAR Yacute.ss01
ENCODING -1
SWIDTH 776 0
DWIDTH 6 0
BBX 5 10 1 0
BITMAP
0180
0600
0000
9080
D1C0
C280
C780
BE40
4300
BD00
ENDCHAR
STARTCHAR Ycircumflex.ss01
ENCODING -1
SWIDTH 776 0
DWIDTH 6 0
BBX 5 11 1 0
BITMAP
0500
0E00
2600
0000
9080
D1C0
C280
C780
BE40
4300
BD00
ENDCHAR
STARTCHAR Ydieresis.ss01
ENCODING -1
SWIDTH 776 0
DWIDTH 6 0
BBX 5 9 1 0
BITMAP
1600
0000
9080
D1C0
C280
C780
BE40
4300
BD00
ENDCHAR
STARTCHAR uni1EF4.ss01
ENCODING -1
SWIDTH 776 0
DWIDTH 6 0
BBX 5 9 1 -2
BITMAP
9080
D1C0
C280
C780
BE40
4300
BD00
0000
2000
ENDCHAR
STARTCHAR Ygrave.ss01
ENCODING -1
SWIDTH 776 0
DWIDTH 6 0
BBX 5 10 1 0
BITMAP
6000
1800
0000
9080
D1C0
C280
C780
BE40
4300
BD00
ENDCHAR
STARTCHAR uni1EF6.ss01
ENCODING -1
SWIDTH 776 0
DWIDTH 6 0
BBX 5 9 1 0
BITMAP
0A00
0A00
9080
D1C0
C280
C780
BE40
4300
BD00
ENDCHAR
STARTCHAR uni0232.ss01
ENCODING -1
SWIDTH 776 0
DWIDTH 6 0
BBX 5 8 1 0
BITMAP
1E00
9080
D1C0
C280
C780
BE40
4300
BD00
ENDCHAR
STARTCHAR uni1EF8.ss01
ENCODING -1
SWIDTH 776 0
DWIDTH 6 0
BBX 5 10 1 0
BITMAP
1440
2A40
0000
9080
D1C0
C280
C780
BE40
4300
BD00
ENDCHAR
STARTCHAR Z.ss01
ENCODING -1
SWIDTH 665 0
DWIDTH 5 0
BBX 6 7 0 0
BITMAP
7FD0
01C0
0340
0A00
2C00
7400
BF80
ENDCHAR
STARTCHAR Zacute.ss01
ENCODING -1
SWIDTH 665 0
DWIDTH 5 0
BBX 6 10 0 0
BITMAP
0090
0240
0000
7FD0
01C0
0340
0A00
2C00
7400
BF80
ENDCHAR
STARTCHAR Zcaron.ss01
ENCODING -1
SWIDTH 665 0
DWIDTH 5 0
BBX 6 10 0 0
BITMAP
0980
0740
0000
7FD0
01C0
0340
0A00
2C00
7400
BF80
ENDCHAR
STARTCHAR Zdotaccent.ss01
ENCODING -1
SWIDTH 665 0
DWIDTH 5 0
BBX 6 9 0 0
BITMAP
0200
0000
7FD0
01C0
0340
0A00
2C00
7400
BF80
ENDCHAR
STARTCHAR i.loclTRK
ENCODING -1
SWIDTH 246 0
DWIDTH 2 0
BBX 3 6 0 0
BITMAP
20
00
60
90
98
74
ENDCHAR
STARTCHAR a.fina
ENCODING -1
SWIDTH 458 0
DWIDTH 4 0
BBX 4 4 0 0
BITMAP
2D
69
9D
78
ENDCHAR
STARTCHAR aacute.fina
ENCODING -1
SWIDTH 458 0
DWIDTH 4 0
BBX 4 8 0 0
BITMAP
01
06
08
00
2D
69
9D
78
ENDCHAR
STARTCHAR abreve.fina
ENCODING -1
SWIDTH 458 0
DWIDTH 4 0
BBX 4 6 0 0
BITMAP
32
2E
2D
69
9D
78
ENDCHAR
STARTCHAR uni1EAF.fina
ENCODING -1
SWIDTH 458 0
DWIDTH 4 0
BBX 4 7 0 0
BITMAP
06
26
2E
2D
69
9D
78
ENDCHAR
STARTCHAR uni1EB7.fina
ENCODING -1
SWIDTH 458 0
DWIDTH 4 0
BBX 4 8 0 -2
BITMAP
32
2E
2D
69
9D
78
00
20
ENDCHAR
STARTCHAR uni1EB1.fina
ENCODING -1
SWIDTH 458 0
DWIDTH 4 0
BBX 4 7 0 0
BITMAP
18
25
2A
2D
69
9D
78
ENDCHAR
STARTCHAR uni1EB3.fina
ENCODING -1
SWIDTH 458 0
DWIDTH 4 0
BBX 4 7 0 0
BITMAP
0D
19
2E
2D
69
9D
78
ENDCHAR
STARTCHAR uni1EB5.fina
ENCODING -1
SWIDTH 458 0
DWIDTH 4 0
BBX 4 8 0 0
BITMAP
15
26
11
2A
2D
69
9D
78
ENDCHAR
STARTCHAR acircumflex.fina
ENCODING -1
SWIDTH 458 0
DWIDTH 4 0
BBX 4 8 0 0
BITMAP
09
1A
22
00
2D
69
9D
78
ENDCHAR
STARTCHAR uni1EA5.fina
ENCODING -1
SWIDTH 458 0
DWIDTH 4 0
BBX 5 8 0 0
BITMAP
0080
0E40
2600
0000
2D00
6900
9D00
7800
ENDCHAR
STARTCHAR uni1EAD.fina
ENCODING -1
SWIDTH 458 0
DWIDTH 4 0
BBX 4 10 0 -2
BITMAP
09
1A
22
00
2D
69
9D
78
00
20
ENDCHAR
STARTCHAR uni1EA7.fina
ENCODING -1
SWIDTH 458 0
DWIDTH 4 0
BBX 4 8 0 0
BITMAP
50
1D
26
00
2D
69
9D
78
ENDCHAR
STARTCHAR uni1EA9.fina
ENCODING -1
SWIDTH 458 0
DWIDTH 4 0
BBX 5 7 0 0
BITMAP
0180
0A80
2A00
3E00
6900
9D00
7800
ENDCHAR
STARTCHAR uni1EAB.fina
ENCODING -1
SWIDTH 458 0
DWIDTH 4 0
BBX 4 8 0 0
BITMAP
1A
09
26
00
2D
69
9D
78
ENDCHAR
STARTCHAR uni0201.fina
ENCODING -1
SWIDTH 458 0
DWIDTH 4 0
BBX 4 8 0 0
BITMAP
14
68
25
00
2D
69
9D
78
ENDCHAR
STARTCHAR adieresis.fina
ENCODING -1
SWIDTH 458 0
DWIDTH 4 0
BBX 4 6 0 0
BITMAP
26
00
2D
69
9D
78
ENDCHAR
STARTCHAR uni1EA1.fina
ENCODING -1
SWIDTH 458 0
DWIDTH 4 0
BBX 4 6 0 -2
BITMAP
2D
69
9D
78
00
20
ENDCHAR
STARTCHAR agrave.fina
ENCODING -1
SWIDTH 458 0
DWIDTH 4 0
BBX 4 8 0 0
BITMAP
10
24
08
00
2D
69
9D
78
ENDCHAR
STARTCHAR uni1EA3.fina
ENCODING -1
SWIDTH 458 0
DWIDTH 4 0
BBX 4 7 0 0
BITMAP
0D
02
09
2D
69
9D
78
ENDCHAR
STARTCHAR uni0203.fina
ENCODING -1
SWIDTH 458 0
DWIDTH 4 0
BBX 4 7 0 0
BITMAP
1E
22
00
2D
69
9D
78
ENDCHAR
STARTCHAR amacron.fina
ENCODING -1
SWIDTH 458 0
DWIDTH 4 0
BBX 4 5 0 0
BITMAP
2E
2D
69
9D
78
ENDCHAR
STARTCHAR aogonek.fina
ENCODING -1
SWIDTH 458 0
DWIDTH 4 0
BBX 4 6 0 -2
BITMAP
2D
69
9D
7C
18
0A
ENDCHAR
STARTCHAR aring.fina
ENCODING -1
SWIDTH 458 0
DWIDTH 4 0
BBX 4 7 0 0
BITMAP
0D
16
1D
2D
69
9D
78
ENDCHAR
STARTCHAR aringacute.fina
ENCODING -1
SWIDTH 458 0
DWIDTH 4 0
BBX 6 8 0 0
BITMAP
0090
0D80
1600
1D00
2D00
6900
9D00
7800
ENDCHAR
STARTCHAR atilde.fina
ENCODING -1
SWIDTH 458 0
DWIDTH 4 0
BBX 4 7 0 0
BITMAP
15
2A
00
2D
69
9D
78
ENDCHAR
STARTCHAR ae.fina
ENCODING -1
SWIDTH 671 0
DWIDTH 5 0
BBX 6 4 0 0
BITMAP
2EC0
6A80
9E50
77D0
ENDCHAR
STARTCHAR aeacute.fina
ENCODING -1
SWIDTH 671 0
DWIDTH 5 0
BBX 6 8 0 0
BITMAP
0040
0180
0200
0000
2EC0
6A80
9E50
77D0
ENDCHAR
STARTCHAR b.fina
ENCODING -1
SWIDTH 475 0
DWIDTH 4 0
BBX 4 8 0 0
BITMAP
1D
25
29
68
7D
A6
65
38
ENDCHAR
STARTCHAR c.fina
ENCODING -1
SWIDTH 404 0
DWIDTH 3 0
BBX 4 4 0 0
BITMAP
38
98
95
78
ENDCHAR
STARTCHAR cacute.fina
ENCODING -1
SWIDTH 404 0
DWIDTH 3 0
BBX 4 8 0 0
BITMAP
01
09
08
00
38
98
95
78
ENDCHAR
STARTCHAR ccaron.fina
ENCODING -1
SWIDTH 404 0
DWIDTH 3 0
BBX 4 8 0 0
BITMAP
22
29
18
00
38
98
95
78
ENDCHAR
STARTCHAR ccedilla.fina
ENCODING -1
SWIDTH 404 0
DWIDTH 3 0
BBX 4 6 0 -2
BITMAP
38
98
95
78
18
74
ENDCHAR
STARTCHAR ccircumflex.fina
ENCODING -1
SWIDTH 404 0
DWIDTH 3 0
BBX 4 8 0 0
BITMAP
1C
29
25
00
38
98
95
78
ENDCHAR
STARTCHAR cdotaccent.fina
ENCODING -1
SWIDTH 404 0
DWIDTH 3 0
BBX 4 6 0 0
BITMAP
18
00
38
98
95
78
ENDCHAR
STARTCHAR d.fina
ENCODING -1
SWIDTH 493 0
DWIDTH 4 0
BBX 5 8 0 0
BITMAP
0280
0280
0680
0A40
2F00
6A00
9900
7A00
ENDCHAR
STARTCHAR dcaron.fina
ENCODING -1
SWIDTH 458 0
DWIDTH 4 0
BBX 6 8 0 0
BITMAP
0090
0380
0300
0600
2E00
6900
9D00
7800
ENDCHAR
STARTCHAR dcroat.fina
ENCODING -1
SWIDTH 458 0
DWIDTH 4 0
BBX 5 7 0 0
BITMAP
0300
2F40
0600
2E00
6900
9D00
7800
ENDCHAR
STARTCHAR uni01C6.fina
ENCODING -1
SWIDTH 876 0
DWIDTH 7 0
BBX 8 10 0 -3
BITMAP
0325
0328
0614
2EBD
6924
9DA0
7B74
00B4
0170
01D0
ENDCHAR
STARTCHAR e.fina
ENCODING -1
SWIDTH 411 0
DWIDTH 3 0
BBX 4 4 0 0
BITMAP
2C
98
A5
78
ENDCHAR
STARTCHAR eacute.fina
ENCODING -1
SWIDTH 411 0
DWIDTH 3 0
BBX 4 8 0 0
BITMAP
01
09
08
00
2C
98
A5
78
ENDCHAR
STARTCHAR ebreve.fina
ENCODING -1
SWIDTH 411 0
DWIDTH 3 0
BBX 4 6 0 0
BITMAP
62
2D
2C
98
A5
78
ENDCHAR
STARTCHAR ecaron.fina
ENCODING -1
SWIDTH 411 0
DWIDTH 3 0
BBX 4 8 0 0
BITMAP
22
29
18
00
2C
98
A5
78
ENDCHAR
STARTCHAR ecircumflex.fina
ENCODING -1
SWIDTH 411 0
DWIDTH 3 0
BBX 4 8 0 0
BITMAP
1C
29
25
00
2C
98
A5
78
ENDCHAR
STARTCHAR uni1EBF.fina
ENCODING -1
SWIDTH 411 0
DWIDTH 3 0
BBX 5 8 0 0
BITMAP
0180
1D00
2900
0000
2C00
9800
A500
7800
ENDCHAR
STARTCHAR uni1EC7.fina
ENCODING -1
SWIDTH 411 0
DWIDTH 3 0
BBX 4 10 0 -2
BITMAP
1C
29
25
00
2C
98
A5
78
00
24
ENDCHAR
STARTCHAR uni1EC1.fina
ENCODING -1
SWIDTH 411 0
DWIDTH 3 0
BBX 4 8 0 0
BITMAP
80
2C
29
00
2C
98
A5
78
ENDCHAR
STARTCHAR uni1EC3.fina
ENCODING -1
SWIDTH 411 0
DWIDTH 3 0
BBX 5 7 0 0
BITMAP
0280
1E40
3900
3C00
9800
A500
7800
ENDCHAR
STARTCHAR uni1EC5.fina
ENCODING -1
SWIDTH 411 0
DWIDTH 3 0
BBX 4 8 0 0
BITMAP
2A
18
29
00
2C
98
A5
78
ENDCHAR
STARTCHAR uni0205.fina
ENCODING -1
SWIDTH 411 0
DWIDTH 3 0
BBX 4 8 0 0
BITMAP
44
A8
28
00
2C
98
A5
78
ENDCHAR
STARTCHAR edieresis.fina
ENCODING -1
SWIDTH 411 0
DWIDTH 3 0
BBX 4 6 0 0
BITMAP
25
00
2C
98
A5
78
ENDCHAR
STARTCHAR edotaccent.fina
ENCODING -1
SWIDTH 411 0
DWIDTH 3 0
BBX 4 6 0 0
BITMAP
18
00
2C
98
A5
78
ENDCHAR
STARTCHAR uni1EB9.fina
ENCODING -1
SWIDTH 411 0
DWIDTH 3 0
BBX 4 6 0 -2
BITMAP
2C
98
A5
78
00
24
ENDCHAR
STARTCHAR egrave.fina
ENCODING -1
SWIDTH 411 0
DWIDTH 3 0
BBX 4 8 0 0
BITMAP
10
30
14
00
2C
98
A5
78
ENDCHAR
STARTCHAR uni1EBB.fina
ENCODING -1
SWIDTH 411 0
DWIDTH 3 0
BBX 4 7 0 0
BITMAP
1C
05
18
2C
98
A5
78
ENDCHAR
STARTCHAR uni0207.fina
ENCODING -1
SWIDTH 411 0
DWIDTH 3 0
BBX 4 7 0 0
BITMAP
2D
52
00
2C
98
A5
78
ENDCHAR
STARTCHAR emacron.fina
ENCODING -1
SWIDTH 411 0
DWIDTH 3 0
BBX 4 5 0 0
BITMAP
3D
2C
98
A5
78
ENDCHAR
STARTCHAR eogonek.fina
ENCODING -1
SWIDTH 411 0
DWIDTH 3 0
BBX 4 6 0 -2
BITMAP
2C
98
A5
78
20
1D
ENDCHAR
STARTCHAR uni1EBD.fina
ENCODING -1
SWIDTH 411 0
DWIDTH 3 0
BBX 4 7 0 0
BITMAP
11
6A
00
2C
98
A5
78
ENDCHAR
STARTCHAR g.fina
ENCODING -1
SWIDTH 449 0
DWIDTH 4 0
BBX 4 8 0 -4
BITMAP
2D
69
9D
7C
2C
68
A4
A0
ENDCHAR
STARTCHAR gbreve.fina
ENCODING -1
SWIDTH 449 0
DWIDTH 4 0
BBX 4 10 0 -4
BITMAP
32
2E
2D
69
9D
7C
2C
68
A4
A0
ENDCHAR
STARTCHAR gcaron.fina
ENCODING -1
SWIDTH 449 0
DWIDTH 4 0
BBX 4 12 0 -4
BITMAP
16
1A
0C
00
2D
69
9D
7C
2C
68
A4
A0
ENDCHAR
STARTCHAR gcircumflex.fina
ENCODING -1
SWIDTH 449 0
DWIDTH 4 0
BBX 4 12 0 -4
BITMAP
09
1A
22
00
2D
69
9D
7C
2C
68
A4
A0
ENDCHAR
STARTCHAR uni0123.fina
ENCODING -1
SWIDTH 449 0
DWIDTH 4 0
BBX 4 11 0 -4
BITMAP
08
08
00
2D
69
9D
7C
2C
68
A4
A0
ENDCHAR
STARTCHAR gdotaccent.fina
ENCODING -1
SWIDTH 449 0
DWIDTH 4 0
BBX 4 10 0 -4
BITMAP
08
00
2D
69
9D
7C
2C
68
A4
A0
ENDCHAR
STARTCHAR h.fina
ENCODING -1
SWIDTH 490 0
DWIDTH 4 0
BBX 4 8 0 0
BITMAP
1D
25
28
68
7A
AA
A6
55
ENDCHAR
STARTCHAR hbar.fina
ENCODING -1
SWIDTH 490 0
DWIDTH 4 0
BBX 4 7 0 0
BITMAP
24
7D
70
6A
7A
A6
55
ENDCHAR
STARTCHAR hcircumflex.fina
ENCODING -1
SWIDTH 490 0
DWIDTH 4 0
BBX 4 12 0 0
BITMAP
05
0E
26
00
1D
25
28
68
7A
AA
A6
55
ENDCHAR
STARTCHAR i.fina
ENCODING -1
SWIDTH 222 0
DWIDTH 2 0
BBX 2 6 0 0
BITMAP
20
00
60
60
90
90
ENDCHAR
STARTCHAR dotlessi.fina
ENCODING -1
SWIDTH 222 0
DWIDTH 2 0
BBX 2 4 0 0
BITMAP
60
60
90
90
ENDCHAR
STARTCHAR iacute.fina
ENCODING -1
SWIDTH 222 0
DWIDTH 2 0
BBX 3 8 0 0
BITMAP
04
18
20
00
60
60
90
90
ENDCHAR
STARTCHAR iacute_j.loclNLD.fina
ENCODING -1
SWIDTH 479 0
DWIDTH 4 0
BBX 5 12 0 -4
BITMAP
0440
1A40
2200
0000
6500
5900
AD00
6C00
2C00
6800
A400
A000
ENDCHAR
STARTCHAR ibreve.fina
ENCODING -1
SWIDTH 222 0
DWIDTH 2 0
BBX 3 6 0 0
BITMAP
88
B4
60
60
90
90
ENDCHAR
STARTCHAR icircumflex.fina
ENCODING -1
SWIDTH 222 0
DWIDTH 2 0
BBX 3 8 0 0
BITMAP
34
68
88
00
60
60
90
90
ENDCHAR
STARTCHAR uni0209.fina
ENCODING -1
SWIDTH 222 0
DWIDTH 2 0
BBX 4 8 -1 0
BITMAP
54
6C
25
00
18
18
24
24
ENDCHAR
STARTCHAR idieresis.fina
ENCODING -1
SWIDTH 222 0
DWIDTH 2 0
BBX 3 6 0 0
BITMAP
98
00
60
60
90
90
ENDCHAR
STARTCHAR i.loclTRK.fina
ENCODING -1
SWIDTH 222 0
DWIDTH 2 0
BBX 2 6 0 0
BITMAP
20
00
60
60
90
90
ENDCHAR
STARTCHAR uni1ECB.fina
ENCODING -1
SWIDTH 222 0
DWIDTH 2 0
BBX 2 8 0 -2
BITMAP
20
00
60
60
90
90
00
80
ENDCHAR
STARTCHAR igrave.fina
ENCODING -1
SWIDTH 222 0
DWIDTH 2 0
BBX 2 8 0 0
BITMAP
40
90
20
00
60
60
90
90
ENDCHAR
STARTCHAR uni1EC9.fina
ENCODING -1
SWIDTH 222 0
DWIDTH 2 0
BBX 3 7 0 0
BITMAP
74
18
24
60
60
90
90
ENDCHAR
STARTCHAR uni020B.fina
ENCODING -1
SWIDTH 222 0
DWIDTH 2 0
BBX 3 7 0 0
BITMAP
B8
88
00
60
60
90
90
ENDCHAR
STARTCHAR imacron.fina
ENCODING -1
SWIDTH 222 0
DWIDTH 2 0
BBX 3 5 0 0
BITMAP
B8
60
60
90
90
ENDCHAR
STARTCHAR iogonek.fina
ENCODING -1
SWIDTH 222 0
DWIDTH 2 0
BBX 2 8 0 -2
BITMAP
20
00
60
60
90
90
80
A0
ENDCHAR
STARTCHAR itilde.fina
ENCODING -1
SWIDTH 222 0
DWIDTH 2 0
BBX 3 7 0 0
BITMAP
54
A8
00
60
60
90
90
ENDCHAR
STARTCHAR j.fina
ENCODING -1
SWIDTH 229 0
DWIDTH 2 0
BBX 4 10 -2 -4
BITMAP
06
00
06
06
09
09
1C
6C
98
B0
ENDCHAR
STARTCHAR uni0237.fina
ENCODING -1
SWIDTH 229 0
DWIDTH 2 0
BBX 4 8 -2 -4
BITMAP
06
06
09
09
1C
6C
98
B0
ENDCHAR
STARTCHAR jcircumflex.fina
ENCODING -1
SWIDTH 229 0
DWIDTH 2 0
BBX 5 12 -2 -4
BITMAP
0340
0A40
0980
0000
0600
0600
0900
0900
1C00
6C00
9800
B000
ENDCHAR
STARTCHAR k.fina
ENCODING -1
SWIDTH 521 0
DWIDTH 4 0
BBX 4 8 0 0
BITMAP
1D
25
28
68
6B
A7
A9
5B
ENDCHAR
STARTCHAR uni0137.fina
ENCODING -1
SWIDTH 521 0
DWIDTH 4 0
BBX 4 11 0 -3
BITMAP
1D
25
28
68
6B
A7
A9
5B
00
24
20
ENDCHAR
STARTCHAR kgreenlandic.fina
ENCODING -1
SWIDTH 541 0
DWIDTH 4 0
BBX 5 4 0 0
BITMAP
6A00
BA00
B440
6E00
ENDCHAR
STARTCHAR l.fina
ENCODING -1
SWIDTH 368 0
DWIDTH 3 0
BBX 4 8 0 0
BITMAP
1D
25
25
68
68
B0
60
38
ENDCHAR
STARTCHAR lacute.fina
ENCODING -1
SWIDTH 368 0
DWIDTH 3 0
BBX 5 11 0 0
BITMAP
0180
0600
0000
1D00
2500
2500
6800
6800
B000
6000
3800
ENDCHAR
STARTCHAR lcaron.fina
ENCODING -1
SWIDTH 368 0
DWIDTH 3 0
BBX 5 8 0 0
BITMAP
1D40
2640
2500
6800
6800
B000
6000
3800
ENDCHAR
STARTCHAR uni013C.fina
ENCODING -1
SWIDTH 368 0
DWIDTH 3 0
BBX 4 11 0 -3
BITMAP
1D
25
25
68
68
B0
60
38
00
20
20
ENDCHAR
STARTCHAR ldot.fina
ENCODING -1
SWIDTH 466 0
DWIDTH 4 0
BBX 4 8 0 0
BITMAP
14
24
30
6C
60
90
A2
7D
ENDCHAR
STARTCHAR uni01C9.fina
ENCODING -1
SWIDTH 555 0
DWIDTH 4 0
BBX 5 12 0 -4
BITMAP
1D00
2500
2640
6800
6640
B300
6300
3F00
0A00
2900
2800
3800
ENDCHAR
STARTCHAR lslash.fina
ENCODING -1
SWIDTH 368 0
DWIDTH 3 0
BBX 5 9 0 0
BITMAP
1B40
2400
1D00
3500
6900
6800
B400
6000
3800
ENDCHAR
STARTCHAR m.fina
ENCODING -1
SWIDTH 732 0
DWIDTH 6 0
BBX 6 4 0 0
BITMAP
6AA0
BBA0
AA90
5590
ENDCHAR
STARTCHAR n.fina
ENCODING -1
SWIDTH 484 0
DWIDTH 4 0
BBX 4 4 0 0
BITMAP
6A
BA
A9
59
ENDCHAR
STARTCHAR nacute.fina
ENCODING -1
SWIDTH 484 0
DWIDTH 4 0
BBX 4 8 0 0
BITMAP
01
06
08
00
6A
BA
A9
59
ENDCHAR
STARTCHAR napostrophe.fina
ENCODING -1
SWIDTH 484 0
DWIDTH 4 0
BBX 4 7 0 0
BITMAP
80
80
00
6A
BA
A9
59
ENDCHAR
STARTCHAR ncaron.fina
ENCODING -1
SWIDTH 484 0
DWIDTH 4 0
BBX 4 8 0 0
BITMAP
16
1A
0D
00
6A
BA
A9
59
ENDCHAR
STARTCHAR uni0146.fina
ENCODING -1
SWIDTH 484 0
DWIDTH 4 0
BBX 4 7 0 -3
BITMAP
6A
BA
A9
59
00
24
20
ENDCHAR
STARTCHAR eng.fina
ENCODING -1
SWIDTH 484 0
DWIDTH 4 0
BBX 4 7 0 -3
BITMAP
6A
BA
A9
58
0C
58
60
ENDCHAR
STARTCHAR uni01CC.fina
ENCODING -1
SWIDTH 725 0
DWIDTH 6 0
BBX 6 10 0 -4
BITMAP
0060
0000
6A60
BA60
A990
57D0
01C0
0680
0980
0A00
ENDCHAR
STARTCHAR ntilde.fina
ENCODING -1
SWIDTH 484 0
DWIDTH 4 0
BBX 4 7 0 0
BITMAP
14
2A
00
6A
BA
A9
59
ENDCHAR
STARTCHAR o.fina
ENCODING -1
SWIDTH 453 0
DWIDTH 4 0
BBX 4 4 0 0
BITMAP
38
99
99
78
ENDCHAR
STARTCHAR oacute.fina
ENCODING -1
SWIDTH 453 0
DWIDTH 4 0
BBX 4 8 0 0
BITMAP
01
09
08
00
38
99
99
78
ENDCHAR
STARTCHAR obreve.fina
ENCODING -1
SWIDTH 453 0
DWIDTH 4 0
BBX 4 6 0 0
BITMAP
62
2D
38
99
99
78
ENDCHAR
STARTCHAR ocircumflex.fina
ENCODING -1
SWIDTH 453 0
DWIDTH 4 0
BBX 4 8 0 0
BITMAP
1C
29
25
00
38
99
99
78
ENDCHAR
STARTCHAR uni1ED1.fina
ENCODING -1
SWIDTH 453 0
DWIDTH 4 0
BBX 5 8 0 0
BITMAP
0140
1D00
2900
0000
3800
9900
9900
7800
ENDCHAR
STARTCHAR uni1ED9.fina
ENCODING -1
SWIDTH 453 0
DWIDTH 4 0
BBX 4 10 0 -2
BITMAP
1C
29
25
00
38
99
99
78
00
20
ENDCHAR
STARTCHAR uni1ED3.fina
ENCODING -1
SWIDTH 453 0
DWIDTH 4 0
BBX 4 8 0 0
BITMAP
80
2C
29
00
38
99
99
78
ENDCHAR
STARTCHAR uni1ED5.fina
ENCODING -1
SWIDTH 453 0
DWIDTH 4 0
BBX 5 7 0 0
BITMAP
0240
1A40
3900
7D00
9900
9900
7800
ENDCHAR
STARTCHAR uni1ED7.fina
ENCODING -1
SWIDTH 453 0
DWIDTH 4 0
BBX 4 8 0 0
BITMAP
2A
18
29
00
38
99
99
78
ENDCHAR
STARTCHAR uni020D.fina
ENCODING -1
SWIDTH 453 0
DWIDTH 4 0
BBX 4 8 0 0
BITMAP
44
A8
28
00
38
99
99
78
ENDCHAR
STARTCHAR odieresis.fina
ENCODING -1
SWIDTH 453 0
DWIDTH 4 0
BBX 4 6 0 0
BITMAP
25
00
38
99
99
78
ENDCHAR
STARTCHAR uni022B.fina
ENCODING -1
SWIDTH 453 0
DWIDTH 4 0
BBX 4 7 0 0
BITMAP
2D
25
00
38
99
99
78
ENDCHAR
STARTCHAR uni0231.fina
ENCODING -1
SWIDTH 453 0
DWIDTH 4 0
BBX 4 7 0 0
BITMAP
2D
18
00
38
99
99
78
ENDCHAR
STARTCHAR uni1ECD.fina
ENCODING -1
SWIDTH 453 0
DWIDTH 4 0
BBX 4 6 0 -2
BITMAP
38
99
99
78
00
20
ENDCHAR
STARTCHAR ograve.fina
ENCODING -1
SWIDTH 453 0
DWIDTH 4 0
BBX 4 8 0 0
BITMAP
10
30
14
00
38
99
99
78
ENDCHAR
STARTCHAR uni1ECF.fina
ENCODING -1
SWIDTH 453 0
DWIDTH 4 0
BBX 4 7 0 0
BITMAP
1C
09
18
38
99
99
78
ENDCHAR
STARTCHAR ohorn.fina
ENCODING -1
SWIDTH 453 0
DWIDTH 4 0
BBX 4 5 0 0
BITMAP
02
3D
99
99
78
ENDCHAR
STARTCHAR uni1EDB.fina
ENCODING -1
SWIDTH 453 0
DWIDTH 4 0
BBX 4 8 0 0
BITMAP
04
09
14
02
3D
99
99
78
ENDCHAR
STARTCHAR uni1EE3.fina
ENCODING -1
SWIDTH 453 0
DWIDTH 4 0
BBX 4 7 0 -2
BITMAP
02
3D
99
99
78
00
20
ENDCHAR
STARTCHAR uni1EDD.fina
ENCODING -1
SWIDTH 453 0
DWIDTH 4 0
BBX 4 8 0 0
BITMAP
50
60
20
02
3D
99
99
78
ENDCHAR
STARTCHAR uni1EDF.fina
ENCODING -1
SWIDTH 453 0
DWIDTH 4 0
BBX 4 7 0 0
BITMAP
28
08
1A
3D
99
99
78
ENDCHAR
STARTCHAR uni1EE1.fina
ENCODING -1
SWIDTH 453 0
DWIDTH 4 0
BBX 4 7 0 0
BITMAP
11
79
46
3D
99
99
78
ENDCHAR
STARTCHAR ohungarumlaut.fina
ENCODING -1
SWIDTH 453 0
DWIDTH 4 0
BBX 4 8 0 0
BITMAP
05
2B
25
00
38
99
99
78
ENDCHAR
STARTCHAR uni020F.fina
ENCODING -1
SWIDTH 453 0
DWIDTH 4 0
BBX 4 7 0 0
BITMAP
2D
52
00
38
99
99
78
ENDCHAR
STARTCHAR omacron.fina
ENCODING -1
SWIDTH 453 0
DWIDTH 4 0
BBX 4 5 0 0
BITMAP
3D
38
99
99
78
ENDCHAR
STARTCHAR uni01EB.fina
ENCODING -1
SWIDTH 453 0
DWIDTH 4 0
BBX 4 6 0 -2
BITMAP
3C
99
99
78
30
28
ENDCHAR
STARTCHAR oslash.fina
ENCODING -1
SWIDTH 463 0
DWIDTH 4 0
BBX 4 6 0 -1
BITMAP
08
3C
A9
A9
78
20
ENDCHAR
STARTCHAR oslashacute.fina
ENCODING -1
SWIDTH 463 0
DWIDTH 4 0
BBX 4 9 0 -1
BITMAP
04
18
20
08
3C
A9
A9
78
20
ENDCHAR
STARTCHAR otilde.fina
ENCODING -1
SWIDTH 453 0
DWIDTH 4 0
BBX 4 7 0 0
BITMAP
11
6A
00
38
99
99
78
ENDCHAR
STARTCHAR uni022D.fina
ENCODING -1
SWIDTH 453 0
DWIDTH 4 0
BBX 4 7 0 0
BITMAP
3E
6A
00
38
99
99
78
ENDCHAR
STARTCHAR oe.fina
ENCODING -1
SWIDTH 686 0
DWIDTH 5 0
BBX 6 4 0 0
BITMAP
3AC0
9A90
9B50
7BD0
ENDCHAR
STARTCHAR p.fina
ENCODING -1
SWIDTH 457 0
DWIDTH 4 0
BBX 5 8 -1 -4
BITMAP
1B40
1A80
2A40
3E00
6400
A400
A000
A000
ENDCHAR
STARTCHAR thorn.fina
ENCODING -1
SWIDTH 483 0
DWIDTH 4 0
BBX 4 10 0 -3
BITMAP
30
30
60
6E
B6
A9
A4
90
90
40
ENDCHAR
STARTCHAR q.fina
ENCODING -1
SWIDTH 449 0
DWIDTH 4 0
BBX 4 8 0 -3
BITMAP
01
2E
69
9C
7C
0C
18
18
ENDCHAR
STARTCHAR r.fina
ENCODING -1
SWIDTH 495 0
DWIDTH 4 0
BBX 4 4 0 0
BITMAP
6A
AA
A6
50
ENDCHAR
STARTCHAR racute.fina
ENCODING -1
SWIDTH 495 0
DWIDTH 4 0
BBX 4 8 0 0
BITMAP
01
06
08
00
6A
AA
A6
50
ENDCHAR
STARTCHAR rcaron.fina
ENCODING -1
SWIDTH 495 0
DWIDTH 4 0
BBX 4 8 0 0
BITMAP
26
1A
1C
00
6A
AA
A6
50
ENDCHAR
STARTCHAR uni0157.fina
ENCODING -1
SWIDTH 495 0
DWIDTH 4 0
BBX 4 7 0 -3
BITMAP
6A
AA
A6
50
00
90
80
ENDCHAR
STARTCHAR uni0211.fina
ENCODING -1
SWIDTH 495 0
DWIDTH 4 0
BBX 4 8 0 0
BITMAP
44
6C
25
00
6A
AA
A6
50
ENDCHAR
STARTCHAR uni0213.fina
ENCODING -1
SWIDTH 495 0
DWIDTH 4 0
BBX 4 7 0 0
BITMAP
2E
22
00
6A
AA
A6
50
ENDCHAR
STARTCHAR s.fina
ENCODING -1
SWIDTH 394 0
DWIDTH 3 0
BBX 3 4 0 0
BITMAP
24
34
9C
68
ENDCHAR
STARTCHAR sacute.fina
ENCODING -1
SWIDTH 394 0
DWIDTH 3 0
BBX 4 8 0 0
BITMAP
01
09
08
00
24
34
9C
68
ENDCHAR
STARTCHAR scaron.fina
ENCODING -1
SWIDTH 394 0
DWIDTH 3 0
BBX 4 8 0 0
BITMAP
22
29
18
00
24
34
9C
68
ENDCHAR
STARTCHAR scedilla.fina
ENCODING -1
SWIDTH 394 0
DWIDTH 3 0
BBX 3 6 0 -2
BITMAP
24
34
9C
78
08
64
ENDCHAR
STARTCHAR scircumflex.fina
ENCODING -1
SWIDTH 394 0
DWIDTH 3 0
BBX 4 8 0 0
BITMAP
1C
29
25
00
24
34
9C
68
ENDCHAR
STARTCHAR uni0219.fina
ENCODING -1
SWIDTH 394 0
DWIDTH 3 0
BBX 3 7 0 -3
BITMAP
24
34
9C
68
00
24
20
ENDCHAR
STARTCHAR germandbls.fina
ENCODING -1
SWIDTH 580 0
DWIDTH 5 0
BBX 5 9 0 -2
BITMAP
1B40
3580
6240
6900
9A00
A680
AA40
9000
9000
ENDCHAR
STARTCHAR uni01C9.ss01.fina
ENCODING -1
SWIDTH 466 0
DWIDTH 4 0
BBX 4 11 0 -4
BITMAP
24
36
60
66
99
99
7C
1C
68
94
A0
ENDCHAR
STARTCHAR eng.ss01.fina
ENCODING -1
SWIDTH 484 0
DWIDTH 4 0
BBX 4 8 0 -4
BITMAP
6A
BA
A9
59
1C
6C
98
B0
ENDCHAR
STARTCHAR p.ss01.fina
ENCODING -1
SWIDTH 488 0
DWIDTH 4 0
BBX 5 8 -1 -4
BITMAP
1A80
1E80
1940
2A40
7400
A400
A000
A000
ENDCHAR
STARTCHAR z.ss01.fina
ENCODING -1
SWIDTH 406 0
DWIDTH 3 0
BBX 5 8 -1 -3
BITMAP
1440
1B40
0900
1800
0A00
2A00
6900
2400
ENDCHAR
STARTCHAR zacute.ss01.fina
ENCODING -1
SWIDTH 406 0
DWIDTH 3 0
BBX 5 11 -1 -3
BITMAP
0140
0240
0200
1440
1B40
0900
1800
0A00
2A00
6900
2400
ENDCHAR
STARTCHAR zcaron.ss01.fina
ENCODING -1
SWIDTH 406 0
DWIDTH 3 0
BBX 5 11 -1 -3
BITMAP
0880
0A40
0600
1440
1B40
0900
1800
0A00
2A00
6900
2400
ENDCHAR
STARTCHAR zdotaccent.ss01.fina
ENCODING -1
SWIDTH 406 0
DWIDTH 3 0
BBX 5 9 -1 -3
BITMAP
0600
1440
1B40
0900
1800
0A00
2A00
6900
2400
ENDCHAR
STARTCHAR t.fina
ENCODING -1
SWIDTH 413 0
DWIDTH 3 0
BBX 4 8 0 0
BITMAP
09
29
39
38
FD
60
60
2D
ENDCHAR
STARTCHAR tbar.fina
ENCODING -1
SWIDTH 387 0
DWIDTH 3 0
BBX 3 7 0 0
BITMAP
10
24
30
BC
F8
60
38
ENDCHAR
STARTCHAR tcaron.fina
ENCODING -1
SWIDTH 413 0
DWIDTH 3 0
BBX 5 8 0 0
BITMAP
0980
2980
3900
3800
FD00
6000
6000
2D00
ENDCHAR
STARTCHAR uni0163.fina
ENCODING -1
SWIDTH 413 0
DWIDTH 3 0
BBX 4 9 0 -2
BITMAP
1D
29
38
FD
60
60
3C
18
74
ENDCHAR
STARTCHAR uni021B.fina
ENCODING -1
SWIDTH 413 0
DWIDTH 3 0
BBX 4 11 0 -3
BITMAP
09
29
39
38
FD
60
60
2D
00
24
20
ENDCHAR
STARTCHAR u.fina
ENCODING -1
SWIDTH 460 0
DWIDTH 4 0
BBX 4 4 0 0
BITMAP
65
59
AD
69
ENDCHAR
STARTCHAR uacute.fina
ENCODING -1
SWIDTH 460 0
DWIDTH 4 0
BBX 4 8 0 0
BITMAP
01
06
08
00
65
59
AD
69
ENDCHAR
STARTCHAR ubreve.fina
ENCODING -1
SWIDTH 460 0
DWIDTH 4 0
BBX 4 6 0 0
BITMAP
22
2D
65
59
AD
69
ENDCHAR
STARTCHAR ucircumflex.fina
ENCODING -1
SWIDTH 460 0
DWIDTH 4 0
BBX 4 8 0 0
BITMAP
0D
19
26
00
65
59
AD
69
ENDCHAR
STARTCHAR uni0215.fina
ENCODING -1
SWIDTH 460 0
DWIDTH 4 0
BBX 4 8 0 0
BITMAP
44
6C
25
00
65
59
AD
69
ENDCHAR
STARTCHAR udieresis.fina
ENCODING -1
SWIDTH 460 0
DWIDTH 4 0
BBX 4 6 0 0
BITMAP
26
00
65
59
AD
69
ENDCHAR
STARTCHAR uni1EE5.fina
ENCODING -1
SWIDTH 460 0
DWIDTH 4 0
BBX 4 6 0 -2
BITMAP
65
59
AD
69
00
24
ENDCHAR
STARTCHAR ugrave.fina
ENCODING -1
SWIDTH 460 0
DWIDTH 4 0
BBX 4 8 0 0
BITMAP
10
34
18
00
65
59
AD
69
ENDCHAR
STARTCHAR uni1EE7.fina
ENCODING -1
SWIDTH 460 0
DWIDTH 4 0
BBX 4 7 0 0
BITMAP
1D
05
0C
65
59
AD
69
ENDCHAR
STARTCHAR uhorn.fina
ENCODING -1
SWIDTH 472 0
DWIDTH 4 0
BBX 5 5 0 0
BITMAP
0140
6700
5900
AD00
6900
ENDCHAR
STARTCHAR uni1EE9.fina
ENCODING -1
SWIDTH 472 0
DWIDTH 4 0
BBX 5 8 0 0
BITMAP
0100
0600
0800
0140
6700
5900
AD00
6900
ENDCHAR
STARTCHAR uni1EF1.fina
ENCODING -1
SWIDTH 472 0
DWIDTH 4 0
BBX 5 7 0 -2
BITMAP
0140
6700
5900
AD00
6900
0000
2400
ENDCHAR
STARTCHAR uni1EEB.fina
ENCODING -1
SWIDTH 472 0
DWIDTH 4 0
BBX 5 8 0 0
BITMAP
1000
3400
1800
0140
6700
5900
AD00
6900
ENDCHAR
STARTCHAR uni1EED.fina
ENCODING -1
SWIDTH 472 0
DWIDTH 4 0
BBX 5 7 0 0
BITMAP
1D00
0500
0D40
6700
5900
AD00
6900
ENDCHAR
STARTCHAR uni1EEF.fina
ENCODING -1
SWIDTH 472 0
DWIDTH 4 0
BBX 5 7 0 0
BITMAP
1100
2A00
1540
6700
5900
AD00
6900
ENDCHAR
STARTCHAR uhungarumlaut.fina
ENCODING -1
SWIDTH 460 0
DWIDTH 4 0
BBX 4 8 0 0
BITMAP
05
1A
26
00
65
59
AD
69
ENDCHAR
STARTCHAR uni0217.fina
ENCODING -1
SWIDTH 460 0
DWIDTH 4 0
BBX 4 7 0 0
BITMAP
2E
22
00
65
59
AD
69
ENDCHAR
STARTCHAR umacron.fina
ENCODING -1
SWIDTH 460 0
DWIDTH 4 0
BBX 4 5 0 0
BITMAP
2D
65
59
AD
69
ENDCHAR
STARTCHAR uogonek.fina
ENCODING -1
SWIDTH 460 0
DWIDTH 4 0
BBX 4 6 0 -2
BITMAP
65
59
AD
68
08
0E
ENDCHAR
STARTCHAR uring.fina
ENCODING -1
SWIDTH 460 0
DWIDTH 4 0
BBX 4 7 0 0
BITMAP
1D
26
1D
65
59
AD
69
ENDCHAR
STARTCHAR utilde.fina
ENCODING -1
SWIDTH 460 0
DWIDTH 4 0
BBX 4 7 0 0
BITMAP
11
2A
00
65
59
AD
69
ENDCHAR
STARTCHAR v.fina
ENCODING -1
SWIDTH 420 0
DWIDTH 3 0
BBX 4 4 0 0
BITMAP
96
99
A8
70
ENDCHAR
STARTCHAR w.fina
ENCODING -1
SWIDTH 666 0
DWIDTH 5 0
BBX 6 4 0 0
BITMAP
9950
9D80
AE80
7700
ENDCHAR
STARTCHAR wacute.fina
ENCODING -1
SWIDTH 666 0
DWIDTH 5 0
BBX 6 8 0 0
BITMAP
0140
0240
0200
0000
9950
9D80
AE80
7700
ENDCHAR
STARTCHAR wcircumflex.fina
ENCODING -1
SWIDTH 666 0
DWIDTH 5 0
BBX 6 8 0 0
BITMAP
0700
0A40
1940
0000
9950
9D80
AE80
7700
ENDCHAR
STARTCHAR wdieresis.fina
ENCODING -1
SWIDTH 666 0
DWIDTH 5 0
BBX 6 6 0 0
BITMAP
0940
0000
9950
9D80
AE80
7700
ENDCHAR
STARTCHAR wgrave.fina
ENCODING -1
SWIDTH 666 0
DWIDTH 5 0
BBX 6 8 0 0
BITMAP
0400
1800
0500
0000
9950
9D80
AE80
7700
ENDCHAR
STARTCHAR x.fina
ENCODING -1
SWIDTH 580 0
DWIDTH 5 0
BBX 5 4 0 0
BITMAP
7B40
1D00
9C40
BB40
ENDCHAR
STARTCHAR y.fina
ENCODING -1
SWIDTH 449 0
DWIDTH 4 0
BBX 4 8 0 -4
BITMAP
65
59
AD
6C
2C
68
A4
A0
ENDCHAR
STARTCHAR yacute.fina
ENCODING -1
SWIDTH 449 0
DWIDTH 4 0
BBX 4 12 0 -4
BITMAP
01
06
08
00
65
59
AD
6C
2C
68
A4
A0
ENDCHAR
STARTCHAR ycircumflex.fina
ENCODING -1
SWIDTH 449 0
DWIDTH 4 0
BBX 4 12 0 -4
BITMAP
0D
19
26
00
65
59
AD
6C
2C
68
A4
A0
ENDCHAR
STARTCHAR ydieresis.fina
ENCODING -1
SWIDTH 449 0
DWIDTH 4 0
BBX 4 10 0 -4
BITMAP
26
00
65
59
AD
6C
2C
68
A4
A0
ENDCHAR
STARTCHAR uni1EF5.fina
ENCODING -1
SWIDTH 449 0
DWIDTH 4 0
BBX 4 8 0 -4
BITMAP
65
59
AD
6C
2C
68
A4
A6
ENDCHAR
STARTCHAR ygrave.fina
ENCODING -1
SWIDTH 449 0
DWIDTH 4 0
BBX 4 12 0 -4
BITMAP
10
34
18
00
65
59
AD
6C
2C
68
A4
A0
ENDCHAR
STARTCHAR uni1EF7.fina
ENCODING -1
SWIDTH 449 0
DWIDTH 4 0
BBX 4 11 0 -4
BITMAP
1D
05
0C
65
59
AD
6C
2C
68
A4
A0
ENDCHAR
STARTCHAR uni0233.fina
ENCODING -1
SWIDTH 449 0
DWIDTH 4 0
BBX 4 9 0 -4
BITMAP
2D
65
59
AD
6C
2C
68
A4
A0
ENDCHAR
STARTCHAR uni1EF9.fina
ENCODING -1
SWIDTH 449 0
DWIDTH 4 0
BBX 4 11 0 -4
BITMAP
11
2A
00
65
59
AD
6C
2C
68
A4
A0
ENDCHAR
STARTCHAR z.fina
ENCODING -1
SWIDTH 412 0
DWIDTH 3 0
BBX 4 4 0 0
BITMAP
7D
28
A0
FD
ENDCHAR
STARTCHAR zacute.fina
ENCODING -1
SWIDTH 412 0
DWIDTH 3 0
BBX 4 8 0 0
BITMAP
01
09
08
00
7D
28
A0
FD
ENDCHAR
STARTCHAR zcaron.fina
ENCODING -1
SWIDTH 412 0
DWIDTH 3 0
BBX 4 8 0 0
BITMAP
22
29
18
00
7D
28
A0
FD
ENDCHAR
STARTCHAR zdotaccent.fina
ENCODING -1
SWIDTH 412 0
DWIDTH 3 0
BBX 4 6 0 0
BITMAP
18
00
7D
28
A0
FD
ENDCHAR
STARTCHAR iacute_j.loclNLD
ENCODING -1
SWIDTH 479 0
DWIDTH 4 0
BBX 5 12 0 -4
BITMAP
0440
1A40
2200
0000
6500
5900
AD80
6E00
2C00
6800
A400
A000
ENDCHAR
STARTCHAR b.ss01
ENCODING -1
SWIDTH 449 0
DWIDTH 4 0
BBX 5 8 0 0
BITMAP
1D00
2500
2800
6800
7900
9A40
6A00
3800
ENDCHAR
STARTCHAR d.ss01
ENCODING -1
SWIDTH 470 0
DWIDTH 4 0
BBX 5 7 0 0
BITMAP
0300
0300
0600
2E00
6900
9D80
7B40
ENDCHAR
STARTCHAR f.ss01
ENCODING -1
SWIDTH 323 0
DWIDTH 3 0
BBX 5 12 -1 -4
BITMAP
0740
0940
0D40
1A00
1A00
2D00
2F40
2400
2400
A400
B000
E000
ENDCHAR
STARTCHAR l.ss01
ENCODING -1
SWIDTH 237 0
DWIDTH 2 0
BBX 3 7 0 0
BITMAP
24
30
70
60
90
98
74
ENDCHAR
STARTCHAR lacute.ss01
ENCODING -1
SWIDTH 237 0
DWIDTH 2 0
BBX 4 10 0 0
BITMAP
06
19
00
24
30
70
60
90
98
74
ENDCHAR
STARTCHAR uni013C.ss01
ENCODING -1
SWIDTH 237 0
DWIDTH 2 0
BBX 3 10 0 -3
BITMAP
24
30
70
60
90
98
74
00
50
50
ENDCHAR
STARTCHAR uni01C9.ss01
ENCODING -1
SWIDTH 491 0
DWIDTH 4 0
BBX 5 11 0 -4
BITMAP
2400
3600
6000
6600
9900
9980
7E00
1C00
6800
9400
A000
ENDCHAR
STARTCHAR lslash.ss01
ENCODING -1
SWIDTH 324 0
DWIDTH 3 0
BBX 4 8 0 0
BITMAP
14
24
38
74
A0
90
95
78
ENDCHAR
STARTCHAR eng.ss01
ENCODING -1
SWIDTH 508 0
DWIDTH 4 0
BBX 5 8 0 -4
BITMAP
6A00
BA00
AA80
5B40
1C00
6C00
9800
B000
ENDCHAR
STARTCHAR o.ss01
ENCODING -1
SWIDTH 451 0
DWIDTH 4 0
BBX 5 4 0 0
BITMAP
2E00
9A40
9900
7800
ENDCHAR
STARTCHAR oacute.ss01
ENCODING -1
SWIDTH 451 0
DWIDTH 4 0
BBX 5 8 0 0
BITMAP
0100
0900
0800
0000
2E00
9A40
9900
7800
ENDCHAR
STARTCHAR obreve.ss01
ENCODING -1
SWIDTH 451 0
DWIDTH 4 0
BBX 5 6 0 0
BITMAP
6200
2D00
2E00
9A40
9900
7800
ENDCHAR
STARTCHAR ocircumflex.ss01
ENCODING -1
SWIDTH 451 0
DWIDTH 4 0
BBX 5 8 0 0
BITMAP
1C00
2900
2500
0000
2E00
9A40
9900
7800
ENDCHAR
STARTCHAR uni1ED1.ss01
ENCODING -1
SWIDTH 451 0
DWIDTH 4 0
BBX 5 8 0 0
BITMAP
0140
1D00
2900
0000
2E00
9A40
9900
7800
ENDCHAR
STARTCHAR uni1ED9.ss01
ENCODING -1
SWIDTH 451 0
DWIDTH 4 0
BBX 5 10 0 -2
BITMAP
1C00
2900
2500
0000
2E00
9A40
9900
7800
0000
2000
ENDCHAR
STARTCHAR uni1ED3.ss01
ENCODING -1
SWIDTH 451 0
DWIDTH 4 0
BBX 5 8 0 0
BITMAP
8000
2C00
2900
0000
2E00
9A40
9900
7800
ENDCHAR
STARTCHAR uni1ED5.ss01
ENCODING -1
SWIDTH 451 0
DWIDTH 4 0
BBX 5 7 0 0
BITMAP
0240
1A40
3900
7E00
9A40
9900
7800
ENDCHAR
STARTCHAR uni1ED7.ss01
ENCODING -1
SWIDTH 451 0
DWIDTH 4 0
BBX 5 8 0 0
BITMAP
2A00
1800
2900
0000
2E00
9A40
9900
7800
ENDCHAR
STARTCHAR uni020D.ss01
ENCODING -1
SWIDTH 451 0
DWIDTH 4 0
BBX 5 8 0 0
BITMAP
4400
A800
2800
0000
2E00
9A40
9900
7800
ENDCHAR
STARTCHAR odieresis.ss01
ENCODING -1
SWIDTH 451 0
DWIDTH 4 0
BBX 5 6 0 0
BITMAP
2500
0000
2E00
9A40
9900
7800
ENDCHAR
STARTCHAR uni022B.ss01
ENCODING -1
SWIDTH 451 0
DWIDTH 4 0
BBX 5 7 0 0
BITMAP
2D00
2500
0000
2E00
9A40
9900
7800
ENDCHAR
STARTCHAR uni0231.ss01
ENCODING -1
SWIDTH 451 0
DWIDTH 4 0
BBX 5 7 0 0
BITMAP
2D00
1800
0000
2E00
9A40
9900
7800
ENDCHAR
STARTCHAR uni1ECD.ss01
ENCODING -1
SWIDTH 451 0
DWIDTH 4 0
BBX 5 6 0 -2
BITMAP
2E00
9A40
9900
7800
0000
2000
ENDCHAR
STARTCHAR ograve.ss01
ENCODING -1
SWIDTH 451 0
DWIDTH 4 0
BBX 5 8 0 0
BITMAP
1000
3000
1400
0000
2E00
9A40
9900
7800
ENDCHAR
STARTCHAR uni1ECF.ss01
ENCODING -1
SWIDTH 451 0
DWIDTH 4 0
BBX 5 7 0 0
BITMAP
1C00
0900
1800
2E00
9A40
9900
7800
ENDCHAR
STARTCHAR ohorn.ss01
ENCODING -1
SWIDTH 451 0
DWIDTH 4 0
BBX 5 5 0 0
BITMAP
0200
2F00
9A40
9900
7800
ENDCHAR
STARTCHAR uni1EDB.ss01
ENCODING -1
SWIDTH 451 0
DWIDTH 4 0
BBX 5 8 0 0
BITMAP
0400
0900
1400
0200
2F00
9A40
9900
7800
ENDCHAR
STARTCHAR uni1EE3.ss01
ENCODING -1
SWIDTH 451 0
DWIDTH 4 0
BBX 5 7 0 -2
BITMAP
0200
2F00
9A40
9900
7800
0000
2000
ENDCHAR
STARTCHAR uni1EDD.ss01
ENCODING -1
SWIDTH 451 0
DWIDTH 4 0
BBX 5 8 0 0
BITMAP
5000
6000
2000
0200
2F00
9A40
9900
7800
ENDCHAR
STARTCHAR uni1EDF.ss01
ENCODING -1
SWIDTH 451 0
DWIDTH 4 0
BBX 5 7 0 0
BITMAP
2800
0800
1A00
2F00
9A40
9900
7800
ENDCHAR
STARTCHAR uni1EE1.ss01
ENCODING -1
SWIDTH 451 0
DWIDTH 4 0
BBX 5 7 0 0
BITMAP
1100
7900
4600
2F00
9A40
9900
7800
ENDCHAR
STARTCHAR ohungarumlaut.ss01
ENCODING -1
SWIDTH 451 0
DWIDTH 4 0
BBX 5 8 0 0
BITMAP
0500
2B00
2500
0000
2E00
9A40
9900
7800
ENDCHAR
STARTCHAR uni020F.ss01
ENCODING -1
SWIDTH 451 0
DWIDTH 4 0
BBX 5 7 0 0
BITMAP
2D00
5200
0000
2E00
9A40
9900
7800
ENDCHAR
STARTCHAR omacron.ss01
ENCODING -1
SWIDTH 451 0
DWIDTH 4 0
BBX 5 5 0 0
BITMAP
3D00
2E00
9A40
9900
7800
ENDCHAR
STARTCHAR uni01EB.ss01
ENCODING -1
SWIDTH 451 0
DWIDTH 4 0
BBX 5 6 0 -2
BITMAP
2E00
9A40
9900
7800
2000
2800
ENDCHAR
STARTCHAR oslash.ss01
ENCODING -1
SWIDTH 451 0
DWIDTH 4 0
BBX 5 6 0 -1
BITMAP
0800
2E00
AA40
BD00
7800
2000
ENDCHAR
STARTCHAR oslashacute.ss01
ENCODING -1
SWIDTH 451 0
DWIDTH 4 0
BBX 5 9 0 -1
BITMAP
0400
1800
2000
0800
2E00
AA40
BD00
7800
2000
ENDCHAR
STARTCHAR otilde.ss01
ENCODING -1
SWIDTH 451 0
DWIDTH 4 0
BBX 5 7 0 0
BITMAP
1100
6A00
0000
2E00
9A40
9900
7800
ENDCHAR
STARTCHAR uni022D.ss01
ENCODING -1
SWIDTH 451 0
DWIDTH 4 0
BBX 5 7 0 0
BITMAP
3E00
6A00
0000
2E00
9A40
9900
7800
ENDCHAR
STARTCHAR p.ss01
ENCODING -1
SWIDTH 500 0
DWIDTH 4 0
BBX 6 8 -1 -4
BITMAP
1A80
1E80
1A60
29D0
7400
A400
A000
A000
ENDCHAR
STARTCHAR t.ss01
ENCODING -1
SWIDTH 343 0
DWIDTH 3 0
BBX 4 7 0 0
BITMAP
10
24
30
B8
60
61
39
ENDCHAR
STARTCHAR uni0163.ss01
ENCODING -1
SWIDTH 343 0
DWIDTH 3 0
BBX 4 9 0 -2
BITMAP
10
34
30
BC
60
61
3D
18
74
ENDCHAR
STARTCHAR uni021B.ss01
ENCODING -1
SWIDTH 343 0
DWIDTH 3 0
BBX 4 10 0 -3
BITMAP
10
24
30
B8
60
61
39
00
24
20
ENDCHAR
STARTCHAR z.ss01
ENCODING -1
SWIDTH 432 0
DWIDTH 3 0
BBX 6 8 -1 -3
BITMAP
1440
1B40
0900
1990
0A00
2A00
6900
2400
ENDCHAR
STARTCHAR zacute.ss01
ENCODING -1
SWIDTH 432 0
DWIDTH 3 0
BBX 6 11 -1 -3
BITMAP
0140
0240
0200
1440
1B40
0900
1990
0A00
2A00
6900
2400
ENDCHAR
STARTCHAR zcaron.ss01
ENCODING -1
SWIDTH 432 0
DWIDTH 3 0
BBX 6 11 -1 -3
BITMAP
0880
0A40
0600
1440
1B40
0900
1990
0A00
2A00
6900
2400
ENDCHAR
STARTCHAR zdotaccent.ss01
ENCODING -1
SWIDTH 432 0
DWIDTH 3 0
BBX 6 9 -1 -3
BITMAP
0600
1440
1B40
0900
1990
0A00
2A00
6900
2400
ENDCHAR
STARTCHAR f_f
ENCODING -1
SWIDTH 684 0
DWIDTH 5 0
BBX 7 11 0 -3
BITMAP
0D70
26A4
37A0
2A60
77D0
7F80
A7B4
AB80
AB80
6780
3280
ENDCHAR
STARTCHAR f_j
ENCODING -1
SWIDTH 633 0
DWIDTH 5 0
BBX 6 11 0 -3
BITMAP
0A00
1A00
2680
3800
BF80
6180
69A0
6AD0
6A40
2700
0200
ENDCHAR
STARTCHAR lslash_lslash
ENCODING -1
SWIDTH 654 0
DWIDTH 5 0
BBX 7 9 0 0
BITMAP
1AF8
2400
1DA0
36A0
6B60
6A50
B780
6350
3AE0
ENDCHAR
STARTCHAR t_t
ENCODING -1
SWIDTH 706 0
DWIDTH 6 0
BBX 7 8 0 0
BITMAP
0960
2AA0
26A0
3A90
BFE0
6240
6344
2DE0
ENDCHAR
STARTCHAR f_j.fina
ENCODING -1
SWIDTH 624 0
DWIDTH 5 0
BBX 5 11 0 -3
BITMAP
0A00
1A00
2680
3800
BF80
6180
6980
6A40
6A40
2700
0200
ENDCHAR
STARTCHAR fi.fina
ENCODING -1
SWIDTH 603 0
DWIDTH 5 0
BBX 5 11 0 -3
BITMAP
0A00
1A00
2680
3800
BF80
6580
6A40
6A40
6800
6800
2400
ENDCHAR
STARTCHAR fl.fina
ENCODING -1
SWIDTH 730 0
DWIDTH 6 0
BBX 7 11 0 -3
BITMAP
0970
16A4
36A4
3AA0
76A0
62C0
AB40
A5E0
A400
6400
3000
ENDCHAR
STARTCHAR f_ij.loclNLD.fina
ENCODING -1
SWIDTH 837 0
DWIDTH 7 0
BBX 7 12 0 -4
BITMAP
0A00
1A00
2698
3800
BF98
65A4
69B4
69E0
6870
69A0
2650
0280
ENDCHAR
STARTCHAR i_j.loclNLD.fina
ENCODING -1
SWIDTH 451 0
DWIDTH 4 0
BBX 4 10 0 -4
BITMAP
26
00
65
59
AD
6C
2C
68
A4
A0
ENDCHAR
STARTCHAR t_t.ss01.fina
ENCODING -1
SWIDTH 666 0
DWIDTH 5 0
BBX 6 7 0 0
BITMAP
1040
2680
3240
BFD0
6300
6700
7AD0
ENDCHAR
STARTCHAR I_J.loclNLD
ENCODING -1
SWIDTH 776 0
DWIDTH 6 0
BBX 5 7 1 0
BITMAP
9080
D1C0
C280
C780
BE40
4300
BD00
ENDCHAR
STARTCHAR f_ij.loclNLD
ENCODING -1
SWIDTH 865 0
DWIDTH 7 0
BBX 8 12 0 -4
BITMAP
0600
1700
2698
3C00
BF98
65A4
69B5
69E9
6870
69A0
2650
0280
ENDCHAR
STARTCHAR i_j.loclNLD
ENCODING -1
SWIDTH 479 0
DWIDTH 4 0
BBX 5 10 0 -4
BITMAP
2600
0000
6500
5900
AD80
6E00
2C00
6800
A400
A000
ENDCHAR
STARTCHAR t_t.ss01
ENCODING -1
SWIDTH 632 0
DWIDTH 5 0
BBX 6 7 0 0
BITMAP
1040
2680
3240
BFD0
6300
6720
7AD0
ENDCHAR
STARTCHAR uni0410.ss01
ENCODING -1
SWIDTH 780 0
DWIDTH 6 0
BBX 7 7 0 0
BITMAP
06F4
1D20
3460
60A0
A0D0
61D0
2EC0
ENDCHAR
STARTCHAR uni0411.ss01
ENCODING -1
SWIDTH 881 0
DWIDTH 7 0
BBX 6 8 1 -1
BITMAP
7FD0
2800
2400
7FD0
7070
3060
72D0
1100
ENDCHAR
STARTCHAR uni0412.ss01
ENCODING -1
SWIDTH 826 0
DWIDTH 7 0
BBX 7 7 0 0
BITMAP
1FE0
1434
2474
37D0
3070
70A0
7F80
ENDCHAR
STARTCHAR uni0413.ss01
ENCODING -1
SWIDTH 634 0
DWIDTH 5 0
BBX 6 7 1 0
BITMAP
7FE0
2800
2400
3400
3000
7000
6000
ENDCHAR
STARTCHAR uni0403.ss01
ENCODING -1
SWIDTH 634 0
DWIDTH 5 0
BBX 6 10 1 0
BITMAP
0180
0600
0000
7FE0
2800
2400
3400
3000
7000
6000
ENDCHAR
STARTCHAR uni0490.ss01
ENCODING -1
SWIDTH 639 0
DWIDTH 5 0
BBX 6 9 1 0
BITMAP
0020
0030
7FE0
2800
2400
3400
3000
7000
6000
ENDCHAR
STARTCHAR uni0414.ss01
ENCODING -1
SWIDTH 836 0
DWIDTH 7 0
BBX 7 7 0 0
BITMAP
2F90
5474
1824
2424
3434
30A0
3F80
ENDCHAR
STARTCHAR uni0415.ss01
ENCODING -1
SWIDTH 720 0
DWIDTH 6 0
BBX 6 7 0 0
BITMAP
1BD0
3460
3450
2E00
6000
A050
2F80
ENDCHAR
STARTCHAR uni0400.ss01
ENCODING -1
SWIDTH 720 0
DWIDTH 6 0
BBX 6 10 0 0
BITMAP
1800
0600
0000
1BD0
3460
3450
2E00
6000
A050
2F80
ENDCHAR
STARTCHAR uni0401.ss01
ENCODING -1
SWIDTH 720 0
DWIDTH 6 0
BBX 6 9 0 0
BITMAP
0580
0000
1BD0
3460
3450
2E00
6000
A050
2F80
ENDCHAR
STARTCHAR uni0416.ss01
ENCODING -1
SWIDTH 1196 0
DWIDTH 10 0
BBX 10 7 0 0
BITMAP
2C21D0
0A6300
036A00
02F800
099D00
18D600
B0C2D0
ENDCHAR
STARTCHAR uni0417.ss01
ENCODING -1
SWIDTH 725 0
DWIDTH 6 0
BBX 6 7 0 0
BITMAP
1B80
34C0
1180
0A80
5090
61D0
2F40
ENDCHAR
STARTCHAR uni0418.ss01
ENCODING -1
SWIDTH 800 0
DWIDTH 6 0
BBX 6 7 0 0
BITMAP
1830
2430
2470
30A0
30E0
7290
3D90
ENDCHAR
STARTCHAR uni0419.ss01
ENCODING -1
SWIDTH 800 0
DWIDTH 6 0
BBX 6 9 0 0
BITMAP
0110
07D0
1830
2430
2470
30A0
30E0
7290
3D90
ENDCHAR
STARTCHAR uni040D.ss01
ENCODING -1
SWIDTH 800 0
DWIDTH 6 0
BBX 6 10 0 0
BITMAP
1800
0600
0000
1830
2430
2470
30A0
30E0
7290
3D90
ENDCHAR
STARTCHAR uni048A.ss01
ENCODING -1
SWIDTH 815 0
DWIDTH 7 0
BBX 7 9 0 -2
BITMAP
1830
2430
2470
30A0
30E0
76A0
3DB4
00A0
0080
ENDCHAR
STARTCHAR uni041A.ss01
ENCODING -1
SWIDTH 779 0
DWIDTH 6 0
BBX 6 7 0 0
BITMAP
1830
28A0
25C0
7E00
3340
7280
60B0
ENDCHAR
STARTCHAR uni040C.ss01
ENCODING -1
SWIDTH 779 0
DWIDTH 6 0
BBX 6 10 0 0
BITMAP
0070
0090
0000
1830
28A0
25C0
7E00
3340
7280
60B0
ENDCHAR
STARTCHAR uni041B.ss01
ENCODING -1
SWIDTH 706 0
DWIDTH 6 0
BBX 6 7 0 0
BITMAP
0240
0740
0B40
0E40
1A40
3680
D0D0
ENDCHAR
STARTCHAR uni041C.ss01
ENCODING -1
SWIDTH 967 0
DWIDTH 8 0
BBX 8 7 0 0
BITMAP
0A18
0E3C
1E78
1AA8
27D8
339C
D249
ENDCHAR
STARTCHAR uni041D.ss01
ENCODING -1
SWIDTH 846 0
DWIDTH 7 0
BBX 7 7 0 0
BITMAP
1824
2834
2430
7FF8
3060
3060
6090
ENDCHAR
STARTCHAR uni041E.ss01
ENCODING -1
SWIDTH 816 0
DWIDTH 7 0
BBX 7 7 0 0
BITMAP
0BD0
2870
7034
6034
6030
70A0
1F80
ENDCHAR
STARTCHAR uni041F.ss01
ENCODING -1
SWIDTH 847 0
DWIDTH 7 0
BBX 6 7 1 0
BITMAP
FFF0
A0C0
90C0
9180
C180
C280
8240
ENDCHAR
STARTCHAR uni0420.ss01
ENCODING -1
SWIDTH 662 0
DWIDTH 5 0
BBX 6 7 0 0
BITMAP
2F40
28D0
28D0
25C0
7A00
3000
3000
ENDCHAR
STARTCHAR uni0421.ss01
ENCODING -1
SWIDTH 704 0
DWIDTH 6 0
BBX 6 7 0 0
BITMAP
0BD0
28A0
7050
6000
6000
7450
1F80
ENDCHAR
STARTCHAR uni0422.ss01
ENCODING -1
SWIDTH 631 0
DWIDTH 5 0
BBX 6 7 0 0
BITMAP
7FE0
0A00
0900
0D00
0C00
0C00
1800
ENDCHAR
STARTCHAR uni0423.ss01
ENCODING -1
SWIDTH 776 0
DWIDTH 6 0
BBX 5 7 1 0
BITMAP
9080
D1C0
C280
C780
BE40
4300
BD00
ENDCHAR
STARTCHAR uni040E.ss01
ENCODING -1
SWIDTH 776 0
DWIDTH 6 0
BBX 5 9 1 0
BITMAP
1140
1E00
9080
D1C0
C280
C780
BE40
4300
BD00
ENDCHAR
STARTCHAR uni0424.ss01
ENCODING -1
SWIDTH 978 0
DWIDTH 8 0
BBX 8 8 0 -1
BITMAP
00C0
1EED
35D6
6186
624A
678D
3AB4
0200
ENDCHAR
STARTCHAR uni0425.ss01
ENCODING -1
SWIDTH 677 0
DWIDTH 5 0
BBX 7 7 -1 0
BITMAP
0918
0674
03D0
0280
0AC0
18A0
7070
ENDCHAR
STARTCHAR uni0427.ss01
ENCODING -1
SWIDTH 773 0
DWIDTH 6 0
BBX 5 7 1 0
BITMAP
9080
9180
D280
C780
BE40
0240
0240
ENDCHAR
STARTCHAR uni0426.ss01
ENCODING -1
SWIDTH 822 0
DWIDTH 7 0
BBX 7 10 0 -3
BITMAP
1830
2430
2470
30A0
30E0
72A0
3D74
0074
01B0
01D0
ENDCHAR
STARTCHAR uni0428.ss01
ENCODING -1
SWIDTH 1174 0
DWIDTH 9 0
BBX 9 7 0 0
BITMAP
1860C0
2460C0
24A1C0
309280
31C380
76DA40
3DB640
ENDCHAR
STARTCHAR uni0429.ss01
ENCODING -1
SWIDTH 1194 0
DWIDTH 10 0
BBX 10 10 0 -3
BITMAP
1860C0
2460C0
24A1C0
309280
31C380
76DA80
3DB5D0
0001C0
0006C0
000740
ENDCHAR
STARTCHAR uni040F.ss01
ENCODING -1
SWIDTH 800 0
DWIDTH 6 0
BBX 6 9 0 -2
BITMAP
1830
2430
2470
30A0
30E0
7690
3D90
0C00
0400
ENDCHAR
STARTCHAR uni042C.ss01
ENCODING -1
SWIDTH 721 0
DWIDTH 6 0
BBX 6 7 0 0
BITMAP
1800
2400
3B80
B0A0
30A0
30D0
1F40
ENDCHAR
STARTCHAR uni042A.ss01
ENCODING -1
SWIDTH 863 0
DWIDTH 7 0
BBX 6 7 1 0
BITMAP
FD00
1800
2F90
74A0
3060
3490
1F80
ENDCHAR
STARTCHAR uni042B.ss01
ENCODING -1
SWIDTH 1078 0
DWIDTH 9 0
BBX 9 7 0 0
BITMAP
180240
240340
3B8300
B0A700
30A600
30D600
1F4900
ENDCHAR
STARTCHAR uni0409.ss01
ENCODING -1
SWIDTH 998 0
DWIDTH 8 0
BBX 8 7 0 0
BITMAP
0240
0740
0B40
0FBD
1A46
368A
E0B8
ENDCHAR
STARTCHAR uni040A.ss01
ENCODING -1
SWIDTH 1102 0
DWIDTH 9 0
BBX 9 7 0 0
BITMAP
186000
289000
29FE40
79C280
30C280
30C340
607D00
ENDCHAR
STARTCHAR uni0405.ss01
ENCODING -1
SWIDTH 693 0
DWIDTH 6 0
BBX 6 7 0 0
BITMAP
1B80
30A0
3450
1E40
41C0
90C0
6F40
ENDCHAR
STARTCHAR uni0404.ss01
ENCODING -1
SWIDTH 704 0
DWIDTH 6 0
BBX 6 7 0 0
BITMAP
0BD0
28A0
7050
7F00
6000
7450
1F80
ENDCHAR
STARTCHAR uni042D.ss01
ENCODING -1
SWIDTH 755 0
DWIDTH 6 0
BBX 6 7 0 0
BITMAP
1F80
20A0
0070
1FF0
40A0
A1D0
6E40
ENDCHAR
STARTCHAR uni0406.ss01
ENCODING -1
SWIDTH 357 0
DWIDTH 3 0
BBX 3 7 0 0
BITMAP
18
24
24
30
30
70
60
ENDCHAR
STARTCHAR uni0407.ss01
ENCODING -1
SWIDTH 357 0
DWIDTH 3 0
BBX 4 9 0 0
BITMAP
25
00
18
24
24
30
30
70
60
ENDCHAR
STARTCHAR uni0408.ss01
ENCODING -1
SWIDTH 716 0
DWIDTH 6 0
BBX 6 7 0 0
BITMAP
2FE0
60D0
60C0
00C0
0180
6240
2E00
ENDCHAR
STARTCHAR uni040B.ss01
ENCODING -1
SWIDTH 884 0
DWIDTH 7 0
BBX 7 7 0 0
BITMAP
7FE0
0A00
0900
0EF4
0E28
0C28
1824
ENDCHAR
STARTCHAR uni042E.ss01
ENCODING -1
SWIDTH 1166 0
DWIDTH 9 0
BBX 9 7 0 0
BITMAP
182F40
28D1C0
2580C0
7F80C0
3281C0
31C240
60BD00
ENDCHAR
STARTCHAR uni042F.ss01
ENCODING -1
SWIDTH 827 0
DWIDTH 7 0
BBX 7 7 0 0
BITMAP
0BF4
1834
1870
0BF0
01B0
0760
7860
ENDCHAR
STARTCHAR uni0402.ss01
ENCODING -1
SWIDTH 843 0
DWIDTH 7 0
BBX 7 11 0 -4
BITMAP
7FE0
0A00
0900
0EF4
0E28
0C28
1824
00B4
01B0
0360
0280
ENDCHAR
STARTCHAR uni0462.ss01
ENCODING -1
SWIDTH 721 0
DWIDTH 6 0
BBX 6 7 0 0
BITMAP
1800
7D00
3F80
70A0
30A0
30D0
1F40
ENDCHAR
STARTCHAR uni046A.ss01
ENCODING -1
SWIDTH 1196 0
DWIDTH 10 0
BBX 10 7 0 0
BITMAP
2FFFD0
0A0300
030A00
02F800
099D00
18D600
B4C2D0
ENDCHAR
STARTCHAR uni0472.ss01
ENCODING -1
SWIDTH 816 0
DWIDTH 7 0
BBX 7 7 0 0
BITMAP
0BD0
2870
7034
7FF4
6030
70A0
1F80
ENDCHAR
STARTCHAR uni0474.ss01
ENCODING -1
SWIDTH 797 0
DWIDTH 6 0
BBX 7 7 1 0
BITMAP
90B8
D0D0
D0C0
C180
D340
AA00
7800
ENDCHAR
STARTCHAR uni0492.ss01
ENCODING -1
SWIDTH 634 0
DWIDTH 5 0
BBX 6 7 1 0
BITMAP
7FE0
2800
2400
BD00
3000
7000
6000
ENDCHAR
STARTCHAR uni0494.ss01
ENCODING -1
SWIDTH 889 0
DWIDTH 7 0
BBX 6 11 1 -4
BITMAP
7FE0
2800
2400
3AD0
38A0
70A0
6090
02D0
06C0
0D80
0A00
ENDCHAR
STARTCHAR uni0496.ss01
ENCODING -1
SWIDTH 1186 0
DWIDTH 9 0
BBX 10 10 0 -3
BITMAP
2C21D0
0A6300
036A00
02F800
099D00
18D600
B0C2C0
0006C0
000980
000B40
ENDCHAR
STARTCHAR uni0498.ss01
ENCODING -1
SWIDTH 725 0
DWIDTH 6 0
BBX 6 10 0 -3
BITMAP
1B80
34C0
1180
0A80
5090
61D0
2F80
0B00
2700
1D00
ENDCHAR
STARTCHAR uni049A.ss01
ENCODING -1
SWIDTH 779 0
DWIDTH 6 0
BBX 6 10 0 -3
BITMAP
1830
28A0
25C0
7E00
3340
7280
60E0
01E0
0790
0380
ENDCHAR
STARTCHAR uni049C.ss01
ENCODING -1
SWIDTH 779 0
DWIDTH 6 0
BBX 6 7 0 0
BITMAP
1830
28A0
2AC0
7E00
3B40
7A80
60B0
ENDCHAR
STARTCHAR uni049E.ss01
ENCODING -1
SWIDTH 779 0
DWIDTH 6 0
BBX 6 7 0 0
BITMAP
1830
3DA0
25C0
7E00
3340
7280
60B0
ENDCHAR
STARTCHAR uni04A0.ss01
ENCODING -1
SWIDTH 964 0
DWIDTH 8 0
BBX 7 7 1 0
BITMAP
FD24
0C34
1890
2F40
2A80
24D0
2474
ENDCHAR
STARTCHAR uni04A2.ss01
ENCODING -1
SWIDTH 846 0
DWIDTH 7 0
BBX 7 10 0 -3
BITMAP
1824
2834
2430
7FF8
3060
3060
6074
00B4
01A0
01E0
ENDCHAR
STARTCHAR uni04A4.ss01
ENCODING -1
SWIDTH 1026 0
DWIDTH 8 0
BBX 9 7 0 0
BITMAP
182F40
283400
243000
7FF800
306000
306000
609000
ENDCHAR
STARTCHAR uni0524.ss01
ENCODING -1
SWIDTH 892 0
DWIDTH 7 0
BBX 6 10 1 -3
BITMAP
FFF0
A0C0
90C0
9180
C280
C280
80D0
02D0
0AC0
0740
ENDCHAR
STARTCHAR uni04A8.ss01
ENCODING -1
SWIDTH 997 0
DWIDTH 8 0
BBX 9 7 0 0
BITMAP
0B7900
29DA00
728300
624700
628A00
75ED80
1FEE40
ENDCHAR
STARTCHAR uni04AA.ss01
ENCODING -1
SWIDTH 704 0
DWIDTH 6 0
BBX 6 11 0 -4
BITMAP
0BD0
28A0
7050
6000
6000
7450
1FD0
01D0
0280
0580
0740
ENDCHAR
STARTCHAR uni04AC.ss01
ENCODING -1
SWIDTH 697 0
DWIDTH 6 0
BBX 6 10 1 -3
BITMAP
BFD0
0900
0C00
0C00
1800
1800
2D00
2D00
AC00
7400
ENDCHAR
STARTCHAR uni04AE.ss01
ENCODING -1
SWIDTH 677 0
DWIDTH 5 0
BBX 5 7 1 0
BITMAP
9180
A340
3A00
2C00
1800
1800
1400
ENDCHAR
STARTCHAR uni04B0.ss01
ENCODING -1
SWIDTH 677 0
DWIDTH 5 0
BBX 5 7 1 0
BITMAP
9180
A340
3A00
2C00
7D00
1800
1400
ENDCHAR
STARTCHAR uni04B2.ss01
ENCODING -1
SWIDTH 677 0
DWIDTH 5 0
BBX 7 10 -1 -3
BITMAP
0918
0674
03D0
0280
0AC0
28A0
7038
00B4
01A4
01E0
ENDCHAR
STARTCHAR uni04B4.ss01
ENCODING -1
SWIDTH 965 0
DWIDTH 8 0
BBX 8 10 0 -3
BITMAP
7FD9
0A0D
090C
0D1C
0C28
0C68
0B9D
0019
0068
0078
ENDCHAR
STARTCHAR uni04B6.ss01
ENCODING -1
SWIDTH 804 0
DWIDTH 6 0
BBX 5 10 1 -3
BITMAP
9080
91C0
D280
C780
BE40
0240
02C0
01C0
0A80
0B40
ENDCHAR
STARTCHAR uni04B8.ss01
ENCODING -1
SWIDTH 773 0
DWIDTH 6 0
BBX 5 7 1 0
BITMAP
9080
9180
D680
DB80
BA40
1240
0240
ENDCHAR
STARTCHAR uni04BA.ss01
ENCODING -1
SWIDTH 744 0
DWIDTH 6 0
BBX 6 7 0 0
BITMAP
1800
2400
2400
3BD0
3890
7090
6090
ENDCHAR
STARTCHAR uni0526.ss01
ENCODING -1
SWIDTH 818 0
DWIDTH 7 0
BBX 7 10 0 -3
BITMAP
1800
2800
2400
3BD0
38A0
70A0
60B4
00B0
02B0
01D0
ENDCHAR
STARTCHAR uni0528.ss01
ENCODING -1
SWIDTH 846 0
DWIDTH 7 0
BBX 9 10 -2 -3
BITMAP
018240
028340
024300
07FF80
030600
030600
070900
060000
590000
780000
ENDCHAR
STARTCHAR uni052E.ss01
ENCODING -1
SWIDTH 706 0
DWIDTH 6 0
BBX 6 10 0 -3
BITMAP
0240
0740
0B40
0E40
1A40
3680
D1E0
02D0
0690
0780
ENDCHAR
STARTCHAR uni04BC.ss01
ENCODING -1
SWIDTH 824 0
DWIDTH 7 0
BBX 7 7 0 0
BITMAP
02E0
0A28
5C28
7FF4
1800
1D00
07F4
ENDCHAR
STARTCHAR uni04BE.ss01
ENCODING -1
SWIDTH 824 0
DWIDTH 7 0
BBX 7 9 0 -2
BITMAP
02E0
0A28
5C28
7FF4
1800
1D00
07F4
0600
0780
ENDCHAR
STARTCHAR uni04C0.ss01
ENCODING -1
SWIDTH 357 0
DWIDTH 3 0
BBX 3 7 0 0
BITMAP
18
24
24
30
30
70
60
ENDCHAR
STARTCHAR uni04C1.ss01
ENCODING -1
SWIDTH 1196 0
DWIDTH 10 0
BBX 10 9 0 0
BITMAP
004400
00B800
2C21D0
0A6300
036A00
02F800
099D00
18D600
B0C2D0
ENDCHAR
STARTCHAR uni04C3.ss01
ENCODING -1
SWIDTH 779 0
DWIDTH 6 0
BBX 6 10 0 -3
BITMAP
1830
28A0
25C0
7E00
3340
7280
60E0
01E0
0790
0380
ENDCHAR
STARTCHAR uni04C5.ss01
ENCODING -1
SWIDTH 706 0
DWIDTH 6 0
BBX 6 9 0 -2
BITMAP
0240
0740
0B40
0E40
1A40
3680
D1E0
01C0
0240
ENDCHAR
STARTCHAR uni04C7.ss01
ENCODING -1
SWIDTH 846 0
DWIDTH 7 0
BBX 7 10 0 -3
BITMAP
1824
2834
2430
7FF8
3060
3060
6074
00B4
01A0
01E0
ENDCHAR
STARTCHAR uni04C9.ss01
ENCODING -1
SWIDTH 873 0
DWIDTH 7 0
BBX 7 9 0 -2
BITMAP
1824
2834
2430
7FF8
3060
3060
60B4
0060
0090
ENDCHAR
STARTCHAR uni04CB.ss01
ENCODING -1
SWIDTH 773 0
DWIDTH 6 0
BBX 5 10 1 -3
BITMAP
9080
9180
D280
C780
BE40
0240
0740
2D00
6800
7800
ENDCHAR
STARTCHAR uni04CD.ss01
ENCODING -1
SWIDTH 967 0
DWIDTH 8 0
BBX 8 9 0 -2
BITMAP
0A18
0E3C
1E78
1AA8
27D8
339C
D24E
000C
0014
ENDCHAR
STARTCHAR uni04D0.ss01
ENCODING -1
SWIDTH 780 0
DWIDTH 6 0
BBX 7 9 0 0
BITMAP
0154
01F4
06F4
1D20
3460
60A0
A0D0
61D0
2EC0
ENDCHAR
STARTCHAR uni04D2.ss01
ENCODING -1
SWIDTH 780 0
DWIDTH 6 0
BBX 7 9 0 0
BITMAP
0164
0000
06F4
1D20
3460
60A0
A0D0
61D0
2EC0
ENDCHAR
STARTCHAR uni04D4.ss01
ENCODING -1
SWIDTH 1057 0
DWIDTH 8 0
BBX 9 7 0 0
BITMAP
06AF40
1D3000
306000
60BF00
A0D000
61E000
2E2F40
ENDCHAR
STARTCHAR uni04D6.ss01
ENCODING -1
SWIDTH 720 0
DWIDTH 6 0
BBX 6 9 0 0
BITMAP
0450
0780
1BD0
3460
3450
2E00
6000
A050
2F80
ENDCHAR
STARTCHAR uni04D8.ss01
ENCODING -1
SWIDTH 792 0
DWIDTH 6 0
BBX 6 7 0 0
BITMAP
1B90
2070
0030
7FF0
6070
7090
1F40
ENDCHAR
STARTCHAR uni04DA.ss01
ENCODING -1
SWIDTH 792 0
DWIDTH 6 0
BBX 6 9 0 0
BITMAP
0580
0000
1B90
2070
0030
7FF0
6070
7090
1F40
ENDCHAR
STARTCHAR uni04DC.ss01
ENCODING -1
SWIDTH 1196 0
DWIDTH 10 0
BBX 10 9 0 0
BITMAP
009800
000000
2C21D0
0A6300
036A00
02F800
099D00
18D600
B0C2D0
ENDCHAR
STARTCHAR uni04DE.ss01
ENCODING -1
SWIDTH 725 0
DWIDTH 6 0
BBX 6 9 0 0
BITMAP
0980
0000
1B80
34C0
1180
0A80
5090
61D0
2F40
ENDCHAR
STARTCHAR uni04E0.ss01
ENCODING -1
SWIDTH 744 0
DWIDTH 6 0
BBX 6 7 0 0
BITMAP
1FE0
30A0
1180
0A80
5090
61D0
2F40
ENDCHAR
STARTCHAR uni04E2.ss01
ENCODING -1
SWIDTH 800 0
DWIDTH 6 0
BBX 6 8 0 0
BITMAP
07C0
1830
2430
2470
30A0
30E0
7290
3D90
ENDCHAR
STARTCHAR uni04E4.ss01
ENCODING -1
SWIDTH 800 0
DWIDTH 6 0
BBX 6 9 0 0
BITMAP
0690
0000
1830
2430
2470
30A0
30E0
7290
3D90
ENDCHAR
STARTCHAR uni04E6.ss01
ENCODING -1
SWIDTH 816 0
DWIDTH 7 0
BBX 7 9 0 0
BITMAP
0690
0000
0BD0
2870
7034
6034
6030
70A0
1F80
ENDCHAR
STARTCHAR uni04E8.ss01
ENCODING -1
SWIDTH 816 0
DWIDTH 7 0
BBX 7 7 0 0
BITMAP
0BD0
2870
7034
7FF4
6030
70A0
1F80
ENDCHAR
STARTCHAR uni04EA.ss01
ENCODING -1
SWIDTH 816 0
DWIDTH 7 0
BBX 7 9 0 0
BITMAP
0690
0000
0BD0
2870
7034
7FF4
6030
70A0
1F80
ENDCHAR
STARTCHAR uni04EC.ss01
ENCODING -1
SWIDTH 755 0
DWIDTH 6 0
BBX 6 9 0 0
BITMAP
0980
0000
1F80
20A0
0070
1FF0
40A0
A1D0
6E40
ENDCHAR
STARTCHAR uni04EE.ss01
ENCODING -1
SWIDTH 776 0
DWIDTH 6 0
BBX 5 8 1 0
BITMAP
1E00
9080
D1C0
C280
C780
BE40
4300
BD00
ENDCHAR
STARTCHAR uni04F0.ss01
ENCODING -1
SWIDTH 776 0
DWIDTH 6 0
BBX 5 9 1 0
BITMAP
1600
0000
9080
D1C0
C280
C780
BE40
4300
BD00
ENDCHAR
STARTCHAR uni04F2.ss01
ENCODING -1
SWIDTH 776 0
DWIDTH 6 0
BBX 5 10 1 0
BITMAP
0A40
1600
0000
9080
D1C0
C280
C780
BE40
4300
BD00
ENDCHAR
STARTCHAR uni04F4.ss01
ENCODING -1
SWIDTH 773 0
DWIDTH 6 0
BBX 5 9 1 0
BITMAP
2600
0000
9080
9180
D280
C780
BE40
0240
0240
ENDCHAR
STARTCHAR uni04F6.ss01
ENCODING -1
SWIDTH 600 0
DWIDTH 5 0
BBX 7 10 0 -3
BITMAP
1FF8
0A00
0900
0D00
0C00
0C00
1D00
2D00
6900
7800
ENDCHAR
STARTCHAR uni04F8.ss01
ENCODING -1
SWIDTH 1078 0
DWIDTH 9 0
BBX 9 9 0 0
BITMAP
009400
000000
180240
240340
3B8300
B0A700
30A600
30D600
1F4900
ENDCHAR
STARTCHAR uni04FA.ss01
ENCODING -1
SWIDTH 634 0
DWIDTH 5 0
BBX 8 10 -1 -3
BITMAP
07FE
0280
0240
0BD0
0300
0300
0600
0A00
5900
7800
ENDCHAR
STARTCHAR uni04FC.ss01
ENCODING -1
SWIDTH 846 0
DWIDTH 7 0
BBX 7 10 0 -3
BITMAP
1824
2834
2430
7FF8
3060
3060
6074
00B4
01A0
01E0
ENDCHAR
STARTCHAR uni04FE.ss01
ENCODING -1
SWIDTH 677 0
DWIDTH 5 0
BBX 7 7 -1 0
BITMAP
0918
0A34
03D0
0BE0
0AC0
1CA0
7070
ENDCHAR
STARTCHAR uni0510.ss01
ENCODING -1
SWIDTH 706 0
DWIDTH 6 0
BBX 6 7 0 0
BITMAP
1B80
2490
2440
2A00
A050
70D0
2F40
ENDCHAR
STARTCHAR uni0512.ss01
ENCODING -1
SWIDTH 706 0
DWIDTH 6 0
BBX 6 10 0 -3
BITMAP
0240
0740
0B40
0E40
1A40
3680
D1E0
02D0
0690
0780
ENDCHAR
STARTCHAR uni051A.ss01
ENCODING -1
SWIDTH 816 0
DWIDTH 7 0
BBX 7 10 0 -3
BITMAP
0BD0
2870
7034
6034
6030
70A0
2F80
0340
01C0
0040
ENDCHAR
STARTCHAR uni051C.ss01
ENCODING -1
SWIDTH 1236 0
DWIDTH 10 0
BBX 9 7 1 0
BITMAP
90C0C0
D1C180
C1C280
C2C340
C6C600
99D900
787400
ENDCHAR
STARTCHAR uni048C.ss01
ENCODING -1
SWIDTH 721 0
DWIDTH 6 0
BBX 6 7 0 0
BITMAP
1800
7D00
3F80
70A0
30A0
30D0
1F40
ENDCHAR
STARTCHAR uni048E.ss01
ENCODING -1
SWIDTH 662 0
DWIDTH 5 0
BBX 6 7 0 0
BITMAP
2F40
28D0
29D0
26E0
7E00
3000
3000
ENDCHAR
STARTCHAR uni0430.fina
ENCODING -1
SWIDTH 458 0
DWIDTH 4 0
BBX 4 4 0 0
BITMAP
2D
69
9D
78
ENDCHAR
STARTCHAR uni0431.fina
ENCODING -1
SWIDTH 473 0
DWIDTH 4 0
BBX 4 8 0 0
BITMAP
1A
34
24
0C
3D
A6
99
78
ENDCHAR
STARTCHAR uni0432.fina
ENCODING -1
SWIDTH 475 0
DWIDTH 4 0
BBX 4 8 0 0
BITMAP
1D
25
29
68
7D
A6
65
38
ENDCHAR
STARTCHAR uni0433.fina
ENCODING -1
SWIDTH 382 0
DWIDTH 3 0
BBX 3 4 0 0
BITMAP
78
18
A4
78
ENDCHAR
STARTCHAR uni0453.fina
ENCODING -1
SWIDTH 382 0
DWIDTH 3 0
BBX 3 8 0 0
BITMAP
04
0C
14
00
78
18
A4
78
ENDCHAR
STARTCHAR uni0491.fina
ENCODING -1
SWIDTH 394 0
DWIDTH 3 0
BBX 4 5 0 0
BITMAP
05
78
90
90
50
ENDCHAR
STARTCHAR uni0434.fina
ENCODING -1
SWIDTH 449 0
DWIDTH 4 0
BBX 4 8 0 -4
BITMAP
2D
69
9D
7C
2C
68
A4
A0
ENDCHAR
STARTCHAR uni0435.fina
ENCODING -1
SWIDTH 411 0
DWIDTH 3 0
BBX 4 4 0 0
BITMAP
2C
98
A5
78
ENDCHAR
STARTCHAR uni0450.fina
ENCODING -1
SWIDTH 411 0
DWIDTH 3 0
BBX 4 8 0 0
BITMAP
10
30
14
00
2C
98
A5
78
ENDCHAR
STARTCHAR uni0451.fina
ENCODING -1
SWIDTH 411 0
DWIDTH 3 0
BBX 4 6 0 0
BITMAP
25
00
2C
98
A5
78
ENDCHAR
STARTCHAR uni0436.fina
ENCODING -1
SWIDTH 783 0
DWIDTH 6 0
BBX 7 4 0 0
BITMAP
76A0
1FA0
9F44
B6A0
ENDCHAR
STARTCHAR uni0437.fina
ENCODING -1
SWIDTH 395 0
DWIDTH 3 0
BBX 4 8 -1 -4
BITMAP
1F
02
19
18
0E
29
69
78
ENDCHAR
STARTCHAR uni0438.fina
ENCODING -1
SWIDTH 460 0
DWIDTH 4 0
BBX 4 4 0 0
BITMAP
65
59
AD
69
ENDCHAR
STARTCHAR uni0439.fina
ENCODING -1
SWIDTH 460 0
DWIDTH 4 0
BBX 4 6 0 0
BITMAP
12
2D
65
59
AD
69
ENDCHAR
STARTCHAR uni045D.fina
ENCODING -1
SWIDTH 460 0
DWIDTH 4 0
BBX 4 8 0 0
BITMAP
10
34
18
00
65
59
AD
69
ENDCHAR
STARTCHAR uni048B.fina
ENCODING -1
SWIDTH 460 0
DWIDTH 4 0
BBX 4 9 0 -2
BITMAP
01
22
2D
65
59
AD
69
18
10
ENDCHAR
STARTCHAR uni043A.fina
ENCODING -1
SWIDTH 541 0
DWIDTH 4 0
BBX 5 4 0 0
BITMAP
6A00
BA00
B440
6E00
ENDCHAR
STARTCHAR uni045C.fina
ENCODING -1
SWIDTH 541 0
DWIDTH 4 0
BBX 5 8 0 0
BITMAP
0100
0600
0800
0000
6A00
BA00
B440
6E00
ENDCHAR
STARTCHAR uni043B.fina
ENCODING -1
SWIDTH 463 0
DWIDTH 4 0
BBX 4 4 0 0
BITMAP
1C
2C
6C
D9
ENDCHAR
STARTCHAR uni043C.fina
ENCODING -1
SWIDTH 669 0
DWIDTH 5 0
BBX 5 4 0 0
BITMAP
2A80
3B80
6E80
D8C0
ENDCHAR
STARTCHAR uni043D.fina
ENCODING -1
SWIDTH 462 0
DWIDTH 4 0
BBX 4 4 0 0
BITMAP
66
BD
99
58
ENDCHAR
STARTCHAR uni043E.fina
ENCODING -1
SWIDTH 453 0
DWIDTH 4 0
BBX 4 4 0 0
BITMAP
38
99
99
78
ENDCHAR
STARTCHAR uni043F.fina
ENCODING -1
SWIDTH 484 0
DWIDTH 4 0
BBX 4 4 0 0
BITMAP
6A
BA
A9
59
ENDCHAR
STARTCHAR uni0440.fina
ENCODING -1
SWIDTH 457 0
DWIDTH 4 0
BBX 5 8 -1 -4
BITMAP
1B40
1A80
2A40
3E00
6400
A400
A000
A000
ENDCHAR
STARTCHAR uni0441.fina
ENCODING -1
SWIDTH 404 0
DWIDTH 3 0
BBX 4 4 0 0
BITMAP
38
98
95
78
ENDCHAR
STARTCHAR uni0442.fina
ENCODING -1
SWIDTH 732 0
DWIDTH 6 0
BBX 6 4 0 0
BITMAP
6AA0
BBA0
AA90
5590
ENDCHAR
STARTCHAR uni0443.fina
ENCODING -1
SWIDTH 449 0
DWIDTH 4 0
BBX 4 8 0 -4
BITMAP
65
59
AD
6C
2C
68
A4
A0
ENDCHAR
STARTCHAR uni045E.fina
ENCODING -1
SWIDTH 449 0
DWIDTH 4 0
BBX 4 10 0 -4
BITMAP
12
2D
65
59
AD
6C
2C
68
A4
A0
ENDCHAR
STARTCHAR uni0444.fina
ENCODING -1
SWIDTH 721 0
DWIDTH 6 0
BBX 6 10 0 -3
BITMAP
0100
0300
0600
2ED0
6A90
9DD0
7B40
0800
0800
0800
ENDCHAR
STARTCHAR uni0445.fina
ENCODING -1
SWIDTH 580 0
DWIDTH 5 0
BBX 5 4 0 0
BITMAP
7B40
1D00
9C40
BB40
ENDCHAR
STARTCHAR uni0447.fina
ENCODING -1
SWIDTH 422 0
DWIDTH 3 0
BBX 4 5 0 0
BITMAP
10
7C
24
61
78
ENDCHAR
STARTCHAR uni0446.fina
ENCODING -1
SWIDTH 468 0
DWIDTH 4 0
BBX 4 7 0 -3
BITMAP
65
59
AD
69
1D
28
28
ENDCHAR
STARTCHAR uni0448.fina
ENCODING -1
SWIDTH 693 0
DWIDTH 6 0
BBX 6 4 0 0
BITMAP
6590
59D0
AEC0
7AC0
ENDCHAR
STARTCHAR uni0449.fina
ENCODING -1
SWIDTH 699 0
DWIDTH 6 0
BBX 6 7 0 -3
BITMAP
6590
59C0
AEC0
7A90
01D0
0280
0340
ENDCHAR
STARTCHAR uni045F.fina
ENCODING -1
SWIDTH 462 0
DWIDTH 4 0
BBX 4 5 0 -1
BITMAP
65
59
AD
79
20
ENDCHAR
STARTCHAR uni044C.fina
ENCODING -1
SWIDTH 517 0
DWIDTH 4 0
BBX 4 4 0 0
BITMAP
60
BD
A6
7D
ENDCHAR
STARTCHAR uni044A.fina
ENCODING -1
SWIDTH 543 0
DWIDTH 4 0
BBX 4 4 0 0
BITMAP
74
7E
66
3D
ENDCHAR
STARTCHAR uni044B.fina
ENCODING -1
SWIDTH 683 0
DWIDTH 5 0
BBX 6 4 0 0
BITMAP
6090
BD90
A6C0
7DC0
ENDCHAR
STARTCHAR uni0459.fina
ENCODING -1
SWIDTH 709 0
DWIDTH 6 0
BBX 5 4 0 0
BITMAP
1C00
2E80
6CC0
DB80
ENDCHAR
STARTCHAR uni045A.fina
ENCODING -1
SWIDTH 751 0
DWIDTH 6 0
BBX 6 4 0 0
BITMAP
6600
BFD0
9990
5780
ENDCHAR
STARTCHAR uni0455.fina
ENCODING -1
SWIDTH 394 0
DWIDTH 3 0
BBX 3 4 0 0
BITMAP
24
34
9C
68
ENDCHAR
STARTCHAR uni0454.fina
ENCODING -1
SWIDTH 426 0
DWIDTH 3 0
BBX 4 4 0 0
BITMAP
3C
B4
95
7C
ENDCHAR
STARTCHAR uni044D.fina
ENCODING -1
SWIDTH 476 0
DWIDTH 4 0
BBX 4 4 0 0
BITMAP
7D
5E
8A
78
ENDCHAR
STARTCHAR uni0456.fina
ENCODING -1
SWIDTH 222 0
DWIDTH 2 0
BBX 2 6 0 0
BITMAP
20
00
60
60
90
90
ENDCHAR
STARTCHAR uni0457.fina
ENCODING -1
SWIDTH 222 0
DWIDTH 2 0
BBX 3 6 0 0
BITMAP
98
00
60
60
90
90
ENDCHAR
STARTCHAR uni0458.fina
ENCODING -1
SWIDTH 229 0
DWIDTH 2 0
BBX 4 10 -2 -4
BITMAP
06
00
06
06
09
09
1C
6C
98
B0
ENDCHAR
STARTCHAR uni045B.fina
ENCODING -1
SWIDTH 490 0
DWIDTH 4 0
BBX 4 7 0 0
BITMAP
24
7D
70
6A
7A
A6
55
ENDCHAR
STARTCHAR uni044E.fina
ENCODING -1
SWIDTH 676 0
DWIDTH 5 0
BBX 6 4 0 0
BITMAP
6780
BD90
9980
5780
ENDCHAR
STARTCHAR uni044F.fina
ENCODING -1
SWIDTH 496 0
DWIDTH 4 0
BBX 4 4 0 0
BITMAP
3E
65
3D
A9
ENDCHAR
STARTCHAR uni0452.fina
ENCODING -1
SWIDTH 493 0
DWIDTH 4 0
BBX 4 11 0 -4
BITMAP
24
7D
70
6A
7A
A6
59
1C
6C
98
B0
ENDCHAR
STARTCHAR uni0463.fina
ENCODING -1
SWIDTH 517 0
DWIDTH 4 0
BBX 4 6 0 0
BITMAP
10
30
B8
AD
A6
7D
ENDCHAR
STARTCHAR uni046B.fina
ENCODING -1
SWIDTH 878 0
DWIDTH 7 0
BBX 7 7 0 0
BITMAP
00C0
01C0
0280
0EB4
0AC0
9EC4
B778
ENDCHAR
STARTCHAR uni0473.fina
ENCODING -1
SWIDTH 453 0
DWIDTH 4 0
BBX 4 4 0 0
BITMAP
38
99
BD
78
ENDCHAR
STARTCHAR uni0475.fina
ENCODING -1
SWIDTH 420 0
DWIDTH 3 0
BBX 5 4 0 0
BITMAP
9740
9900
A800
7000
ENDCHAR
STARTCHAR uni0493.fina
ENCODING -1
SWIDTH 407 0
DWIDTH 3 0
BBX 4 4 0 0
BITMAP
7C
58
65
78
ENDCHAR
STARTCHAR uni0495.fina
ENCODING -1
SWIDTH 442 0
DWIDTH 4 0
BBX 3 7 0 -3
BITMAP
78
18
A0
BC
28
68
74
ENDCHAR
STARTCHAR uni0497.fina
ENCODING -1
SWIDTH 784 0
DWIDTH 6 0
BBX 6 7 0 -3
BITMAP
76A0
1EA0
9F40
A6A0
00A0
01A0
0180
ENDCHAR
STARTCHAR uni0499.fina
ENCODING -1
SWIDTH 405 0
DWIDTH 3 0
BBX 3 7 0 -3
BITMAP
7C
58
18
AC
78
D4
A0
ENDCHAR
STARTCHAR uni049B.fina
ENCODING -1
SWIDTH 533 0
DWIDTH 4 0
BBX 4 7 0 -3
BITMAP
6A
BA
B4
6A
0A
29
28
ENDCHAR
STARTCHAR uni049D.fina
ENCODING -1
SWIDTH 567 0
DWIDTH 5 0
BBX 5 4 0 0
BITMAP
6B00
AA00
B840
5B40
ENDCHAR
STARTCHAR uni049F.fina
ENCODING -1
SWIDTH 541 0
DWIDTH 4 0
BBX 5 4 0 0
BITMAP
BA00
7A00
B440
6E00
ENDCHAR
STARTCHAR uni04A1.fina
ENCODING -1
SWIDTH 639 0
DWIDTH 5 0
BBX 5 4 0 0
BITMAP
7B80
2D80
3D40
2780
ENDCHAR
STARTCHAR uni04A3.fina
ENCODING -1
SWIDTH 482 0
DWIDTH 4 0
BBX 4 7 0 -3
BITMAP
66
BD
99
56
1D
29
28
ENDCHAR
STARTCHAR uni04A5.fina
ENCODING -1
SWIDTH 462 0
DWIDTH 4 0
BBX 4 4 0 0
BITMAP
67
BD
99
59
ENDCHAR
STARTCHAR uni0525.fina
ENCODING -1
SWIDTH 503 0
DWIDTH 4 0
BBX 4 7 0 -3
BITMAP
6A
BA
A9
56
0A
29
28
ENDCHAR
STARTCHAR uni04A9.fina
ENCODING -1
SWIDTH 644 0
DWIDTH 5 0
BBX 6 4 0 0
BITMAP
2B00
9940
9A50
7F80
ENDCHAR
STARTCHAR uni04AB.fina
ENCODING -1
SWIDTH 404 0
DWIDTH 3 0
BBX 3 7 0 -3
BITMAP
38
98
90
7C
28
68
70
ENDCHAR
STARTCHAR uni04AD.fina
ENCODING -1
SWIDTH 751 0
DWIDTH 6 0
BBX 6 7 0 -3
BITMAP
6AA0
BBA0
AA90
5560
00A0
0290
0280
ENDCHAR
STARTCHAR uni04AF.fina
ENCODING -1
SWIDTH 450 0
DWIDTH 4 0
BBX 4 7 0 -3
BITMAP
92
69
6C
74
30
30
30
ENDCHAR
STARTCHAR uni04B1.fina
ENCODING -1
SWIDTH 450 0
DWIDTH 4 0
BBX 4 7 0 -3
BITMAP
92
69
6C
74
B8
30
30
ENDCHAR
STARTCHAR uni04B3.fina
ENCODING -1
SWIDTH 580 0
DWIDTH 5 0
BBX 5 7 0 -3
BITMAP
7B40
1D00
9C00
BB40
0700
0A00
0D00
ENDCHAR
STARTCHAR uni04B5.fina
ENCODING -1
SWIDTH 468 0
DWIDTH 4 0
BBX 4 9 0 -3
BITMAP
2E
00
65
59
AD
69
1D
28
28
ENDCHAR
STARTCHAR uni04B7.fina
ENCODING -1
SWIDTH 461 0
DWIDTH 4 0
BBX 3 8 0 -3
BITMAP
10
7C
24
60
7C
2C
68
34
ENDCHAR
STARTCHAR uni04B9.fina
ENCODING -1
SWIDTH 473 0
DWIDTH 4 0
BBX 3 5 1 0
BITMAP
90
F4
A0
C4
B4
ENDCHAR
STARTCHAR uni0527.fina
ENCODING -1
SWIDTH 519 0
DWIDTH 4 0
BBX 4 11 0 -3
BITMAP
1D
25
28
68
7A
AA
A6
57
0A
1A
18
ENDCHAR
STARTCHAR uni04BB.fina
ENCODING -1
SWIDTH 490 0
DWIDTH 4 0
BBX 4 8 0 0
BITMAP
1D
25
28
68
7A
AA
A6
55
ENDCHAR
STARTCHAR uni0529.fina
ENCODING -1
SWIDTH 462 0
DWIDTH 4 0
BBX 5 7 -1 -3
BITMAP
1980
2F40
2640
2600
2400
6400
A000
ENDCHAR
STARTCHAR uni052F.fina
ENCODING -1
SWIDTH 530 0
DWIDTH 4 0
BBX 4 7 0 -3
BITMAP
1C
2C
6C
DF
0A
2A
18
ENDCHAR
STARTCHAR uni04BD.fina
ENCODING -1
SWIDTH 501 0
DWIDTH 4 0
BBX 4 4 0 0
BITMAP
1E
76
B9
1E
ENDCHAR
STARTCHAR uni04BF.fina
ENCODING -1
SWIDTH 501 0
DWIDTH 4 0
BBX 4 6 0 -2
BITMAP
1E
76
B9
1E
18
09
ENDCHAR
STARTCHAR uni04CF.fina
ENCODING -1
SWIDTH 222 0
DWIDTH 2 0
BBX 3 7 0 0
BITMAP
24
30
30
60
60
90
90
ENDCHAR
STARTCHAR uni04C2.fina
ENCODING -1
SWIDTH 783 0
DWIDTH 6 0
BBX 7 6 0 0
BITMAP
0480
0B40
76A0
1FA0
9F44
B6A0
ENDCHAR
STARTCHAR uni04C4.fina
ENCODING -1
SWIDTH 533 0
DWIDTH 4 0
BBX 4 7 0 -3
BITMAP
6A
BA
B4
6A
0A
29
28
ENDCHAR
STARTCHAR uni04C6.fina
ENCODING -1
SWIDTH 463 0
DWIDTH 4 0
BBX 4 6 0 -2
BITMAP
1C
2C
6C
DA
0D
18
ENDCHAR
STARTCHAR uni04C8.fina
ENCODING -1
SWIDTH 482 0
DWIDTH 4 0
BBX 4 7 0 -3
BITMAP
66
BD
99
56
1D
29
28
ENDCHAR
STARTCHAR uni04CA.fina
ENCODING -1
SWIDTH 462 0
DWIDTH 4 0
BBX 4 6 0 -2
BITMAP
66
BD
99
59
08
10
ENDCHAR
STARTCHAR uni04CC.fina
ENCODING -1
SWIDTH 422 0
DWIDTH 3 0
BBX 4 6 0 -1
BITMAP
10
7C
24
61
7D
08
ENDCHAR
STARTCHAR uni04CE.fina
ENCODING -1
SWIDTH 669 0
DWIDTH 5 0
BBX 6 6 0 -2
BITMAP
2A80
3B80
6E80
D8D0
0180
0240
ENDCHAR
STARTCHAR uni04D1.fina
ENCODING -1
SWIDTH 458 0
DWIDTH 4 0
BBX 4 6 0 0
BITMAP
12
2D
2D
69
9D
78
ENDCHAR
STARTCHAR uni04D3.fina
ENCODING -1
SWIDTH 458 0
DWIDTH 4 0
BBX 4 6 0 0
BITMAP
26
00
2D
69
9D
78
ENDCHAR
STARTCHAR uni04D5.fina
ENCODING -1
SWIDTH 671 0
DWIDTH 5 0
BBX 6 4 0 0
BITMAP
2EC0
6A80
9E50
77D0
ENDCHAR
STARTCHAR uni04D7.fina
ENCODING -1
SWIDTH 411 0
DWIDTH 3 0
BBX 4 6 0 0
BITMAP
16
38
2C
98
A5
78
ENDCHAR
STARTCHAR uni04D9.fina
ENCODING -1
SWIDTH 458 0
DWIDTH 4 0
BBX 4 4 0 0
BITMAP
78
09
BD
78
ENDCHAR
STARTCHAR uni04DB.fina
ENCODING -1
SWIDTH 458 0
DWIDTH 4 0
BBX 4 6 0 0
BITMAP
25
00
78
09
BD
78
ENDCHAR
STARTCHAR uni04DD.fina
ENCODING -1
SWIDTH 783 0
DWIDTH 6 0
BBX 7 6 0 0
BITMAP
0980
0000
76A0
1FA0
9F44
B6A0
ENDCHAR
STARTCHAR uni04DF.fina
ENCODING -1
SWIDTH 395 0
DWIDTH 3 0
BBX 5 10 -1 -4
BITMAP
0940
0000
1F00
0200
1900
1800
0E00
2900
6900
7800
ENDCHAR
STARTCHAR uni04E1.fina
ENCODING -1
SWIDTH 456 0
DWIDTH 4 0
BBX 5 8 -1 -4
BITMAP
1F80
0A00
1800
1900
0E00
2900
6900
3400
ENDCHAR
STARTCHAR uni04E3.fina
ENCODING -1
SWIDTH 460 0
DWIDTH 4 0
BBX 4 5 0 0
BITMAP
2D
65
59
AD
69
ENDCHAR
STARTCHAR uni04E5.fina
ENCODING -1
SWIDTH 460 0
DWIDTH 4 0
BBX 4 6 0 0
BITMAP
26
00
65
59
AD
69
ENDCHAR
STARTCHAR uni04E7.fina
ENCODING -1
SWIDTH 453 0
DWIDTH 4 0
BBX 4 6 0 0
BITMAP
25
00
38
99
99
78
ENDCHAR
STARTCHAR uni04E9.fina
ENCODING -1
SWIDTH 453 0
DWIDTH 4 0
BBX 4 4 0 0
BITMAP
38
99
BD
78
ENDCHAR
STARTCHAR uni04EB.fina
ENCODING -1
SWIDTH 453 0
DWIDTH 4 0
BBX 4 6 0 0
BITMAP
25
00
38
99
BD
78
ENDCHAR
STARTCHAR uni04ED.fina
ENCODING -1
SWIDTH 466 0
DWIDTH 4 0
BBX 4 6 0 0
BITMAP
26
00
7D
5E
8A
78
ENDCHAR
STARTCHAR uni04EF.fina
ENCODING -1
SWIDTH 449 0
DWIDTH 4 0
BBX 4 9 0 -4
BITMAP
2D
65
59
AD
6C
2C
68
A4
A0
ENDCHAR
STARTCHAR uni04F1.fina
ENCODING -1
SWIDTH 449 0
DWIDTH 4 0
BBX 4 10 0 -4
BITMAP
26
00
65
59
AD
6C
2C
68
A4
A0
ENDCHAR
STARTCHAR uni04F3.fina
ENCODING -1
SWIDTH 449 0
DWIDTH 4 0
BBX 4 12 0 -4
BITMAP
05
1A
26
00
65
59
AD
6C
2C
68
A4
A0
ENDCHAR
STARTCHAR uni04F5.fina
ENCODING -1
SWIDTH 422 0
DWIDTH 3 0
BBX 4 6 0 0
BITMAP
25
10
7C
24
61
78
ENDCHAR
STARTCHAR uni04F7.fina
ENCODING -1
SWIDTH 442 0
DWIDTH 4 0
BBX 3 7 0 -3
BITMAP
78
18
A0
BC
28
68
74
ENDCHAR
STARTCHAR uni04F9.fina
ENCODING -1
SWIDTH 683 0
DWIDTH 5 0
BBX 6 6 0 0
BITMAP
0940
0000
6090
BD90
A6C0
7DC0
ENDCHAR
STARTCHAR uni04FB.fina
ENCODING -1
SWIDTH 442 0
DWIDTH 4 0
BBX 3 7 0 -3
BITMAP
78
58
A4
7C
28
68
74
ENDCHAR
STARTCHAR uni04FD.fina
ENCODING -1
SWIDTH 580 0
DWIDTH 5 0
BBX 5 7 0 -3
BITMAP
7B40
1D00
9C00
BB40
0700
0A00
0D00
ENDCHAR
STARTCHAR uni04FF.fina
ENCODING -1
SWIDTH 580 0
DWIDTH 5 0
BBX 5 4 0 0
BITMAP
7B40
2E00
9C80
BB40
ENDCHAR
STARTCHAR uni0511.fina
ENCODING -1
SWIDTH 387 0
DWIDTH 3 0
BBX 4 4 0 0
BITMAP
78
70
95
B8
ENDCHAR
STARTCHAR uni0513.fina
ENCODING -1
SWIDTH 530 0
DWIDTH 4 0
BBX 4 7 0 -3
BITMAP
1C
2C
6C
DF
0A
2A
18
ENDCHAR
STARTCHAR uni051B.fina
ENCODING -1
SWIDTH 449 0
DWIDTH 4 0
BBX 4 8 0 -3
BITMAP
01
2E
69
9C
7C
0C
18
18
ENDCHAR
STARTCHAR uni051D.fina
ENCODING -1
SWIDTH 666 0
DWIDTH 5 0
BBX 6 4 0 0
BITMAP
9950
9D80
AE80
7700
ENDCHAR
STARTCHAR uni048D.fina
ENCODING -1
SWIDTH 517 0
DWIDTH 4 0
BBX 4 6 0 0
BITMAP
10
30
B8
AD
A6
7D
ENDCHAR
STARTCHAR uni048F.fina
ENCODING -1
SWIDTH 457 0
DWIDTH 4 0
BBX 5 8 -1 -4
BITMAP
1B40
1A40
2B40
3E00
6400
A400
A000
A000
ENDCHAR
STARTCHAR uni030C.alt
ENCODING -1
SWIDTH 0 0
DWIDTH 0 0
BBX 2 2 -3 2
BITMAP
50
50
ENDCHAR
STARTCHAR uni0308.case
ENCODING -1
SWIDTH 0 0
DWIDTH 0 0
BBX 3 1 -4 5
BITMAP
98
ENDCHAR
STARTCHAR uni0307.case
ENCODING -1
SWIDTH 0 0
DWIDTH 0 0
BBX 2 1 -3 5
BITMAP
90
ENDCHAR
STARTCHAR gravecomb.case
ENCODING -1
SWIDTH 0 0
DWIDTH 0 0
BBX 3 2 -5 5
BITMAP
60
18
ENDCHAR
STARTCHAR acutecomb.case
ENCODING -1
SWIDTH 0 0
DWIDTH 0 0
BBX 3 2 -3 5
BITMAP
28
60
ENDCHAR
STARTCHAR uni030B.case
ENCODING -1
SWIDTH 0 0
DWIDTH 0 0
BBX 4 2 -4 5
BITMAP
29
58
ENDCHAR
STARTCHAR uni0302.case
ENCODING -1
SWIDTH 0 0
DWIDTH 0 0
BBX 3 3 -4 5
BITMAP
10
78
98
ENDCHAR
STARTCHAR uni030C.case
ENCODING -1
SWIDTH 0 0
DWIDTH 0 0
BBX 3 2 -4 5
BITMAP
58
34
ENDCHAR
STARTCHAR uni0306.case
ENCODING -1
SWIDTH 0 0
DWIDTH 0 0
BBX 4 2 -4 4
BITMAP
45
B8
ENDCHAR
STARTCHAR uni030A.case
ENCODING -1
SWIDTH 0 0
DWIDTH 0 0
BBX 3 3 -4 4
BITMAP
24
58
34
ENDCHAR
STARTCHAR tildecomb.case
ENCODING -1
SWIDTH 0 0
DWIDTH 0 0
BBX 4 2 -4 5
BITMAP
51
A9
ENDCHAR
STARTCHAR uni0304.case
ENCODING -1
SWIDTH 0 0
DWIDTH 0 0
BBX 3 1 -4 4
BITMAP
78
ENDCHAR
STARTCHAR hookabovecomb.case
ENCODING -1
SWIDTH 0 0
DWIDTH 0 0
BBX 2 2 -3 4
BITMAP
E0
A0
ENDCHAR
STARTCHAR uni030F.case
ENCODING -1
SWIDTH 0 0
DWIDTH 0 0
BBX 3 2 -4 5
BITMAP
94
98
ENDCHAR
STARTCHAR uni0311.case
ENCODING -1
SWIDTH 0 0
DWIDTH 0 0
BBX 4 2 -4 4
BITMAP
78
89
ENDCHAR
STARTCHAR uni0312.case
ENCODING -1
SWIDTH 0 0
DWIDTH 0 0
BBX 2 2 -3 5
BITMAP
50
80
ENDCHAR
STARTCHAR uni031B.case
ENCODING -1
SWIDTH 0 0
DWIDTH 0 0
BBX 2 3 -3 3
BITMAP
10
30
50
ENDCHAR
STARTCHAR dotbelowcomb.case
ENCODING -1
SWIDTH 0 0
DWIDTH 0 0
BBX 2 1 -4 -2
BITMAP
90
ENDCHAR
STARTCHAR uni0324.case
ENCODING -1
SWIDTH 0 0
DWIDTH 0 0
BBX 4 1 -5 -2
BITMAP
69
ENDCHAR
STARTCHAR uni0326.case
ENCODING -1
SWIDTH 0 0
DWIDTH 0 0
BBX 2 2 -4 -2
BITMAP
50
50
ENDCHAR
STARTCHAR uni0327.case
ENCODING -1
SWIDTH 0 0
DWIDTH 0 0
BBX 3 3 -5 -2
BITMAP
28
0C
74
ENDCHAR
STARTCHAR uni0328.case
ENCODING -1
SWIDTH 0 0
DWIDTH 0 0
BBX 3 3 -4 -2
BITMAP
50
90
74
ENDCHAR
STARTCHAR uni032E.case
ENCODING -1
SWIDTH 0 0
DWIDTH 0 0
BBX 4 2 -5 -2
BITMAP
41
79
ENDCHAR
STARTCHAR uni0331.case
ENCODING -1
SWIDTH 0 0
DWIDTH 0 0
BBX 3 1 -5 -2
BITMAP
7C
ENDCHAR
STARTCHAR brevecombcy
ENCODING -1
SWIDTH 0 0
DWIDTH 0 0
BBX 3 2 -4 4
BITMAP
48
B4
ENDCHAR
STARTCHAR brevecombcy.case
ENCODING -1
SWIDTH 0 0
DWIDTH 0 0
BBX 3 2 -4 4
BITMAP
44
78
ENDCHAR
STARTCHAR uni03060301
ENCODING -1
SWIDTH 0 0
DWIDTH 0 0
BBX 4 3 -4 4
BITMAP
08
95
78
ENDCHAR
STARTCHAR uni03060300
ENCODING -1
SWIDTH 0 0
DWIDTH 0 0
BBX 4 3 -4 4
BITMAP
60
95
68
ENDCHAR
STARTCHAR uni03060309
ENCODING -1
SWIDTH 0 0
DWIDTH 0 0
BBX 3 3 -4 4
BITMAP
24
68
B8
ENDCHAR
STARTCHAR uni03060303
ENCODING -1
SWIDTH 0 0
DWIDTH 0 0
BBX 4 4 -4 4
BITMAP
11
98
45
68
ENDCHAR
STARTCHAR uni03020301
ENCODING -1
SWIDTH 0 0
DWIDTH 0 0
BBX 4 3 -4 5
BITMAP
02
39
98
ENDCHAR
STARTCHAR uni03020300
ENCODING -1
SWIDTH 0 0
DWIDTH 0 0
BBX 4 3 -5 5
BITMAP
60
1E
26
ENDCHAR
STARTCHAR uni03020309
ENCODING -1
SWIDTH 0 0
DWIDTH 0 0
BBX 4 4 -4 3
BITMAP
07
2A
6C
44
ENDCHAR
STARTCHAR uni03020303
ENCODING -1
SWIDTH 0 0
DWIDTH 0 0
BBX 4 3 -4 5
BITMAP
69
24
98
ENDCHAR
STARTCHAR uni03060301.case
ENCODING -1
SWIDTH 0 0
DWIDTH 0 0
BBX 4 3 -4 4
BITMAP
08
95
78
ENDCHAR
STARTCHAR uni03060300.case
ENCODING -1
SWIDTH 0 0
DWIDTH 0 0
BBX 4 3 -4 4
BITMAP
60
95
68
ENDCHAR
STARTCHAR uni03060309.case
ENCODING -1
SWIDTH 0 0
DWIDTH 0 0
BBX 3 3 -4 4
BITMAP
24
68
B8
ENDCHAR
STARTCHAR uni03060303.case
ENCODING -1
SWIDTH 0 0
DWIDTH 0 0
BBX 4 4 -4 4
BITMAP
11
98
45
68
ENDCHAR
STARTCHAR uni03020301.case
ENCODING -1
SWIDTH 0 0
DWIDTH 0 0
BBX 4 3 -4 5
BITMAP
02
39
98
ENDCHAR
STARTCHAR uni03020300.case
ENCODING -1
SWIDTH 0 0
DWIDTH 0 0
BBX 4 3 -5 5
BITMAP
60
1E
26
ENDCHAR
STARTCHAR uni03020309.case
ENCODING -1
SWIDTH 0 0
DWIDTH 0 0
BBX 4 4 -4 3
BITMAP
07
2A
6C
44
ENDCHAR
STARTCHAR uni03020303.case
ENCODING -1
SWIDTH 0 0
DWIDTH 0 0
BBX 4 3 -4 5
BITMAP
69
24
98
ENDCHAR
ENDFONT
